<svg width="1601" height="1000" viewBox="0 0 1601 1000" fill="none" xmlns="http://www.w3.org/2000/svg">
<rect width="1600" height="997.995" fill="url(#paint0_linear)"/>
<rect y="803.476" width="1600" height="196.524" fill="url(#paint1_linear)"/>
<path d="M281.716 317.474C281.716 317.474 285.744 270.363 323.824 250.224C361.904 230.086 365.809 211.779 375.939 218.003C386.07 224.106 432.205 238.141 438.185 250.224C444.166 262.307 462.229 319.549 474.312 344.081C486.395 368.613 526.306 422.682 545.468 420.729C564.629 418.776 586.721 424.757 592.701 438.792C598.681 452.828 630.781 508.361 638.836 520.688C646.891 533.015 682.53 597.214 680.699 603.194C678.869 609.175 713.531 693.512 713.531 693.512L590.748 747.58L328.218 690.338C328.218 690.338 277.567 574.146 268.535 562.307C259.381 550.469 281.716 317.474 281.716 317.474Z" fill="url(#paint2_linear)"/>
<path d="M0.366146 186.026C0.366146 186.026 70.301 121.828 84.4589 125.855C98.6168 129.883 145.972 107.792 176.973 103.764C207.974 99.7364 236.412 99.7363 273.271 135.863C310.13 171.99 273.149 173.943 294.264 242.169C315.378 310.395 400.325 438.67 415.338 506.164C430.35 573.78 474.044 711.331 491.741 720.485C509.317 729.517 900 760.273 900 760.273L518.104 928.581L0 797.743L0.366146 186.026Z" fill="url(#paint3_linear)"/>
<path d="M121.318 156.124C131.083 176.628 148.902 192.617 150.733 199.818C152.563 206.897 160.497 165.888 160.497 165.888C160.497 165.888 196.624 164.057 204.435 165.888C212.246 167.718 221.156 138.304 232.751 137.328C244.345 136.351 262.165 167.596 257.771 187.247C253.255 206.897 278.153 258.524 265.338 263.04C252.401 267.556 198.088 280.005 209.683 284.399C221.278 288.915 259.602 271.95 274.736 277.32C289.87 282.69 344.915 351.16 345.037 351.282C323.556 310.273 303.296 270.851 294.386 242.169C273.271 173.943 310.253 171.99 273.393 135.863C236.534 99.7363 207.974 99.7364 177.096 103.764C146.217 107.792 98.7392 129.883 84.5813 125.855C78.7229 124.146 63.4666 134.155 47.478 146.36C47.3559 146.482 111.432 135.619 121.318 156.124Z" fill="#43658E"/>
<path d="M357.486 254.13C363.344 245.464 373.352 229.354 379.455 236.799C385.435 244.122 408.869 236.066 406.916 257.791C404.963 279.516 400.203 290.867 414.239 274.878C428.275 258.89 436.941 281.591 443.043 298.922C449.146 316.254 467.819 369.101 439.015 377.157C410.211 385.212 427.054 382.283 461.473 389.118C495.891 395.83 511.269 423.536 518.714 417.922C526.159 412.307 538.609 434.643 536.045 441.966C534.825 445.505 543.124 433.178 553.743 420.363C550.692 420.24 547.64 420.363 544.589 420.729C525.427 422.682 485.517 368.613 473.434 344.081C461.351 319.549 443.287 262.307 437.307 250.224C431.326 238.141 385.191 224.106 375.061 218.003C364.931 211.9 361.147 230.208 322.945 250.224C322.213 250.59 321.359 251.079 320.626 251.567C320.871 255.595 322.823 258.402 328.56 256.815C343.206 252.787 351.627 262.795 357.486 254.13Z" fill="#53819B"/>
<path d="M1600.29 552.815C1593.3 552.641 1586.3 552.583 1579.3 552.524C1556.12 552.466 1532.95 552.524 1509.77 553.223C1461.81 554.736 1415.6 559.391 1375.8 570.506C1358.3 575.394 1341.98 580.98 1326.09 586.683C1318.51 589.36 1311.07 592.095 1303.49 594.713C1299.7 596.052 1295.91 597.332 1291.98 598.612C1290.08 599.252 1288.19 599.892 1286.15 600.532C1284.98 600.881 1283.81 601.289 1282.65 601.638C1282.36 601.754 1281.92 601.871 1281.48 601.987C1274.19 604.14 1266.61 606.235 1258.74 608.097C1254.37 609.145 1249.99 610.076 1245.33 611.007C1238.62 612.345 1238.33 612.403 1231.33 613.451C1209.9 616.651 1187.45 618.572 1165.15 620.376C1143.43 622.121 1121.71 623.634 1100.43 626.02C1076.52 628.639 1054.07 632.654 1031.47 636.495C1016.17 639.113 990.801 642.837 973.454 643.885C948.234 645.398 921.994 644.409 896.775 643.536C845.899 641.79 795.314 641.033 744.438 642.546C721.26 643.245 698.081 644.35 675.194 645.747C666.448 644.525 656.826 644.176 647.059 644.758C621.694 646.387 606.096 655.407 604.201 665.183C600.411 685.434 651.141 696.315 683.358 708.07C718.636 720.872 751.727 734.372 791.087 745.371C828.26 755.729 868.786 763.817 910.915 770.335C998.673 783.893 1093.57 789.13 1187.45 789.596C1238.62 789.829 1289.79 788.665 1340.67 786.686C1391.83 784.766 1443.29 782.555 1493.88 779.005C1530.47 776.445 1567.49 772.313 1600.29 765.039V552.815V552.815ZM658.721 664.601H658.576C658.867 664.601 659.013 664.601 659.013 664.601C659.013 664.601 658.867 664.601 658.721 664.601Z" fill="url(#paint4_linear)"/>
<path d="M788.34 655.523C781.693 656.106 770.497 640.246 770.497 640.246C775.862 647.476 781.576 645.261 781.576 645.261C779.127 645.144 775.745 642.812 773.529 640.946C779.127 644.794 786.124 642.811 786.124 642.811C779.827 642.578 774.229 634.648 774.229 634.648C779.593 639.08 788.223 638.497 788.223 638.497C783.092 637.564 773.762 632.899 767.698 629.517C775.278 631.499 786.591 630.799 786.591 630.799C767.348 627.417 760.234 617.388 760.234 617.388C763.616 620.887 775.045 622.636 776.794 622.869C773.996 622.403 768.981 620.07 765.249 618.204C770.03 619.72 776.095 619.954 776.095 619.954C770.497 618.904 764.783 612.607 761.75 608.758C767.698 615.405 775.278 613.773 775.278 613.773C769.331 613.19 763.266 604.21 760.118 598.728C762.917 602.81 765.715 602.694 765.715 602.694C763.15 602.227 760.584 594.88 760.584 594.88C766.065 603.977 774.345 603.393 774.345 603.393C767.465 602.81 760.701 592.664 760.701 592.664C765.016 598.612 772.596 595.93 772.596 595.93C764.083 595.347 758.835 582.052 758.835 582.052C761.4 585.434 766.998 585.55 768.631 585.434C766.182 585.434 763.85 584.268 762.1 583.101C766.065 584.967 771.43 583.918 771.43 583.918C766.998 583.684 760.351 573.072 760.351 573.072C764.316 576.337 769.214 574.238 769.214 574.238C764.316 574.121 759.884 567.474 759.884 567.474C763.15 571.789 769.214 570.506 769.214 570.506C762.567 570.623 756.502 560.01 756.502 560.01C759.068 564.325 762.917 562.576 762.917 562.576C758.485 562.459 756.269 557.561 756.269 557.561C759.651 561.876 766.065 559.544 766.065 559.544C755.803 557.444 753.587 549.864 753.587 549.864C757.085 554.762 762.917 552.78 762.917 552.78C756.852 553.596 753.587 548.698 753.587 548.698C757.669 554.296 766.299 551.03 766.299 551.03C758.018 551.497 753.12 542.634 753.12 542.634C754.636 544.733 757.435 543.916 757.435 543.916C755.103 544.383 751.371 538.902 751.371 538.902C754.753 542.983 760.934 540.185 760.934 540.185C755.336 542.05 744.49 525.49 744.49 525.49C744.49 525.49 733.645 542.05 728.047 540.185C728.047 540.185 734.228 543.1 737.61 538.902C737.61 538.902 733.878 544.383 731.545 543.916C731.545 543.916 734.344 544.733 735.86 542.634C735.86 542.634 730.962 551.497 722.682 551.03C722.682 551.03 731.429 554.296 735.394 548.698C735.394 548.698 732.128 553.596 726.064 552.78C726.064 552.78 731.895 554.879 735.394 549.864C735.394 549.864 733.061 557.444 722.915 559.544C722.915 559.544 729.33 561.993 732.712 557.561C732.712 557.561 730.612 562.459 726.064 562.576C726.064 562.576 729.913 564.325 732.478 560.01C732.478 560.01 726.297 570.623 719.767 570.506C719.767 570.506 725.714 571.789 729.096 567.474C729.096 567.474 724.781 574.238 719.767 574.238C719.767 574.238 724.665 576.337 728.63 573.072C728.63 573.072 721.982 583.801 717.551 583.918C717.551 583.918 722.915 584.967 726.88 583.101C725.131 584.268 722.799 585.55 720.35 585.434C721.982 585.55 727.58 585.434 730.146 582.052C730.146 582.052 724.781 595.347 716.385 595.93C716.385 595.93 723.965 598.612 728.28 592.664C728.28 592.664 721.516 602.81 714.635 603.393C714.635 603.393 722.799 604.093 728.397 594.88C728.397 594.88 725.831 602.227 723.265 602.694C723.265 602.694 725.948 602.694 728.863 598.728C725.714 604.326 719.65 613.19 713.702 613.773C713.702 613.773 721.166 615.405 727.23 608.758C724.198 612.607 718.484 618.904 712.886 619.954C712.886 619.954 718.834 619.72 723.732 618.204C720 620.07 714.985 622.403 712.186 622.869C713.936 622.636 725.364 620.887 728.746 617.388C728.746 617.388 721.633 627.417 702.39 630.799C702.39 630.799 713.586 631.499 721.283 629.517C715.102 632.899 705.889 637.564 700.757 638.497C700.757 638.497 709.387 639.08 714.752 634.648C714.752 634.648 709.271 642.462 702.856 642.811C702.856 642.811 709.737 644.794 715.452 640.946C713.236 642.812 709.854 645.144 707.405 645.261C707.405 645.261 713.119 647.476 718.484 640.246C718.484 640.246 707.288 656.106 700.641 655.523C700.641 655.523 709.854 656.456 716.968 652.258C714.985 654.357 712.886 656.456 710.787 658.089H743.674H745.423H778.311C776.328 656.456 774.112 654.357 772.13 652.258C779.127 656.573 788.34 655.523 788.34 655.523Z" fill="url(#paint5_linear)"/>
<path d="M786.008 638.963C780.876 642.112 770.73 647.943 765.249 647.826C765.249 647.826 766.882 648.059 769.331 648.292H857.497C859.946 648.059 861.578 647.826 861.578 647.826C856.097 647.943 845.951 642.112 840.82 638.963C848.05 641.528 862.395 639.429 862.395 639.429C858.779 638.613 854.698 636.63 850.733 634.065C852.365 633.948 853.532 633.598 853.532 633.598C851.316 633.365 848.517 632.199 846.301 631.033C843.735 629.167 841.17 627.184 838.954 625.318C842.569 626.484 847.117 625.901 847.117 625.901C844.785 625.435 843.036 624.502 841.869 623.336C845.951 623.219 849.216 621.586 849.216 621.586C843.385 619.021 839.887 614.822 839.887 614.822C844.202 618.437 855.747 614.122 855.747 614.122C844.785 613.189 833.239 602.81 828.691 598.379C832.889 601.527 837.788 599.895 837.788 599.895C830.324 600.361 826.242 589.865 826.242 589.865C832.656 599.311 850.149 594.53 850.149 594.53C835.922 595.113 825.659 573.888 825.659 573.888C832.656 582.168 845.018 577.503 845.018 577.503C833.123 577.27 830.324 567.124 830.324 567.124C834.289 568.99 835.688 567.707 835.688 567.707C831.14 567.824 827.758 562.692 827.758 562.692C834.872 568.757 844.085 563.159 844.085 563.159C836.971 564.675 828.574 550.564 828.574 550.564C831.956 553.129 838.254 550.564 838.254 550.564C835.339 551.263 829.857 548.231 826.125 545.899C833.706 549.398 844.085 546.948 844.085 546.948C831.723 545.316 824.843 536.219 824.843 536.219C829.274 538.085 832.306 537.036 832.306 537.036C823.327 536.919 820.061 528.989 820.061 528.989C821.227 530.621 827.408 530.855 827.408 530.855C825.542 530.855 822.044 527.823 822.044 527.823C826.825 530.038 834.755 528.172 834.755 528.172C819.011 528.172 816.213 513.361 818.428 515.81C820.644 518.376 823.793 516.394 823.793 516.394C817.962 513.828 815.28 506.014 813.997 499.6V490.737C813.997 490.737 813.997 493.069 813.53 496.451C813.064 493.069 813.064 490.737 813.064 490.737V499.6C811.781 506.014 809.215 513.828 803.268 516.394C803.268 516.394 806.533 518.26 808.632 515.81C810.848 513.245 808.049 528.172 792.305 528.172C792.305 528.172 800.235 530.038 805.017 527.823C805.017 527.823 801.518 530.855 799.652 530.855C799.652 530.855 805.717 530.738 806.999 528.989C806.999 528.989 803.851 536.802 794.754 537.036C794.754 537.036 797.786 537.969 802.218 536.219C802.218 536.219 795.337 545.199 782.975 546.948C782.975 546.948 793.355 549.514 800.935 545.899C797.203 548.231 791.722 551.263 788.807 550.564C788.807 550.564 795.104 553.129 798.486 550.564C798.486 550.564 790.206 564.791 782.975 563.159C782.975 563.159 792.072 568.757 799.302 562.692C799.302 562.692 795.92 567.94 791.372 567.707C791.372 567.707 792.772 568.99 796.737 567.124C796.737 567.124 793.938 577.27 782.042 577.503C782.042 577.503 794.404 582.168 801.402 573.888C801.402 573.888 791.022 595.113 776.911 594.53C776.911 594.53 794.404 599.311 800.819 589.865C800.819 589.865 796.737 600.244 789.273 599.895C789.273 599.895 794.171 601.527 798.369 598.379C793.821 602.81 782.276 613.189 771.313 614.122C771.313 614.122 782.859 618.437 787.174 614.822C787.174 614.822 783.675 618.904 777.844 621.586C777.844 621.586 781.109 623.219 785.191 623.336C784.025 624.385 782.276 625.435 779.943 625.901C779.943 625.901 784.375 626.484 788.107 625.318C785.891 627.184 783.442 629.167 780.76 631.033C778.544 632.082 775.745 633.248 773.529 633.598C773.529 633.598 774.579 634.065 776.328 634.065C772.363 636.63 768.281 638.613 764.666 639.429C764.433 639.546 778.894 641.528 786.008 638.963ZM835.688 645.26C835.572 645.144 835.572 645.027 835.572 645.027C835.572 645.027 835.572 645.144 835.688 645.26ZM791.256 645.027C791.256 645.027 791.256 645.144 791.139 645.26C791.139 645.144 791.256 645.027 791.256 645.027Z" fill="url(#paint6_linear)"/>
<path d="M1532.23 547.817C1527.79 550.499 1519.05 555.514 1514.27 555.398C1514.27 555.398 1515.67 555.631 1517.76 555.864H1593.8C1595.9 555.631 1597.3 555.398 1597.3 555.398C1592.52 555.514 1583.77 550.499 1579.34 547.817C1585.52 550.033 1598 548.284 1598 548.284C1594.85 547.584 1591.35 545.835 1587.97 543.619C1589.37 543.619 1590.3 543.152 1590.3 543.152C1588.44 542.919 1585.99 541.986 1584.12 540.937C1581.91 539.304 1579.69 537.555 1577.82 536.038C1580.97 537.088 1584.82 536.622 1584.82 536.622C1582.84 536.272 1581.32 535.339 1580.27 534.406C1583.77 534.289 1586.57 532.89 1586.57 532.89C1581.56 530.674 1578.52 527.059 1578.52 527.059C1582.26 530.207 1592.17 526.476 1592.17 526.476C1582.72 525.659 1572.69 516.679 1568.84 512.831C1572.46 515.63 1576.66 514.23 1576.66 514.23C1570.24 514.58 1566.63 505.6 1566.63 505.6C1572.11 513.764 1587.27 509.565 1587.27 509.565C1575.03 510.032 1566.05 491.722 1566.05 491.722C1572.11 498.836 1582.72 494.871 1582.72 494.871C1572.46 494.638 1570.13 485.891 1570.13 485.891C1573.51 487.524 1574.68 486.358 1574.68 486.358C1570.71 486.474 1567.8 482.043 1567.8 482.043C1573.98 487.291 1581.91 482.393 1581.91 482.393C1575.73 483.675 1568.49 471.43 1568.49 471.43C1571.41 473.646 1576.89 471.43 1576.89 471.43C1574.44 472.013 1569.66 469.448 1566.4 467.465C1572.93 470.497 1581.91 468.281 1581.91 468.281C1571.29 466.882 1565.35 459.068 1565.35 459.068C1569.19 460.701 1571.76 459.768 1571.76 459.768C1563.95 459.651 1561.26 452.887 1561.26 452.887C1562.31 454.287 1567.56 454.52 1567.56 454.52C1565.93 454.52 1563.01 451.838 1563.01 451.838C1567.21 453.704 1573.98 452.071 1573.98 452.071C1560.33 452.071 1558 439.243 1559.86 441.458C1561.73 443.674 1564.53 442.042 1564.53 442.042C1559.51 439.826 1557.18 433.062 1556.13 427.58V420C1556.13 420 1556.13 422.099 1555.67 424.898C1555.32 421.983 1555.2 420 1555.2 420V427.58C1554.15 433.062 1551.82 439.942 1546.8 442.042C1546.8 442.042 1549.6 443.674 1551.47 441.458C1553.33 439.243 1551 452.071 1537.36 452.071C1537.36 452.071 1544.12 453.704 1548.32 451.838C1548.32 451.838 1545.29 454.52 1543.77 454.52C1543.77 454.52 1549.02 454.403 1550.07 452.887C1550.07 452.887 1547.27 459.651 1539.57 459.768C1539.57 459.768 1542.25 460.584 1545.99 459.068C1545.99 459.068 1540.04 466.882 1529.43 468.281C1529.43 468.281 1538.29 470.497 1544.94 467.465C1541.79 469.448 1537.01 472.13 1534.44 471.43C1534.44 471.43 1539.92 473.646 1542.84 471.43C1542.84 471.43 1535.61 483.675 1529.43 482.393C1529.43 482.393 1537.36 487.291 1543.54 482.043C1543.54 482.043 1540.62 486.474 1536.66 486.358C1536.66 486.358 1537.82 487.407 1541.21 485.891C1541.21 485.891 1538.87 494.638 1528.61 494.871C1528.61 494.871 1539.22 498.836 1545.29 491.722C1545.29 491.722 1536.31 510.032 1524.06 509.565C1524.06 509.565 1539.22 513.647 1544.7 505.6C1544.7 505.6 1541.21 514.58 1534.67 514.23C1534.67 514.23 1538.99 515.63 1542.49 512.831C1538.52 516.679 1528.61 525.543 1519.16 526.476C1519.16 526.476 1529.19 530.207 1532.81 527.059C1532.81 527.059 1529.78 530.674 1524.76 532.89C1524.76 532.89 1527.56 534.289 1531.06 534.406C1530.01 535.339 1528.61 536.272 1526.51 536.622C1526.51 536.622 1530.36 537.088 1533.51 536.038C1531.64 537.671 1529.43 539.304 1527.21 540.937C1525.34 541.87 1522.9 542.919 1521.03 543.152C1521.03 543.152 1521.96 543.502 1523.36 543.619C1519.86 545.835 1516.36 547.584 1513.33 548.284C1513.57 548.284 1525.93 550.15 1532.23 547.817ZM1575.03 553.182C1574.91 553.065 1574.91 552.949 1574.91 552.949C1574.91 553.065 1574.91 553.182 1575.03 553.182ZM1536.77 553.065C1536.77 553.065 1536.77 553.182 1536.66 553.298C1536.66 553.182 1536.66 553.065 1536.77 553.065Z" fill="url(#paint7_linear)"/>
<path d="M1128.01 631.506C1123.58 634.188 1114.84 639.203 1110.05 639.087C1110.05 639.087 1111.45 639.32 1113.55 639.553H1189.59C1191.69 639.32 1193.09 639.087 1193.09 639.087C1188.31 639.203 1179.56 634.188 1175.13 631.506C1181.31 633.722 1193.79 631.973 1193.79 631.973C1190.64 631.273 1187.14 629.524 1183.76 627.308C1185.16 627.308 1186.09 626.841 1186.09 626.841C1184.23 626.608 1181.78 625.675 1179.91 624.626C1177.69 622.993 1175.48 621.243 1173.61 619.727C1176.76 620.777 1180.61 620.311 1180.61 620.311C1178.63 619.961 1177.11 619.028 1176.06 618.095C1179.56 617.978 1182.36 616.579 1182.36 616.579C1177.34 614.363 1174.31 610.748 1174.31 610.748C1178.04 613.896 1187.96 610.165 1187.96 610.165C1178.51 609.348 1168.48 600.368 1164.63 596.52C1168.25 599.319 1172.45 597.919 1172.45 597.919C1166.03 598.269 1162.42 589.289 1162.42 589.289C1167.9 597.453 1183.06 593.254 1183.06 593.254C1170.81 593.721 1161.83 575.411 1161.83 575.411C1167.9 582.525 1178.51 578.56 1178.51 578.56C1168.25 578.327 1165.92 569.58 1165.92 569.58C1169.3 571.213 1170.46 570.047 1170.46 570.047C1166.5 570.163 1163.58 565.732 1163.58 565.732C1169.76 570.98 1177.69 566.081 1177.69 566.081C1171.51 567.364 1164.28 555.119 1164.28 555.119C1167.2 557.335 1172.68 555.119 1172.68 555.119C1170.23 555.702 1165.45 553.137 1162.18 551.154C1168.71 554.186 1177.69 551.97 1177.69 551.97C1167.08 550.571 1161.13 542.757 1161.13 542.757C1164.98 544.39 1167.55 543.457 1167.55 543.457C1159.74 543.34 1157.05 536.576 1157.05 536.576C1158.1 537.976 1163.35 538.209 1163.35 538.209C1161.72 538.209 1158.8 535.527 1158.8 535.527C1163 537.393 1169.76 535.76 1169.76 535.76C1156.12 535.76 1153.79 522.932 1155.65 525.147C1157.52 527.363 1160.32 525.73 1160.32 525.73C1155.3 523.515 1152.97 516.751 1151.92 511.269V503.689C1151.92 503.689 1151.92 505.788 1151.46 508.587C1151.11 505.672 1150.99 503.689 1150.99 503.689V511.269C1149.94 516.751 1147.61 523.631 1142.59 525.73C1142.59 525.73 1145.39 527.363 1147.26 525.147C1149.12 522.932 1146.79 535.76 1133.15 535.76C1133.15 535.76 1139.91 537.393 1144.11 535.527C1144.11 535.527 1141.08 538.209 1139.56 538.209C1139.56 538.209 1144.81 538.092 1145.86 536.576C1145.86 536.576 1143.06 543.34 1135.36 543.457C1135.36 543.457 1138.04 544.273 1141.78 542.757C1141.78 542.757 1135.83 550.571 1125.22 551.97C1125.22 551.97 1134.08 554.186 1140.73 551.154C1137.58 553.137 1132.8 555.819 1130.23 555.119C1130.23 555.119 1135.71 557.335 1138.63 555.119C1138.63 555.119 1131.4 567.364 1125.22 566.081C1125.22 566.081 1133.15 570.98 1139.33 565.732C1139.33 565.732 1136.41 570.163 1132.45 570.047C1132.45 570.047 1133.61 571.096 1136.99 569.58C1136.99 569.58 1134.66 578.327 1124.4 578.56C1124.4 578.56 1135.01 582.525 1141.08 575.411C1141.08 575.411 1132.1 593.721 1119.85 593.254C1119.85 593.254 1135.01 597.336 1140.49 589.289C1140.49 589.289 1136.99 598.269 1130.46 597.919C1130.46 597.919 1134.78 599.319 1138.28 596.52C1134.31 600.368 1124.4 609.232 1114.95 610.165C1114.95 610.165 1124.98 613.896 1128.6 610.748C1128.6 610.748 1125.57 614.363 1120.55 616.579C1120.55 616.579 1123.35 617.978 1126.85 618.095C1125.8 619.028 1124.4 619.961 1122.3 620.311C1122.3 620.311 1126.15 620.777 1129.3 619.727C1127.43 621.36 1125.22 622.993 1123 624.626C1121.13 625.559 1118.68 626.608 1116.82 626.841C1116.82 626.841 1117.75 627.191 1119.15 627.308C1115.65 629.524 1112.15 631.273 1109.12 631.973C1109.35 631.973 1121.72 633.839 1128.01 631.506ZM1170.81 636.871C1170.7 636.754 1170.7 636.638 1170.7 636.638C1170.7 636.754 1170.7 636.871 1170.81 636.871ZM1132.56 636.754C1132.56 636.754 1132.56 636.871 1132.45 636.987C1132.45 636.871 1132.45 636.754 1132.56 636.754Z" fill="url(#paint8_linear)"/>
<path d="M1251.55 638.48C1247.12 641.162 1238.38 646.177 1233.59 646.06C1233.59 646.06 1234.99 646.293 1237.09 646.527H1313.13C1315.23 646.293 1316.63 646.06 1316.63 646.06C1311.85 646.177 1303.1 641.162 1298.67 638.48C1304.85 640.696 1317.33 638.946 1317.33 638.946C1314.18 638.247 1310.68 636.497 1307.3 634.281C1308.7 634.281 1309.63 633.815 1309.63 633.815C1307.77 633.582 1305.32 632.649 1303.45 631.599C1301.24 629.967 1299.02 628.217 1297.15 626.701C1300.3 627.751 1304.15 627.284 1304.15 627.284C1302.17 626.934 1300.65 626.001 1299.6 625.068C1303.1 624.952 1305.9 623.552 1305.9 623.552C1300.89 621.337 1297.85 617.721 1297.85 617.721C1301.59 620.87 1311.5 617.138 1311.5 617.138C1302.05 616.322 1292.02 607.342 1288.17 603.493C1291.79 606.292 1295.99 604.893 1295.99 604.893C1289.57 605.243 1285.96 596.263 1285.96 596.263C1291.44 604.426 1306.6 600.228 1306.6 600.228C1294.35 600.694 1285.37 582.385 1285.37 582.385C1291.44 589.499 1302.05 585.534 1302.05 585.534C1291.79 585.3 1289.46 576.554 1289.46 576.554C1292.84 578.186 1294 577.02 1294 577.02C1290.04 577.137 1287.12 572.705 1287.12 572.705C1293.31 577.953 1301.24 573.055 1301.24 573.055C1295.05 574.338 1287.82 562.093 1287.82 562.093C1290.74 564.308 1296.22 562.093 1296.22 562.093C1293.77 562.676 1288.99 560.11 1285.72 558.128C1292.26 561.16 1301.24 558.944 1301.24 558.944C1290.62 557.544 1284.68 549.731 1284.68 549.731C1288.52 551.364 1291.09 550.431 1291.09 550.431C1283.28 550.314 1280.59 543.55 1280.59 543.55C1281.64 544.949 1286.89 545.183 1286.89 545.183C1285.26 545.183 1282.34 542.5 1282.34 542.5C1286.54 544.366 1293.31 542.734 1293.31 542.734C1279.66 542.734 1277.33 529.905 1279.19 532.121C1281.06 534.337 1283.86 532.704 1283.86 532.704C1278.84 530.488 1276.51 523.724 1275.46 518.243V510.663C1275.46 510.663 1275.46 512.762 1275 515.561C1274.65 512.645 1274.53 510.663 1274.53 510.663V518.243C1273.48 523.724 1271.15 530.605 1266.13 532.704C1266.13 532.704 1268.93 534.337 1270.8 532.121C1272.66 529.905 1270.33 542.734 1256.69 542.734C1256.69 542.734 1263.45 544.366 1267.65 542.5C1267.65 542.5 1264.62 545.183 1263.1 545.183C1263.1 545.183 1268.35 545.066 1269.4 543.55C1269.4 543.55 1266.6 550.314 1258.9 550.431C1258.9 550.431 1261.58 551.247 1265.32 549.731C1265.32 549.731 1259.37 557.544 1248.76 558.944C1248.76 558.944 1257.62 561.16 1264.27 558.128C1261.12 560.11 1256.34 562.792 1253.77 562.093C1253.77 562.093 1259.25 564.308 1262.17 562.093C1262.17 562.093 1254.94 574.338 1248.76 573.055C1248.76 573.055 1256.69 577.953 1262.87 572.705C1262.87 572.705 1259.95 577.137 1255.99 577.02C1255.99 577.02 1257.15 578.07 1260.53 576.554C1260.53 576.554 1258.2 585.3 1247.94 585.534C1247.94 585.534 1258.55 589.499 1264.62 582.385C1264.62 582.385 1255.64 600.694 1243.39 600.228C1243.39 600.228 1258.55 604.31 1264.03 596.263C1264.03 596.263 1260.53 605.243 1254 604.893C1254 604.893 1258.32 606.292 1261.82 603.493C1257.85 607.342 1247.94 616.205 1238.49 617.138C1238.49 617.138 1248.52 620.87 1252.14 617.721C1252.14 617.721 1249.11 621.337 1244.09 623.552C1244.09 623.552 1246.89 624.952 1250.39 625.068C1249.34 626.001 1247.94 626.934 1245.84 627.284C1245.84 627.284 1249.69 627.751 1252.84 626.701C1250.97 628.334 1248.76 629.967 1246.54 631.599C1244.67 632.532 1242.22 633.582 1240.36 633.815C1240.36 633.815 1241.29 634.165 1242.69 634.281C1239.19 636.497 1235.69 638.247 1232.66 638.946C1232.9 638.946 1245.26 640.812 1251.55 638.48ZM1294.35 643.844C1294.24 643.728 1294.24 643.611 1294.24 643.611C1294.24 643.728 1294.24 643.844 1294.35 643.844ZM1256.1 643.728C1256.1 643.728 1256.1 643.844 1255.99 643.961C1255.99 643.844 1255.99 643.728 1256.1 643.728Z" fill="url(#paint9_linear)"/>
<path d="M1173.08 627.644C1168.13 630.642 1158.35 636.248 1153 636.118C1153 636.118 1154.57 636.379 1156.92 636.639H1241.92C1244.26 636.379 1245.83 636.118 1245.83 636.118C1240.48 636.248 1230.7 630.642 1225.75 627.644C1232.66 630.121 1246.61 628.165 1246.61 628.165C1243.09 627.383 1239.18 625.428 1235.4 622.95C1236.96 622.95 1238.01 622.429 1238.01 622.429C1235.92 622.168 1233.18 621.125 1231.1 619.952C1228.62 618.127 1226.14 616.171 1224.06 614.476C1227.58 615.65 1231.88 615.128 1231.88 615.128C1229.66 614.737 1227.97 613.694 1226.79 612.651C1230.7 612.521 1233.83 610.957 1233.83 610.957C1228.23 608.48 1224.84 604.438 1224.84 604.438C1229.01 607.958 1240.09 603.786 1240.09 603.786C1229.53 602.874 1218.32 592.835 1214.02 588.533C1218.06 591.662 1222.75 590.098 1222.75 590.098C1215.58 590.489 1211.54 580.45 1211.54 580.45C1217.67 589.576 1234.62 584.883 1234.62 584.883C1220.93 585.404 1210.89 564.936 1210.89 564.936C1217.67 572.889 1229.53 568.456 1229.53 568.456C1218.06 568.196 1215.45 558.418 1215.45 558.418C1219.23 560.243 1220.54 558.939 1220.54 558.939C1216.1 559.07 1212.84 554.116 1212.84 554.116C1219.75 559.982 1228.62 554.507 1228.62 554.507C1221.71 555.941 1213.63 542.252 1213.63 542.252C1216.89 544.729 1223.01 542.252 1223.01 542.252C1220.28 542.904 1214.93 540.036 1211.28 537.82C1218.58 541.209 1228.62 538.732 1228.62 538.732C1216.76 537.168 1210.11 528.433 1210.11 528.433C1214.41 530.258 1217.28 529.215 1217.28 529.215C1208.54 529.085 1205.54 521.523 1205.54 521.523C1206.72 523.088 1212.58 523.348 1212.58 523.348C1210.76 523.348 1207.5 520.35 1207.5 520.35C1212.19 522.436 1219.75 520.611 1219.75 520.611C1204.5 520.611 1201.89 506.27 1203.98 508.747C1206.07 511.224 1209.19 509.399 1209.19 509.399C1203.59 506.922 1200.98 499.361 1199.81 493.233V484.759C1199.81 484.759 1199.81 487.106 1199.29 490.235C1198.89 486.976 1198.76 484.759 1198.76 484.759V493.233C1197.59 499.361 1194.98 507.052 1189.38 509.399C1189.38 509.399 1192.51 511.224 1194.59 508.747C1196.68 506.27 1194.07 520.611 1178.82 520.611C1178.82 520.611 1186.38 522.436 1191.07 520.35C1191.07 520.35 1187.68 523.348 1185.99 523.348C1185.99 523.348 1191.85 523.218 1193.03 521.523C1193.03 521.523 1189.9 529.085 1181.29 529.215C1181.29 529.215 1184.29 530.128 1188.47 528.433C1188.47 528.433 1181.82 537.168 1169.95 538.732C1169.95 538.732 1179.86 541.209 1187.29 537.82C1183.77 540.036 1178.43 543.034 1175.56 542.252C1175.56 542.252 1181.69 544.729 1184.95 542.252C1184.95 542.252 1176.86 555.941 1169.95 554.507C1169.95 554.507 1178.82 559.982 1185.73 554.116C1185.73 554.116 1182.47 559.07 1178.04 558.939C1178.04 558.939 1179.34 560.113 1183.12 558.418C1183.12 558.418 1180.51 568.196 1169.04 568.456C1169.04 568.456 1180.9 572.889 1187.68 564.936C1187.68 564.936 1177.64 585.404 1163.96 584.883C1163.96 584.883 1180.9 589.446 1187.03 580.45C1187.03 580.45 1183.12 590.489 1175.82 590.098C1175.82 590.098 1180.64 591.662 1184.55 588.533C1180.12 592.835 1169.04 602.743 1158.48 603.786C1158.48 603.786 1169.69 607.958 1173.73 604.438C1173.73 604.438 1170.34 608.48 1164.74 610.957C1164.74 610.957 1167.87 612.521 1171.78 612.651C1170.6 613.694 1169.04 614.737 1166.69 615.128C1166.69 615.128 1171 615.65 1174.52 614.476C1172.43 616.302 1169.95 618.127 1167.48 619.952C1165.39 620.995 1162.65 622.168 1160.57 622.429C1160.57 622.429 1161.61 622.82 1163.17 622.95C1159.26 625.428 1155.35 627.383 1151.96 628.165C1152.22 628.165 1166.04 630.251 1173.08 627.644ZM1220.93 633.641C1220.8 633.51 1220.8 633.38 1220.8 633.38C1220.8 633.51 1220.8 633.641 1220.93 633.641ZM1178.17 633.51C1178.17 633.51 1178.17 633.641 1178.04 633.771C1178.04 633.641 1178.04 633.51 1178.17 633.51Z" fill="url(#paint10_linear)"/>
<path d="M942.388 654.578C939.248 656.479 933.05 660.033 929.661 659.95C929.661 659.95 930.653 660.116 932.141 660.281H986.025C987.512 660.116 988.504 659.95 988.504 659.95C985.116 660.033 978.917 656.479 975.777 654.578C980.157 656.149 989 654.909 989 654.909C986.769 654.413 984.289 653.174 981.893 651.603C982.884 651.603 983.545 651.273 983.545 651.273C982.223 651.107 980.488 650.446 979.165 649.703C977.595 648.545 976.025 647.306 974.702 646.231C976.934 646.975 979.661 646.645 979.661 646.645C978.256 646.397 977.182 645.735 976.438 645.074C978.917 644.992 980.901 644 980.901 644C977.347 642.43 975.198 639.868 975.198 639.868C977.843 642.099 984.868 639.455 984.868 639.455C978.174 638.876 971.066 632.512 968.339 629.785C970.901 631.769 973.876 630.777 973.876 630.777C969.331 631.025 966.769 624.661 966.769 624.661C970.653 630.446 981.397 627.471 981.397 627.471C972.719 627.802 966.355 614.826 966.355 614.826C970.653 619.868 978.174 617.058 978.174 617.058C970.901 616.893 969.248 610.694 969.248 610.694C971.645 611.851 972.471 611.025 972.471 611.025C969.661 611.107 967.595 607.967 967.595 607.967C971.975 611.686 977.595 608.215 977.595 608.215C973.215 609.124 968.091 600.446 968.091 600.446C970.157 602.016 974.041 600.446 974.041 600.446C972.306 600.859 968.917 599.041 966.603 597.636C971.231 599.785 977.595 598.215 977.595 598.215C970.074 597.223 965.86 591.686 965.86 591.686C968.587 592.843 970.405 592.182 970.405 592.182C964.868 592.099 962.967 587.306 962.967 587.306C963.711 588.298 967.43 588.463 967.43 588.463C966.273 588.463 964.207 586.562 964.207 586.562C967.182 587.884 971.975 586.727 971.975 586.727C962.306 586.727 960.653 577.636 961.975 579.207C963.298 580.777 965.281 579.62 965.281 579.62C961.727 578.05 960.074 573.256 959.331 569.372V564C959.331 564 959.331 565.488 959 567.471C958.752 565.405 958.669 564 958.669 564V569.372C957.926 573.256 956.273 578.132 952.719 579.62C952.719 579.62 954.702 580.777 956.025 579.207C957.347 577.636 955.694 586.727 946.025 586.727C946.025 586.727 950.818 587.884 953.793 586.562C953.793 586.562 951.645 588.463 950.57 588.463C950.57 588.463 954.289 588.38 955.033 587.306C955.033 587.306 953.05 592.099 947.595 592.182C947.595 592.182 949.496 592.76 952.14 591.686C952.14 591.686 947.926 597.223 940.405 598.215C940.405 598.215 946.686 599.785 951.397 597.636C949.165 599.041 945.777 600.942 943.959 600.446C943.959 600.446 947.843 602.016 949.909 600.446C949.909 600.446 944.785 609.124 940.405 608.215C940.405 608.215 946.025 611.686 950.405 607.967C950.405 607.967 948.339 611.107 945.529 611.025C945.529 611.025 946.355 611.769 948.752 610.694C948.752 610.694 947.099 616.893 939.826 617.058C939.826 617.058 947.347 619.868 951.645 614.826C951.645 614.826 945.281 627.802 936.603 627.471C936.603 627.471 947.347 630.364 951.231 624.661C951.231 624.661 948.752 631.025 944.124 630.777C944.124 630.777 947.182 631.769 949.661 629.785C946.851 632.512 939.826 638.793 933.132 639.455C933.132 639.455 940.24 642.099 942.802 639.868C942.802 639.868 940.653 642.43 937.099 644C937.099 644 939.083 644.992 941.562 645.074C940.818 645.735 939.826 646.397 938.339 646.645C938.339 646.645 941.066 646.975 943.298 646.231C941.975 647.388 940.405 648.545 938.835 649.703C937.512 650.364 935.777 651.107 934.455 651.273C934.455 651.273 935.116 651.521 936.107 651.603C933.628 653.174 931.149 654.413 929 654.909C929.165 654.909 937.926 656.231 942.388 654.578ZM972.719 658.38C972.636 658.298 972.636 658.215 972.636 658.215C972.636 658.297 972.636 658.38 972.719 658.38ZM945.612 658.297C945.612 658.297 945.612 658.38 945.529 658.463C945.529 658.38 945.529 658.297 945.612 658.297Z" fill="url(#paint11_linear)"/>
<path d="M1041.28 699.638C1036.6 702.5 1027.35 707.842 1022.29 707.746C1022.29 707.746 1023.82 707.937 1026.01 708.223H1106.62C1108.9 708.032 1110.34 707.746 1110.34 707.746C1105.28 707.842 1096.03 702.595 1091.35 699.638C1097.94 702.023 1111.1 700.115 1111.1 700.115C1107.76 699.352 1104.04 697.54 1100.42 695.155C1101.94 695.06 1102.9 694.678 1102.9 694.678C1100.89 694.392 1098.32 693.343 1096.31 692.389C1093.93 690.672 1091.64 688.86 1089.64 687.143C1092.98 688.192 1097.08 687.715 1097.08 687.715C1094.98 687.334 1093.36 686.38 1092.31 685.426C1096.03 685.331 1098.98 683.804 1098.98 683.804C1093.74 681.42 1090.5 677.604 1090.5 677.604C1094.41 680.943 1104.99 676.937 1104.99 676.937C1094.98 676.078 1084.39 666.635 1080.29 662.533C1084.1 665.49 1088.59 663.964 1088.59 663.964C1081.72 664.346 1078 654.807 1078 654.807C1083.82 663.392 1099.84 659.004 1099.84 659.004C1086.87 659.481 1077.43 640.118 1077.43 640.118C1083.82 647.653 1095.17 643.456 1095.17 643.456C1084.3 643.17 1081.82 633.918 1081.82 633.918C1085.44 635.635 1086.68 634.395 1086.68 634.395C1082.48 634.49 1079.43 629.816 1079.43 629.816C1086.01 635.349 1094.31 630.198 1094.31 630.198C1087.73 631.628 1080.1 618.656 1080.1 618.656C1083.25 620.945 1088.97 618.656 1088.97 618.656C1086.3 619.324 1081.24 616.557 1077.9 614.364C1084.87 617.607 1094.31 615.317 1094.31 615.317C1083.06 613.791 1076.76 605.588 1076.76 605.588C1080.77 607.305 1083.63 606.351 1083.63 606.351C1075.42 606.256 1072.47 599.007 1072.47 599.007C1073.61 600.533 1079.14 600.724 1079.14 600.724C1077.43 600.724 1074.28 597.862 1074.28 597.862C1078.67 599.865 1085.92 598.148 1085.92 598.148C1071.51 598.148 1068.94 584.603 1070.94 586.893C1072.94 589.182 1075.9 587.465 1075.9 587.465C1070.56 585.176 1068.08 577.926 1067.03 572.108V564C1067.03 564 1066.93 566.194 1066.55 569.246C1066.17 566.194 1066.08 564 1066.08 564V572.108C1064.93 577.926 1062.55 585.176 1057.21 587.465C1057.21 587.465 1060.16 589.182 1062.17 586.893C1064.17 584.603 1061.59 598.148 1047.19 598.148C1047.19 598.148 1054.44 599.865 1058.83 597.862C1058.83 597.862 1055.58 600.724 1053.96 600.724C1053.96 600.724 1059.49 600.628 1060.64 599.007C1060.64 599.007 1057.68 606.161 1049.48 606.351C1049.48 606.351 1052.25 607.21 1056.35 605.588C1056.35 605.588 1050.05 613.791 1038.8 615.317C1038.8 615.317 1048.24 617.607 1055.2 614.364C1051.77 616.462 1046.71 619.228 1044.14 618.656C1044.14 618.656 1049.86 620.945 1053.01 618.656C1053.01 618.656 1045.38 631.628 1038.8 630.198C1038.8 630.198 1047.19 635.349 1053.68 629.816C1053.68 629.816 1050.62 634.585 1046.43 634.395C1046.43 634.395 1047.67 635.539 1051.29 633.918C1051.29 633.918 1048.81 643.17 1037.94 643.456C1037.94 643.456 1049.19 647.653 1055.68 640.118C1055.68 640.118 1046.24 659.481 1033.26 659.004C1033.26 659.004 1049.29 663.392 1055.11 654.807C1055.11 654.807 1051.39 664.346 1044.52 663.964C1044.52 663.964 1049 665.49 1052.82 662.533C1048.72 666.635 1038.13 676.078 1028.11 676.937C1028.11 676.937 1038.7 680.943 1042.61 677.604C1042.61 677.604 1039.37 681.42 1034.12 683.804C1034.12 683.804 1037.08 685.235 1040.8 685.426C1039.75 686.38 1038.13 687.334 1036.03 687.715C1036.03 687.715 1040.13 688.192 1043.47 687.143C1041.47 688.86 1039.18 690.672 1036.79 692.389C1034.79 693.438 1032.21 694.392 1030.21 694.678C1030.21 694.678 1031.17 695.06 1032.69 695.155C1029.07 697.445 1025.35 699.352 1022.01 700.115C1021.63 700.115 1034.69 702.023 1041.28 699.638ZM1086.68 705.362C1086.58 705.171 1086.49 705.171 1086.49 705.171C1086.58 705.171 1086.58 705.266 1086.68 705.362ZM1046.14 705.076C1046.14 705.076 1046.14 705.171 1046.05 705.266C1046.05 705.266 1046.05 705.171 1046.14 705.076Z" fill="url(#paint12_linear)"/>
<path d="M742.355 703.507C731.863 704.365 714.407 679.565 714.407 679.565C722.897 690.916 731.863 687.482 731.863 687.482C727.952 687.387 722.706 683.667 719.177 680.805C728.048 686.814 738.922 683.667 738.922 683.667C729.001 683.19 720.321 670.885 720.321 670.885C728.715 677.753 742.26 676.894 742.26 676.894C734.152 675.464 719.654 668.023 710.02 662.777C721.943 665.925 739.589 664.78 739.589 664.78C709.352 659.439 698.287 643.7 698.287 643.7C703.629 649.232 721.561 651.999 724.328 652.38C720.035 651.712 712.023 647.992 706.204 645.036C713.74 647.516 723.183 647.802 723.183 647.802C714.407 646.085 705.441 636.355 700.672 630.251C710.115 640.648 721.848 638.072 721.848 638.072C712.404 637.023 703.057 623.192 698.001 614.417C702.484 620.712 706.777 620.617 706.777 620.617C702.866 619.854 698.764 608.312 698.764 608.312C707.444 622.715 720.321 621.666 720.321 621.666C709.447 620.808 698.955 604.783 698.955 604.783C705.727 614.131 717.555 609.934 717.555 609.934C704.201 609.075 695.903 588.09 695.903 588.09C700.004 593.432 708.684 593.527 711.26 593.432C707.54 593.527 703.724 591.62 701.053 589.712C707.253 592.669 715.743 591.047 715.743 591.047C708.875 590.761 698.383 573.973 698.383 573.973C704.583 579.124 712.214 575.786 712.214 575.786C704.487 575.69 697.62 565.102 697.62 565.102C702.77 571.97 712.214 569.872 712.214 569.872C701.816 570.062 692.183 553.465 692.183 553.465C696.189 560.238 702.198 557.471 702.198 557.471C695.139 557.376 691.801 549.65 691.801 549.65C697.047 556.518 707.253 552.702 707.253 552.702C691.229 549.459 687.604 537.536 687.604 537.536C693.041 545.262 702.293 542.019 702.293 542.019C692.755 543.259 687.604 535.533 687.604 535.533C693.995 544.308 707.635 539.253 707.635 539.253C694.663 540.016 687.032 526.09 687.032 526.09C689.416 529.333 693.804 527.997 693.804 527.997C690.179 528.665 684.361 520.08 684.361 520.08C689.607 526.566 699.432 521.988 699.432 521.988C690.656 524.945 673.678 499 673.678 499C673.678 499 656.699 524.945 647.924 521.988C647.924 521.988 657.653 526.471 662.995 520.08C662.995 520.08 657.176 528.665 653.551 527.997C653.551 527.997 657.939 529.237 660.324 526.09C660.324 526.09 652.693 540.016 639.72 539.253C639.72 539.253 653.361 544.308 659.751 535.533C659.751 535.533 654.696 543.259 645.062 542.019C645.062 542.019 654.219 545.262 659.751 537.536C659.751 537.536 656.127 549.459 640.102 552.702C640.102 552.702 650.213 556.518 655.554 549.65C655.554 549.65 652.216 557.376 645.157 557.471C645.157 557.471 651.167 560.238 655.173 553.465C655.173 553.465 645.539 570.062 635.142 569.872C635.142 569.872 644.49 571.97 649.736 565.102C649.736 565.102 642.868 575.69 635.142 575.786C635.142 575.786 642.868 579.124 648.973 573.973C648.973 573.973 638.48 590.761 631.613 591.047C631.613 591.047 640.102 592.669 646.302 589.712C643.536 591.62 639.816 593.527 636.096 593.432C638.671 593.527 647.351 593.432 651.453 588.09C651.453 588.09 643.059 609.075 629.8 609.934C629.8 609.934 641.628 614.226 648.401 604.783C648.401 604.783 637.813 620.712 627.034 621.666C627.034 621.666 639.911 622.715 648.591 608.312C648.591 608.312 644.49 619.854 640.579 620.617C640.579 620.617 644.871 620.712 649.354 614.417C644.394 623.097 634.951 637.023 625.508 638.072C625.508 638.072 637.24 640.648 646.684 630.251C641.914 636.26 632.948 646.085 624.173 647.802C624.173 647.802 633.52 647.516 641.151 645.036C635.333 647.992 627.32 651.712 623.028 652.38C625.794 651.999 643.631 649.232 649.068 643.7C649.068 643.7 638.003 659.439 607.766 664.78C607.766 664.78 625.413 665.925 637.336 662.777C627.702 668.023 613.203 675.464 605.095 676.894C605.095 676.894 618.736 677.753 627.034 670.885C627.034 670.885 618.354 683.19 608.434 683.667C608.434 683.667 619.308 686.814 628.179 680.805C624.649 683.667 619.403 687.387 615.492 687.482C615.492 687.482 624.459 690.916 632.948 679.565C632.948 679.565 615.492 704.461 605 703.507C605 703.507 619.499 705.033 630.659 698.356C627.606 701.599 624.173 704.938 621.025 707.513H672.628H675.395H726.998C723.851 704.938 720.417 701.599 717.364 698.356C727.857 705.033 742.355 703.507 742.355 703.507Z" fill="url(#paint13_linear)"/>
<path d="M804.714 698.716C798.323 702.722 785.637 709.972 778.674 709.781C778.674 709.781 780.677 710.067 783.824 710.353H894.281C897.334 710.067 899.432 709.781 899.432 709.781C892.469 709.876 879.783 702.627 873.392 698.716C882.358 701.959 900.481 699.384 900.481 699.384C895.998 698.334 890.847 695.854 885.792 692.611C887.89 692.516 889.226 692.039 889.226 692.039C886.459 691.657 883.026 690.227 880.259 688.891C877.016 686.507 873.869 684.027 871.102 681.737C875.681 683.264 881.309 682.5 881.309 682.5C878.352 682.023 876.253 680.688 874.727 679.353C879.783 679.162 883.884 677.159 883.884 677.159C876.635 673.916 872.247 668.669 872.247 668.669C877.589 673.248 892.087 667.811 892.087 667.811C878.352 666.571 863.853 653.599 858.13 648.066C863.281 652.072 869.481 649.974 869.481 649.974C860.133 650.546 854.982 637.478 854.982 637.478C862.995 649.306 885.029 643.297 885.029 643.297C867.287 643.965 854.219 617.352 854.219 617.352C862.995 627.749 878.543 621.93 878.543 621.93C863.662 621.549 860.228 608.863 860.228 608.863C865.189 611.152 866.905 609.53 866.905 609.53C861.182 609.721 856.985 603.235 856.985 603.235C865.952 610.77 877.398 603.807 877.398 603.807C868.432 605.715 857.939 587.973 857.939 587.973C862.232 591.121 870.149 587.973 870.149 587.973C866.524 588.832 859.561 585.112 854.982 582.155C864.521 586.542 877.493 583.395 877.493 583.395C862.041 581.296 853.361 570.041 853.361 570.041C858.893 572.33 862.708 571.09 862.708 571.09C851.453 570.899 847.447 561.074 847.447 561.074C848.973 563.173 856.604 563.364 856.604 563.364C854.315 563.364 849.927 559.453 849.927 559.453C855.936 562.219 865.856 559.834 865.856 559.834C846.111 559.834 842.677 541.234 845.348 544.382C848.019 547.53 852.121 545.145 852.121 545.145C844.776 541.997 841.437 532.077 839.911 524.065V513C839.911 513 839.816 515.957 839.244 520.154C838.671 515.957 838.576 513 838.576 513V524.065C837.05 532.077 833.711 541.997 826.367 545.145C826.367 545.145 830.373 547.53 833.139 544.382C835.81 541.234 832.376 559.834 812.631 559.834C812.631 559.834 822.551 562.219 828.56 559.453C828.56 559.453 824.173 563.364 821.883 563.364C821.883 563.364 829.514 563.173 831.04 561.074C831.04 561.074 827.034 570.899 815.779 571.09C815.779 571.09 819.594 572.33 825.126 570.041C825.126 570.041 816.542 581.296 800.994 583.395C800.994 583.395 813.966 586.542 823.505 582.155C818.831 585.112 811.868 588.832 808.339 587.973C808.339 587.973 816.256 591.121 820.548 587.973C820.548 587.973 810.056 605.81 801.089 603.807C801.089 603.807 812.536 610.866 821.502 603.235C821.502 603.235 817.305 609.721 811.582 609.53C811.582 609.53 813.299 611.152 818.259 608.863C818.259 608.863 814.825 621.549 799.945 621.93C799.945 621.93 815.397 627.749 824.268 617.352C824.268 617.352 811.296 643.965 793.458 643.297C793.458 643.297 815.397 649.306 823.505 637.478C823.505 637.478 818.354 650.546 809.006 649.974C809.006 649.974 815.206 652.072 820.357 648.066C814.729 653.599 800.135 666.571 786.4 667.811C786.4 667.811 800.899 673.248 806.24 668.669C806.24 668.669 801.852 673.82 794.603 677.159C794.603 677.159 798.609 679.162 803.76 679.353C802.234 680.688 800.135 682.023 797.178 682.5C797.178 682.5 802.806 683.168 807.385 681.737C804.619 684.027 801.471 686.507 798.228 688.891C795.462 690.227 792.028 691.657 789.261 692.039C789.261 692.039 790.597 692.611 792.695 692.611C787.64 695.759 782.584 698.334 778.006 699.384C777.624 699.384 795.652 701.959 804.714 698.716ZM866.905 706.538C866.715 706.347 866.715 706.251 866.715 706.251C866.715 706.347 866.81 706.442 866.905 706.538ZM811.296 706.251C811.296 706.251 811.2 706.347 811.105 706.538C811.105 706.442 811.2 706.347 811.296 706.251Z" fill="url(#paint14_linear)"/>
<path d="M1600 612.868C1585.12 612.44 1570.43 612.318 1555.74 612.562C1554.79 612.501 1554.02 612.379 1553.07 612.318C1544.87 611.645 1535.71 612.073 1528.27 613.296C1459.78 616.048 1393.39 624.917 1332.35 635.008C1292.29 641.613 1253.18 648.891 1213.12 655.496C1171.72 662.346 1135.85 667.606 1091.02 671.581C1068.89 673.539 1046.38 675.068 1023.68 676.107C1007.46 676.841 979.42 677.514 958.626 677.697C935.543 677.881 912.65 677.697 889.567 677.208C878.693 676.963 867.819 676.658 856.945 676.291C844.545 675.863 835.007 675.496 825.468 675.067C731.418 670.725 640.038 662.469 548.659 654.396C453.273 645.956 357.124 637.944 258.495 634.396C210.421 632.684 161.965 632.133 113.891 633.418C75.927 634.396 35.4835 635.864 0 640.757V891.45C0 902.826 28.8065 912 64.0992 912H1535.9C1571.38 912 1600 902.765 1600 891.45V612.868V612.868Z" fill="url(#paint15_linear)"/>
<path d="M1453.78 655.24C1443.28 656.098 1425.83 631.298 1425.83 631.298C1434.32 642.649 1443.28 639.215 1443.28 639.215C1439.37 639.12 1434.13 635.4 1430.6 632.538C1439.47 638.547 1450.34 635.4 1450.34 635.4C1440.42 634.923 1431.74 622.618 1431.74 622.618C1440.14 629.486 1453.68 628.627 1453.68 628.627C1445.57 627.196 1431.07 619.756 1421.44 614.51C1433.36 617.658 1451.01 616.513 1451.01 616.513C1420.77 611.172 1409.71 595.433 1409.71 595.433C1415.05 600.965 1432.98 603.732 1435.75 604.113C1431.46 603.445 1423.44 599.725 1417.63 596.768C1425.16 599.248 1434.6 599.535 1434.6 599.535C1425.83 597.818 1416.86 588.088 1412.09 581.984C1421.54 592.381 1433.27 589.805 1433.27 589.805C1423.83 588.756 1414.48 574.925 1409.42 566.15C1413.91 572.445 1418.2 572.35 1418.2 572.35C1414.29 571.587 1410.19 560.045 1410.19 560.045C1418.87 574.448 1431.74 573.399 1431.74 573.399C1420.87 572.54 1410.38 556.516 1410.38 556.516C1417.15 565.863 1428.98 561.667 1428.98 561.667C1415.62 560.808 1407.32 539.823 1407.32 539.823C1411.43 545.165 1420.11 545.26 1422.68 545.165C1418.96 545.26 1415.15 543.352 1412.47 541.445C1418.67 544.402 1427.16 542.78 1427.16 542.78C1420.3 542.494 1409.8 525.706 1409.8 525.706C1416 530.857 1423.63 527.518 1423.63 527.518C1415.91 527.423 1409.04 516.835 1409.04 516.835C1414.19 523.703 1423.63 521.605 1423.63 521.605C1413.24 521.795 1403.6 505.198 1403.6 505.198C1407.61 511.971 1413.62 509.204 1413.62 509.204C1406.56 509.109 1403.22 501.383 1403.22 501.383C1408.47 508.25 1418.67 504.435 1418.67 504.435C1402.65 501.192 1399.03 489.269 1399.03 489.269C1404.46 496.995 1413.71 493.752 1413.71 493.752C1404.18 494.992 1399.03 487.266 1399.03 487.266C1405.42 496.041 1419.06 490.986 1419.06 490.986C1406.08 491.749 1398.45 477.822 1398.45 477.822C1400.84 481.066 1405.23 479.73 1405.23 479.73C1401.6 480.398 1395.78 471.813 1395.78 471.813C1401.03 478.299 1410.85 473.721 1410.85 473.721C1402.08 476.678 1385.1 450.733 1385.1 450.733C1385.1 450.733 1368.12 476.678 1359.34 473.721C1359.34 473.721 1369.07 478.204 1374.42 471.813C1374.42 471.813 1368.6 480.398 1364.97 479.73C1364.97 479.73 1369.36 480.97 1371.75 477.822C1371.75 477.822 1364.11 491.749 1351.14 490.986C1351.14 490.986 1364.78 496.041 1371.17 487.266C1371.17 487.266 1366.12 494.992 1356.48 493.752C1356.48 493.752 1365.64 496.995 1371.17 489.269C1371.17 489.269 1367.55 501.192 1351.52 504.435C1351.52 504.435 1361.63 508.25 1366.98 501.383C1366.98 501.383 1363.64 509.109 1356.58 509.204C1356.58 509.204 1362.59 511.971 1366.59 505.198C1366.59 505.198 1356.96 521.795 1346.56 521.605C1346.56 521.605 1355.91 523.703 1361.16 516.835C1361.16 516.835 1354.29 527.423 1346.56 527.518C1346.56 527.518 1354.29 530.857 1360.39 525.706C1360.39 525.706 1349.9 542.494 1343.03 542.78C1343.03 542.78 1351.52 544.402 1357.72 541.445C1354.96 543.352 1351.24 545.26 1347.52 545.165C1350.09 545.26 1358.77 545.165 1362.87 539.823C1362.87 539.823 1354.48 560.808 1341.22 561.667C1341.22 561.667 1353.05 565.959 1359.82 556.516C1359.82 556.516 1349.23 572.445 1338.46 573.399C1338.46 573.399 1351.33 574.448 1360.01 560.045C1360.01 560.045 1355.91 571.587 1352 572.35C1352 572.35 1356.29 572.445 1360.78 566.15C1355.82 574.83 1346.37 588.756 1336.93 589.805C1336.93 589.805 1348.66 592.381 1358.1 581.984C1353.34 587.993 1344.37 597.818 1335.59 599.535C1335.59 599.535 1344.94 599.248 1352.57 596.768C1346.75 599.725 1338.74 603.445 1334.45 604.113C1337.22 603.732 1355.05 600.965 1360.49 595.433C1360.49 595.433 1349.42 611.172 1319.19 616.513C1319.19 616.513 1336.83 617.658 1348.76 614.51C1339.12 619.756 1324.62 627.196 1316.52 628.627C1316.52 628.627 1330.16 629.486 1338.46 622.618C1338.46 622.618 1329.78 634.923 1319.86 635.4C1319.86 635.4 1330.73 638.547 1339.6 632.538C1336.07 635.4 1330.82 639.12 1326.91 639.215C1326.91 639.215 1335.88 642.649 1344.37 631.298C1344.37 631.298 1326.91 656.194 1316.42 655.24C1316.42 655.24 1330.92 656.766 1342.08 650.089C1339.03 653.332 1335.59 656.671 1332.45 659.246H1384.05H1386.82H1438.42C1435.27 656.671 1431.84 653.332 1428.79 650.089C1439.28 656.766 1453.78 655.24 1453.78 655.24Z" fill="url(#paint16_linear)"/>
<path d="M1426.31 655.812C1417.91 661.059 1401.22 670.502 1392.06 670.406C1392.06 670.406 1394.73 670.788 1398.83 671.169H1543.92C1547.92 670.788 1550.69 670.406 1550.69 670.406C1541.53 670.597 1524.93 661.059 1516.45 655.812C1528.27 660.105 1551.93 656.671 1551.93 656.671C1546.01 655.335 1539.34 651.997 1532.66 647.8C1535.43 647.705 1537.14 647.037 1537.14 647.037C1533.52 646.56 1528.94 644.748 1525.32 642.935C1521.02 639.883 1516.92 636.64 1513.3 633.588C1519.31 635.495 1526.65 634.637 1526.65 634.637C1522.84 633.969 1519.97 632.252 1518.07 630.44C1524.74 630.249 1530.09 627.578 1530.09 627.578C1520.55 623.286 1514.82 616.513 1514.82 616.513C1521.88 622.523 1540.96 615.369 1540.96 615.369C1522.93 613.747 1503.85 596.769 1496.41 589.424C1503.28 594.67 1511.39 591.999 1511.39 591.999C1499.09 592.667 1492.31 575.593 1492.31 575.593C1502.9 591.045 1531.71 583.224 1531.71 583.224C1508.34 584.178 1491.26 549.267 1491.26 549.267C1502.81 562.907 1523.12 555.276 1523.12 555.276C1503.57 554.799 1498.99 538.202 1498.99 538.202C1505.48 541.254 1507.77 539.156 1507.77 539.156C1500.23 539.346 1494.7 530.857 1494.7 530.857C1506.53 540.777 1521.6 531.525 1521.6 531.525C1509.77 534.1 1496.13 510.731 1496.13 510.731C1501.76 514.928 1512.06 510.731 1512.06 510.731C1507.29 511.875 1498.23 506.915 1492.12 503.1C1504.62 508.918 1521.6 504.721 1521.6 504.721C1501.28 501.955 1489.93 487.17 1489.93 487.17C1497.18 490.223 1502.23 488.601 1502.23 488.601C1487.45 488.41 1482.2 475.438 1482.2 475.438C1484.2 478.204 1494.22 478.49 1494.22 478.49C1491.17 478.49 1485.44 473.435 1485.44 473.435C1493.36 477.06 1506.33 473.912 1506.33 473.912C1480.39 473.912 1475.81 449.493 1479.44 453.595C1482.96 457.792 1488.31 454.644 1488.31 454.644C1478.67 450.542 1474.28 437.474 1472.28 426.982V412.483C1472.28 412.483 1472.19 416.394 1471.42 421.831C1470.66 416.394 1470.56 412.483 1470.56 412.483V426.982C1468.56 437.474 1464.17 450.447 1454.54 454.644C1454.54 454.644 1459.88 457.792 1463.41 453.595C1466.94 449.398 1462.46 473.912 1436.51 473.912C1436.51 473.912 1449.48 477.06 1457.4 473.435C1457.4 473.435 1451.68 478.49 1448.63 478.49C1448.63 478.49 1458.64 478.3 1460.64 475.438C1460.64 475.438 1455.4 488.41 1440.61 488.601C1440.61 488.601 1445.67 490.223 1452.92 487.17C1452.92 487.17 1441.66 501.955 1421.25 504.721C1421.25 504.721 1438.23 508.918 1450.72 503.1C1444.62 506.915 1435.46 511.971 1430.79 510.731C1430.79 510.731 1441.19 514.928 1446.72 510.731C1446.72 510.731 1432.98 534.1 1421.25 531.525C1421.25 531.525 1436.32 540.777 1448.15 530.857C1448.15 530.857 1442.62 539.442 1435.08 539.156C1435.08 539.156 1437.37 541.254 1443.86 538.202C1443.86 538.202 1439.37 554.894 1419.72 555.276C1419.72 555.276 1440.04 562.907 1451.58 549.267C1451.58 549.267 1434.51 584.178 1411.14 583.224C1411.14 583.224 1440.04 591.045 1450.53 575.593C1450.53 575.593 1443.76 592.667 1431.46 591.999C1431.46 591.999 1439.56 594.67 1446.43 589.424C1438.99 596.769 1419.91 613.747 1401.89 615.369C1401.89 615.369 1420.96 622.523 1428.02 616.513C1428.02 616.513 1422.2 623.286 1412.76 627.578C1412.76 627.578 1418.1 630.249 1424.78 630.44C1422.87 632.157 1420.01 633.874 1416.19 634.637C1416.19 634.637 1423.54 635.591 1429.55 633.588C1425.92 636.64 1421.82 639.883 1417.53 642.935C1413.91 644.748 1409.33 646.655 1405.7 647.037C1405.7 647.037 1407.51 647.705 1410.19 647.8C1403.6 651.997 1396.93 655.335 1390.92 656.671C1390.73 656.671 1414.48 660.105 1426.31 655.812ZM1507.96 666.114C1507.77 665.828 1507.67 665.732 1507.67 665.732C1507.77 665.828 1507.86 665.923 1507.96 666.114ZM1434.89 665.637C1434.89 665.637 1434.8 665.828 1434.6 666.019C1434.7 665.923 1434.8 665.828 1434.89 665.637Z" fill="url(#paint17_linear)"/>
<path d="M1598 592.381C1570.05 583.51 1559.37 568.344 1559.37 568.344C1566.52 575.688 1590.18 579.313 1593.8 579.885C1588.08 579.027 1577.49 574.067 1569.77 570.156C1579.78 573.399 1592.18 573.781 1592.18 573.781C1580.54 571.491 1568.72 558.519 1562.33 550.507C1574.82 564.337 1590.37 560.904 1590.37 560.904C1577.87 559.568 1565.47 541.159 1558.8 529.617C1564.71 538.011 1570.43 537.916 1570.43 537.916C1565.19 536.962 1559.75 521.605 1559.75 521.605C1571.2 540.586 1588.27 539.251 1588.27 539.251C1573.87 538.106 1559.94 516.931 1559.94 516.931C1568.91 529.331 1584.65 523.703 1584.65 523.703C1567 522.559 1555.93 494.801 1555.93 494.801C1561.37 501.86 1572.82 501.955 1576.25 501.86C1571.29 501.955 1566.33 499.38 1562.71 496.9C1570.91 500.811 1582.17 498.712 1582.17 498.712C1573.01 498.331 1559.08 476.106 1559.08 476.106C1567.19 482.973 1577.49 478.586 1577.49 478.586C1567.29 478.49 1558.22 464.469 1558.22 464.469C1565.09 473.53 1577.49 470.764 1577.49 470.764C1563.76 471.05 1550.97 449.016 1550.97 449.016C1556.32 457.982 1564.33 454.358 1564.33 454.358C1554.98 454.262 1550.59 443.961 1550.59 443.961C1557.56 453.022 1571.01 447.967 1571.01 447.967C1549.73 443.675 1544.97 427.936 1544.97 427.936C1552.21 438.142 1564.42 433.85 1564.42 433.85C1551.74 435.567 1544.97 425.265 1544.97 425.265C1553.36 436.902 1571.48 430.225 1571.48 430.225C1554.31 431.274 1544.2 412.77 1544.2 412.77C1547.35 417.062 1553.17 415.345 1553.17 415.345C1548.4 416.203 1540.58 404.853 1540.58 404.853C1547.54 413.437 1560.51 407.428 1560.51 407.428C1548.88 411.339 1526.37 377 1526.37 377C1526.37 377 1503.85 411.339 1492.22 407.428C1492.22 407.428 1505.19 413.342 1512.15 404.853C1512.15 404.853 1504.43 416.203 1499.56 415.345C1499.56 415.345 1505.38 417.062 1508.53 412.77C1508.53 412.77 1498.42 431.274 1481.25 430.225C1481.25 430.225 1499.37 436.998 1507.77 425.265C1507.77 425.265 1500.99 435.471 1488.31 433.85C1488.31 433.85 1500.52 438.142 1507.77 427.936C1507.77 427.936 1503 443.77 1481.72 447.967C1481.72 447.967 1495.17 453.022 1502.14 443.961C1502.14 443.961 1497.75 454.167 1488.4 454.358C1488.4 454.358 1496.41 457.982 1501.76 449.016C1501.76 449.016 1488.97 471.05 1475.24 470.764C1475.24 470.764 1487.64 473.435 1494.51 464.469C1494.51 464.469 1485.44 478.49 1475.24 478.586C1475.24 478.586 1485.44 482.973 1493.65 476.106C1493.65 476.106 1479.72 498.331 1470.56 498.712C1470.56 498.712 1481.82 500.906 1490.02 496.9C1486.4 499.38 1481.44 501.955 1476.48 501.86C1479.91 501.955 1491.45 501.86 1496.8 494.801C1496.8 494.801 1485.73 522.559 1468.08 523.703C1468.08 523.703 1483.82 529.331 1492.79 516.931C1492.79 516.931 1478.77 538.106 1464.46 539.251C1464.46 539.251 1481.53 540.586 1492.98 521.605C1492.98 521.605 1487.54 536.962 1482.3 537.916C1482.3 537.916 1488.02 538.011 1493.93 529.617C1487.35 541.159 1474.86 559.568 1462.36 560.904C1462.36 560.904 1477.91 564.242 1490.4 550.507C1484.01 558.519 1472.19 571.491 1460.55 573.781C1460.55 573.781 1472.95 573.399 1482.96 570.156C1475.24 574.067 1464.65 579.027 1458.93 579.885C1462.55 579.408 1486.21 575.688 1493.36 568.344C1493.36 568.344 1478.67 589.233 1438.61 596.292C1438.61 596.292 1461.98 597.818 1477.81 593.621C1465.03 600.584 1445.86 610.409 1435.08 612.412C1435.08 612.412 1453.11 613.557 1464.17 604.495C1464.17 604.495 1452.73 620.806 1439.47 621.378C1439.47 621.378 1453.87 625.48 1465.6 617.563C1460.93 621.378 1453.97 626.338 1448.82 626.434C1448.82 626.434 1460.74 630.917 1471.9 615.941C1471.9 615.941 1448.72 648.849 1434.89 647.705C1434.89 647.705 1454.06 649.708 1468.85 640.837C1464.75 645.129 1460.26 649.517 1456.07 652.951H1524.46H1528.18H1596.57C1592.37 649.517 1587.89 645.129 1583.79 640.837C1588.37 643.508 1593.33 645.225 1598 646.274V636.258C1588.65 627.101 1580.74 615.941 1580.74 615.941C1587.03 624.335 1593.42 626.624 1598 627.006V624.812C1594.09 623 1590.08 620.043 1587.03 617.563C1590.56 619.947 1594.38 621.283 1598 621.95V614.606C1592.28 609.932 1588.56 604.59 1588.56 604.59C1591.42 606.975 1594.66 608.597 1598 609.741V605.449C1589.99 601.824 1581.59 597.436 1574.92 593.716C1581.98 595.624 1590.66 596.292 1598 596.578V592.381V592.381Z" fill="url(#paint18_linear)"/>
<path d="M343.15 707.897C321.331 709.686 284.845 657.939 284.845 657.939C302.492 681.547 321.211 674.393 321.211 674.393C313.104 674.154 302.015 666.404 294.742 660.443C313.223 673.081 335.877 666.524 335.877 666.524C315.13 665.57 297.126 639.935 297.126 639.935C314.534 654.243 342.912 652.454 342.912 652.454C325.981 649.354 295.815 633.973 275.665 623.004C300.584 629.562 337.427 627.177 337.427 627.177C274.353 615.969 251.222 583.18 251.222 583.18C262.43 594.746 299.749 600.469 305.473 601.304C296.411 599.873 279.838 592.123 267.676 585.923C283.415 591.05 302.969 591.646 302.969 591.646C284.607 588.069 266.007 567.68 255.991 555.042C275.545 576.742 300.107 571.496 300.107 571.496C280.434 569.349 260.88 540.376 250.507 522.253C259.807 535.488 268.749 535.249 268.749 535.249C260.522 533.699 251.937 509.614 251.937 509.614C269.941 539.541 296.888 537.395 296.888 537.395C274.234 535.607 252.295 502.222 252.295 502.222C266.364 521.776 291.046 512.953 291.046 512.953C263.264 511.164 245.857 467.406 245.857 467.406C254.322 478.495 272.445 478.733 277.93 478.495C270.061 478.614 262.311 474.679 256.587 470.745C269.465 476.945 287.111 473.606 287.111 473.606C272.803 473.01 250.864 437.956 250.864 437.956C263.741 448.806 279.838 441.771 279.838 441.771C263.741 441.533 249.434 419.594 249.434 419.594C260.284 433.902 279.838 429.609 279.838 429.609C258.257 429.967 238.106 395.39 238.106 395.39C246.453 409.459 259.091 403.736 259.091 403.736C244.426 403.498 237.51 387.401 237.51 387.401C248.48 401.709 269.703 393.721 269.703 393.721C236.318 387.044 228.806 362.124 228.806 362.124C240.253 378.22 259.33 371.543 259.33 371.543C239.418 374.166 228.806 358.07 228.806 358.07C242.041 376.432 270.538 365.82 270.538 365.82C243.472 367.489 227.614 338.278 227.614 338.278C232.503 344.955 241.683 342.331 241.683 342.331C234.172 343.762 221.891 325.877 221.891 325.877C232.86 339.351 253.249 329.931 253.249 329.931C234.887 336.012 199.475 282 199.475 282C199.475 282 164.063 336.012 145.702 329.931C145.702 329.931 166.09 339.351 177.06 325.877C177.06 325.877 164.779 343.762 157.267 342.331C157.267 342.331 166.448 344.955 171.336 338.278C171.336 338.278 155.479 367.37 128.413 365.82C128.413 365.82 156.909 376.432 170.144 358.07C170.144 358.07 159.533 374.166 139.621 371.543C139.621 371.543 158.817 378.22 170.144 362.124C170.144 362.124 162.633 386.924 129.248 393.721C129.248 393.721 150.471 401.709 161.44 387.401C161.44 387.401 154.525 403.498 139.859 403.736C139.859 403.736 152.498 409.459 160.844 395.39C160.844 395.39 140.694 429.967 119.113 429.609C119.113 429.609 138.667 433.902 149.517 419.594C149.517 419.594 135.209 441.652 119.113 441.771C119.113 441.771 135.209 448.687 148.086 437.956C148.086 437.956 126.148 473.01 111.84 473.606C111.84 473.606 129.486 476.945 142.363 470.745C136.64 474.679 128.89 478.733 121.021 478.495C126.505 478.733 144.509 478.495 153.094 467.406C153.094 467.406 135.686 511.045 107.905 512.953C107.905 512.953 132.705 521.776 146.655 502.222C146.655 502.222 124.597 535.488 102.063 537.395C102.063 537.395 129.009 539.541 147.013 509.614C147.013 509.614 138.428 533.699 130.201 535.249C130.201 535.249 139.144 535.488 148.444 522.253C138.071 540.376 118.397 569.469 98.8433 571.496C98.8433 571.496 123.286 576.861 142.959 555.042C132.944 567.68 114.344 588.069 95.9818 591.646C95.9818 591.646 115.536 591.05 131.274 585.923C119.113 592.123 102.42 599.873 93.4779 601.304C99.201 600.469 136.521 594.746 147.729 583.18C147.729 583.18 124.597 615.969 61.5237 627.177C61.5237 627.177 98.3664 629.681 123.286 623.004C103.255 633.973 72.97 649.474 56.039 652.454C56.039 652.454 84.4163 654.243 101.824 639.935C101.824 639.935 83.8201 665.57 63.0737 666.524C63.0737 666.524 85.7278 673.081 104.209 660.443C96.9356 666.404 85.847 674.154 77.7392 674.393C77.7392 674.393 96.4587 681.547 114.105 657.939C114.105 657.939 77.62 709.805 55.8005 707.897C55.8005 707.897 85.9663 710.997 109.217 697.166C102.778 703.963 95.7433 710.878 89.0663 716.243H196.733H202.575H309.765C303.088 710.878 296.053 703.843 289.615 697.166C312.984 710.997 343.15 707.897 343.15 707.897Z" fill="url(#paint19_linear)"/>
<path d="M353.643 682.605C341.719 689.997 318.111 703.471 305.115 703.232C305.115 703.232 308.931 703.828 314.654 704.305H520.21C525.933 703.709 529.748 703.232 529.748 703.232C516.871 703.471 493.144 689.997 481.221 682.605C498.033 688.686 531.537 683.797 531.537 683.797C523.071 681.889 513.652 677.12 504.233 671.278C508.048 671.159 510.671 670.085 510.671 670.085C505.544 669.489 499.106 666.747 493.86 664.243C487.779 659.832 481.936 655.301 476.809 651.008C485.275 653.751 495.767 652.439 495.767 652.439C490.283 651.485 486.348 649.101 483.606 646.597C493.144 646.239 500.656 642.543 500.656 642.543C487.183 636.462 478.956 626.804 478.956 626.804C488.971 635.27 515.918 625.135 515.918 625.135C490.283 622.87 463.336 598.785 452.724 588.411C462.382 595.923 473.948 591.988 473.948 591.988C456.54 592.942 446.882 568.738 446.882 568.738C461.786 590.677 502.683 579.588 502.683 579.588C469.655 580.9 445.451 531.419 445.451 531.419C461.786 550.734 490.64 539.884 490.64 539.884C462.859 539.288 456.54 515.68 456.54 515.68C465.84 519.972 468.94 516.992 468.94 516.992C458.328 517.349 450.459 505.188 450.459 505.188C467.152 519.257 488.494 506.141 488.494 506.141C471.802 509.718 452.367 476.691 452.367 476.691C460.355 482.533 475.021 476.691 475.021 476.691C468.344 478.36 455.348 471.326 446.763 465.841C464.528 474.068 488.613 468.226 488.613 468.226C459.759 464.291 443.782 443.306 443.782 443.306C454.155 447.598 461.19 445.214 461.19 445.214C440.205 444.856 432.693 426.494 432.693 426.494C435.555 430.429 449.744 430.787 449.744 430.787C445.451 430.787 437.344 423.633 437.344 423.633C448.551 428.76 466.913 424.348 466.913 424.348C430.07 424.348 423.751 389.652 428.759 395.613C433.767 401.456 441.278 397.044 441.278 397.044C427.686 391.201 421.366 372.721 418.505 357.817V337.309C418.505 337.309 418.386 342.793 417.313 350.663C416.239 342.913 416.12 337.309 416.12 337.309V357.817C413.259 372.721 407.059 391.082 393.347 397.044C393.347 397.044 400.858 401.456 405.866 395.613C410.874 389.771 404.555 424.348 367.712 424.348C367.712 424.348 386.074 428.76 397.282 423.633C397.282 423.633 389.174 430.787 384.881 430.787C384.881 430.787 399.07 430.429 401.932 426.494C401.932 426.494 394.42 444.856 373.435 445.214C373.435 445.214 380.589 447.479 390.843 443.306C390.843 443.306 374.866 464.291 346.012 468.226C346.012 468.226 370.097 474.068 387.862 465.841C379.158 471.326 366.281 478.36 359.604 476.691C359.604 476.691 374.27 482.533 382.258 476.691C382.258 476.691 362.823 509.837 346.131 506.141C346.131 506.141 367.473 519.257 384.166 505.188C384.166 505.188 376.297 517.349 365.685 516.992C365.685 516.992 368.904 519.972 378.085 515.68C378.085 515.68 371.647 539.288 343.985 539.884C343.985 539.884 372.839 550.734 389.174 531.419C389.174 531.419 364.97 580.9 331.942 579.588C331.942 579.588 372.839 590.677 387.743 568.738C387.743 568.738 378.085 592.942 360.677 591.988C360.677 591.988 372.124 595.804 381.901 588.411C371.289 598.785 344.342 622.87 318.708 625.135C318.708 625.135 345.773 635.27 355.67 626.804C355.67 626.804 347.442 636.462 333.969 642.543C333.969 642.543 341.481 646.239 351.019 646.597C348.277 649.101 344.223 651.485 338.858 652.439C338.858 652.439 349.35 653.751 357.816 651.008C352.689 655.301 346.846 659.951 340.765 664.243C335.519 666.747 329.2 669.489 323.954 670.085C323.954 670.085 326.458 671.039 330.392 671.278C321.092 677.12 311.554 681.889 303.088 683.797C303.327 683.797 336.95 688.686 353.643 682.605ZM469.417 697.27C469.179 696.913 469.059 696.674 469.059 696.674C469.178 696.794 469.298 697.032 469.417 697.27ZM365.923 696.674C365.923 696.674 365.804 696.913 365.566 697.27C365.685 697.032 365.804 696.794 365.923 696.674Z" fill="url(#paint20_linear)"/>
<path d="M1600 968.093V794.734C1564.71 794.563 1529.22 793.707 1494.12 792.339C1472.37 791.484 1450.82 790.372 1429.07 789.089C1428.88 789.089 1428.69 789.089 1428.69 789.089C1428.5 789.089 1428.31 789.089 1428.11 789.089C1426.02 788.918 1423.73 788.832 1421.63 788.661C1415.91 788.319 1410.18 787.892 1404.27 787.55C1393.39 786.78 1382.71 786.01 1371.84 785.24C1285.23 778.655 1199.76 769.675 1114.68 759.84C946.989 740.425 780.446 718.018 609.133 705.959C451.556 694.841 291.689 692.446 135.066 708.182C89.281 712.801 43.8774 719.044 4.61864e-09 726.912V968.264C-3.27629e-06 982.083 -0.000154644 989.256 7.1283 992.98C14.8232 997 30.8246 997 64.0992 997H1535.9C1571.38 996.829 1600 984 1600 968.093Z" fill="url(#paint21_linear)"/>
<path d="M1122.4 433.3C1043.5 433.3 979.5 369.3 979.5 290.4C979.5 211.5 1043.5 147.5 1122.4 147.5C1201.3 147.5 1265.3 211.5 1265.3 290.4C1265.3 369.3 1201.3 433.3 1122.4 433.3ZM1122.4 127C1032.2 127 959 200.1 959 290.4C959 380.7 1032.1 453.8 1122.4 453.8C1212.6 453.8 1285.8 380.7 1285.8 290.4C1285.8 200.1 1212.6 127 1122.4 127Z" fill="url(#paint22_linear)"/>
<path d="M1122.4 147.5C1043.5 147.5 979.5 211.5 979.5 290.4C979.5 369.3 1043.5 433.3 1122.4 433.3C1201.3 433.3 1265.3 369.3 1265.3 290.4C1265.3 211.5 1201.3 147.5 1122.4 147.5Z" fill="url(#paint23_linear)"/>
<path d="M1122.4 411.8C1189.45 411.8 1243.8 357.447 1243.8 290.4C1243.8 223.353 1189.45 169 1122.4 169C1055.35 169 1001 223.353 1001 290.4C1001 357.447 1055.35 411.8 1122.4 411.8Z" fill="#FFFCEB"/>
<defs>
<linearGradient id="paint0_linear" x1="800.008" y1="591.414" x2="800.008" y2="30.0367" gradientUnits="userSpaceOnUse">
<stop offset="0.00731707" stop-color="#E0FCF7"/>
<stop offset="0.2732" stop-color="#71E2CD"/>
<stop offset="0.6902" stop-color="#238FB8"/>
<stop offset="1" stop-color="#31437C"/>
</linearGradient>
<linearGradient id="paint1_linear" x1="800.008" y1="1036.74" x2="800.008" y2="883.034" gradientUnits="userSpaceOnUse">
<stop stop-color="#253C6B"/>
<stop offset="1" stop-color="#172A56"/>
</linearGradient>
<linearGradient id="paint2_linear" x1="489.829" y1="726.308" x2="489.829" y2="452.056" gradientUnits="userSpaceOnUse">
<stop stop-color="#53819B"/>
<stop offset="1" stop-color="#406B89"/>
</linearGradient>
<linearGradient id="paint3_linear" x1="449.949" y1="626.287" x2="449.949" y2="280.761" gradientUnits="userSpaceOnUse">
<stop stop-color="#43658E"/>
<stop offset="1" stop-color="#38557F"/>
</linearGradient>
<linearGradient id="paint4_linear" x1="1102.23" y1="679.293" x2="1102.23" y2="633.684" gradientUnits="userSpaceOnUse">
<stop stop-color="#415993"/>
<stop offset="1" stop-color="#31437C"/>
</linearGradient>
<linearGradient id="paint5_linear" x1="729.72" y1="540.243" x2="734.051" y2="572.003" gradientUnits="userSpaceOnUse">
<stop stop-color="#415993"/>
<stop offset="1" stop-color="#31437C"/>
</linearGradient>
<linearGradient id="paint6_linear" x1="797.069" y1="508.266" x2="802.543" y2="545.91" gradientUnits="userSpaceOnUse">
<stop stop-color="#415993"/>
<stop offset="1" stop-color="#31437C"/>
</linearGradient>
<linearGradient id="paint7_linear" x1="1541.41" y1="435.116" x2="1546.11" y2="467.583" gradientUnits="userSpaceOnUse">
<stop stop-color="#415993"/>
<stop offset="1" stop-color="#31437C"/>
</linearGradient>
<linearGradient id="paint8_linear" x1="1137.2" y1="518.805" x2="1141.89" y2="551.272" gradientUnits="userSpaceOnUse">
<stop stop-color="#415993"/>
<stop offset="1" stop-color="#31437C"/>
</linearGradient>
<linearGradient id="paint9_linear" x1="1260.74" y1="525.778" x2="1265.43" y2="558.246" gradientUnits="userSpaceOnUse">
<stop stop-color="#415993"/>
<stop offset="1" stop-color="#31437C"/>
</linearGradient>
<linearGradient id="paint10_linear" x1="1183.35" y1="501.657" x2="1188.6" y2="537.952" gradientUnits="userSpaceOnUse">
<stop stop-color="#415993"/>
<stop offset="1" stop-color="#31437C"/>
</linearGradient>
<linearGradient id="paint11_linear" x1="948.895" y1="574.712" x2="952.225" y2="597.72" gradientUnits="userSpaceOnUse">
<stop stop-color="#415993"/>
<stop offset="1" stop-color="#31437C"/>
</linearGradient>
<linearGradient id="paint12_linear" x1="1069.1" y1="585.408" x2="1068.34" y2="622.239" gradientUnits="userSpaceOnUse">
<stop stop-color="#2F4B7C"/>
<stop offset="1" stop-color="#223A6B"/>
</linearGradient>
<linearGradient id="paint13_linear" x1="677.613" y1="529.951" x2="676.576" y2="583.202" gradientUnits="userSpaceOnUse">
<stop stop-color="#2F4B7C"/>
<stop offset="1" stop-color="#223A6B"/>
</linearGradient>
<linearGradient id="paint14_linear" x1="842.75" y1="542.294" x2="841.708" y2="592.693" gradientUnits="userSpaceOnUse">
<stop stop-color="#2F4B7C"/>
<stop offset="1" stop-color="#223A6B"/>
</linearGradient>
<linearGradient id="paint15_linear" x1="800.008" y1="784.706" x2="800.008" y2="703.944" gradientUnits="userSpaceOnUse">
<stop stop-color="#2F4B7C"/>
<stop offset="1" stop-color="#223A6B"/>
</linearGradient>
<linearGradient id="paint16_linear" x1="1389.03" y1="481.684" x2="1388" y2="534.935" gradientUnits="userSpaceOnUse">
<stop stop-color="#2F4B7C"/>
<stop offset="1" stop-color="#223A6B"/>
</linearGradient>
<linearGradient id="paint17_linear" x1="1476.04" y1="450.882" x2="1474.67" y2="516.944" gradientUnits="userSpaceOnUse">
<stop stop-color="#2F4B7C"/>
<stop offset="1" stop-color="#223A6B"/>
</linearGradient>
<linearGradient id="paint18_linear" x1="1521.12" y1="417.961" x2="1519.59" y2="488.429" gradientUnits="userSpaceOnUse">
<stop stop-color="#2F4B7C"/>
<stop offset="1" stop-color="#223A6B"/>
</linearGradient>
<linearGradient id="paint19_linear" x1="189.097" y1="410.546" x2="193.016" y2="516.357" gradientUnits="userSpaceOnUse">
<stop stop-color="#253C6B"/>
<stop offset="1" stop-color="#172A56"/>
</linearGradient>
<linearGradient id="paint20_linear" x1="409.062" y1="445.948" x2="412.582" y2="535.357" gradientUnits="userSpaceOnUse">
<stop stop-color="#253C6B"/>
<stop offset="1" stop-color="#172A56"/>
</linearGradient>
<linearGradient id="paint21_linear" x1="800.008" y1="1053.08" x2="800.008" y2="818.448" gradientUnits="userSpaceOnUse">
<stop stop-color="#253C6B"/>
<stop offset="1" stop-color="#172A56"/>
</linearGradient>
<linearGradient id="paint22_linear" x1="1122.39" y1="530.554" x2="1122.39" y2="-308.231" gradientUnits="userSpaceOnUse">
<stop stop-color="#E7FCF4"/>
<stop offset="0.00731707" stop-color="#E7FCF4"/>
<stop offset="0.2732" stop-color="#93E8D4"/>
<stop offset="0.6902" stop-color="#58A9C4"/>
<stop offset="1" stop-color="#626F97"/>
</linearGradient>
<linearGradient id="paint23_linear" x1="1122.39" y1="530.554" x2="1122.39" y2="-308.231" gradientUnits="userSpaceOnUse">
<stop stop-color="#EDFCF2"/>
<stop offset="0.00731707" stop-color="#EDFCF2"/>
<stop offset="0.2732" stop-color="#ADEDDA"/>
<stop offset="0.6902" stop-color="#80BDCD"/>
<stop offset="1" stop-color="#8891AB"/>
</linearGradient>
</defs>
</svg>
