<svg width="838" height="1496" viewBox="0 0 838 1496" fill="none" xmlns="http://www.w3.org/2000/svg">
<rect width="837" height="1493" fill="url(#paint0_linear)"/>
<rect y="1202" width="837" height="294" fill="url(#paint1_linear)"/>
<path d="M597.6 788.3C518.7 788.3 454.7 724.3 454.7 645.4C454.7 566.5 518.7 502.5 597.6 502.5C676.5 502.5 740.5 566.5 740.5 645.4C740.5 724.3 676.5 788.3 597.6 788.3ZM597.6 482C507.4 482 434.2 555.1 434.2 645.4C434.2 735.7 507.3 808.8 597.6 808.8C687.9 808.8 761 735.7 761 645.4C761 555.1 687.8 482 597.6 482Z" fill="url(#paint2_linear)"/>
<path d="M597.6 502.5C518.7 502.5 454.7 566.5 454.7 645.4C454.7 724.3 518.7 788.3 597.6 788.3C676.5 788.3 740.5 724.3 740.5 645.4C740.5 566.5 676.5 502.5 597.6 502.5Z" fill="url(#paint3_linear)"/>
<path d="M597.6 766.8C664.648 766.8 719 712.447 719 645.4C719 578.353 664.648 524 597.6 524C530.553 524 476.2 578.353 476.2 645.4C476.2 712.447 530.553 766.8 597.6 766.8Z" fill="#FFFCEB"/>
<path d="M230 816.9C230 816.9 233.3 778.3 264.5 761.8C295.7 745.3 298.9 730.3 307.2 735.4C315.5 740.4 353.3 751.9 358.2 761.8C363.1 771.7 377.9 818.6 387.8 838.7C397.7 858.8 430.4 903.1 446.1 901.5C461.8 899.9 479.9 904.8 484.8 916.3C489.7 927.8 516 973.3 522.6 983.4C529.2 993.5 558.4 1046.1 556.9 1051C555.4 1055.9 583.8 1125 583.8 1125L483.2 1169.3L268.1 1122.4C268.1 1122.4 226.6 1027.2 219.2 1017.5C211.7 1007.8 230 816.9 230 816.9Z" fill="url(#paint4_linear)"/>
<path d="M0.299995 709.2C0.299995 709.2 57.6 656.6 69.2 659.9C80.8 663.2 119.6 645.1 145 641.8C170.4 638.5 193.7 638.5 223.9 668.1C254.1 697.7 223.8 699.3 241.1 755.2C258.4 811.1 328 916.2 340.3 971.5C352.6 1026.9 388.4 1139.6 402.9 1147.1C417.3 1154.5 737.4 1179.7 737.4 1179.7L424.5 1317.6L0 1210.4L0.299995 709.2Z" fill="url(#paint5_linear)"/>
<path d="M99.4 684.7C107.4 701.5 122 714.6 123.5 720.5C125 726.3 131.5 692.7 131.5 692.7C131.5 692.7 161.1 691.2 167.5 692.7C173.9 694.2 181.2 670.1 190.7 669.3C200.2 668.5 214.8 694.1 211.2 710.2C207.5 726.3 227.9 768.6 217.4 772.3C206.8 776 162.3 786.2 171.8 789.8C181.3 793.5 212.7 779.6 225.1 784C237.5 788.4 282.6 844.5 282.7 844.6C265.1 811 248.5 778.7 241.2 755.2C223.9 699.3 254.2 697.7 224 668.1C193.8 638.5 170.4 638.5 145.1 641.8C119.8 645.1 80.9001 663.2 69.3001 659.9C64.5001 658.5 52 666.7 38.9 676.7C38.8 676.8 91.3 667.9 99.4 684.7Z" fill="#AD6CA1"/>
<path d="M292.9 765C297.7 757.9 305.9 744.7 310.9 750.8C315.8 756.8 335 750.2 333.4 768C331.8 785.8 327.9 795.1 339.4 782C350.9 768.9 358 787.5 363 801.7C368 815.9 383.3 859.2 359.7 865.8C336.1 872.4 349.9 870 378.1 875.6C406.3 881.1 418.9 903.8 425 899.2C431.1 894.6 441.3 912.9 439.2 918.9C438.2 921.8 445 911.7 453.7 901.2C451.2 901.1 448.7 901.2 446.2 901.5C430.5 903.1 397.8 858.8 387.9 838.7C378 818.6 363.2 771.7 358.3 761.8C353.4 751.9 315.6 740.4 307.3 735.4C299 730.4 295.9 745.4 264.6 761.8C264 762.1 263.3 762.5 262.7 762.9C262.9 766.2 264.5 768.5 269.2 767.2C281.2 763.9 288.1 772.1 292.9 765Z" fill="#C1809A"/>
<path d="M837.166 938.2C832.383 937.9 827.6 937.8 822.817 937.7C806.974 937.6 791.131 937.7 775.287 938.9C742.505 941.5 710.918 949.5 683.715 968.6C671.758 977 660.598 986.6 649.737 996.4C644.556 1001 639.474 1005.7 634.292 1010.2C631.702 1012.5 629.111 1014.7 626.42 1016.9C625.125 1018 623.83 1019.1 622.435 1020.2C621.638 1020.8 620.84 1021.5 620.043 1022.1C619.844 1022.3 619.545 1022.5 619.246 1022.7C614.264 1026.4 609.082 1030 603.702 1033.2C600.712 1035 597.723 1036.6 594.535 1038.2C589.951 1040.5 589.752 1040.6 584.969 1042.4C570.321 1047.9 554.976 1051.2 539.731 1054.3C524.884 1057.3 510.037 1059.9 495.489 1064C479.148 1068.5 463.803 1075.4 448.358 1082C437.895 1086.5 420.557 1092.9 408.7 1094.7C391.462 1097.3 373.526 1095.6 356.287 1094.1C321.512 1091.1 286.936 1089.8 252.16 1092.4C236.317 1093.6 220.474 1095.5 204.83 1097.9C198.851 1095.8 192.274 1095.2 185.598 1096.2C168.26 1099 157.599 1114.5 156.303 1131.3C153.713 1166.1 188.388 1184.8 210.41 1205C234.523 1227 257.142 1250.2 284.046 1269.1C309.455 1286.9 337.156 1300.8 365.953 1312C425.938 1335.3 490.806 1344.3 554.976 1345.1C589.951 1345.5 624.926 1343.5 659.701 1340.1C694.676 1336.8 729.85 1333 764.426 1326.9C789.437 1322.5 814.746 1315.4 837.166 1302.9V938.2V938.2ZM193.57 1130.3H193.47C193.669 1130.3 193.769 1130.3 193.769 1130.3C193.769 1130.3 193.67 1130.3 193.57 1130.3Z" fill="url(#paint6_linear)"/>
<path d="M535.346 1084.9C529.667 1085.4 520.101 1071.8 520.101 1071.8C524.685 1078 529.567 1076.1 529.567 1076.1C527.475 1076 524.585 1074 522.692 1072.4C527.475 1075.7 533.453 1074 533.453 1074C528.072 1073.8 523.29 1067 523.29 1067C527.873 1070.8 535.247 1070.3 535.247 1070.3C530.862 1069.5 522.891 1065.5 517.709 1062.6C524.186 1064.3 533.852 1063.7 533.852 1063.7C517.411 1060.8 511.332 1052.2 511.332 1052.2C514.222 1055.2 523.987 1056.7 525.482 1056.9C523.09 1056.5 518.806 1054.5 515.617 1052.9C519.702 1054.2 524.884 1054.4 524.884 1054.4C520.101 1053.5 515.218 1048.1 512.628 1044.8C517.709 1050.5 524.186 1049.1 524.186 1049.1C519.104 1048.6 513.923 1040.9 511.233 1036.2C513.624 1039.7 516.016 1039.6 516.016 1039.6C513.823 1039.2 511.631 1032.9 511.631 1032.9C516.314 1040.7 523.389 1040.2 523.389 1040.2C517.51 1039.7 511.731 1031 511.731 1031C515.418 1036.1 521.894 1033.8 521.894 1033.8C514.621 1033.3 510.137 1021.9 510.137 1021.9C512.329 1024.8 517.112 1024.9 518.507 1024.8C516.414 1024.8 514.421 1023.8 512.927 1022.8C516.314 1024.4 520.898 1023.5 520.898 1023.5C517.112 1023.3 511.432 1014.2 511.432 1014.2C514.82 1017 519.005 1015.2 519.005 1015.2C514.82 1015.1 511.033 1009.4 511.033 1009.4C513.823 1013.1 519.005 1012 519.005 1012C513.325 1012.1 508.144 1003 508.144 1003C510.336 1006.7 513.624 1005.2 513.624 1005.2C509.838 1005.1 507.944 1000.9 507.944 1000.9C510.834 1004.6 516.314 1002.6 516.314 1002.6C507.546 1000.8 505.653 994.3 505.653 994.3C508.642 998.5 513.624 996.8 513.624 996.8C508.443 997.5 505.653 993.3 505.653 993.3C509.14 998.1 516.514 995.3 516.514 995.3C509.439 995.7 505.254 988.1 505.254 988.1C506.549 989.9 508.941 989.2 508.941 989.2C506.948 989.6 503.759 984.9 503.759 984.9C506.649 988.4 511.93 986 511.93 986C507.147 987.6 497.88 973.4 497.88 973.4C497.88 973.4 488.614 987.6 483.831 986C483.831 986 489.112 988.5 492.001 984.9C492.001 984.9 488.813 989.6 486.82 989.2C486.82 989.2 489.211 989.9 490.507 988.1C490.507 988.1 486.322 995.7 479.247 995.3C479.247 995.3 486.72 998.1 490.108 993.3C490.108 993.3 487.318 997.5 482.137 996.8C482.137 996.8 487.119 998.6 490.108 994.3C490.108 994.3 488.115 1000.8 479.446 1002.6C479.446 1002.6 484.927 1004.7 487.816 1000.9C487.816 1000.9 486.023 1005.1 482.137 1005.2C482.137 1005.2 485.425 1006.7 487.617 1003C487.617 1003 482.336 1012.1 476.756 1012C476.756 1012 481.838 1013.1 484.728 1009.4C484.728 1009.4 481.041 1015.2 476.756 1015.2C476.756 1015.2 480.941 1017 484.329 1014.2C484.329 1014.2 478.649 1023.4 474.863 1023.5C474.863 1023.5 479.446 1024.4 482.834 1022.8C481.34 1023.8 479.347 1024.9 477.254 1024.8C478.649 1024.9 483.432 1024.8 485.624 1021.9C485.624 1021.9 481.041 1033.3 473.866 1033.8C473.866 1033.8 480.343 1036.1 484.03 1031C484.03 1031 478.251 1039.7 472.372 1040.2C472.372 1040.2 479.347 1040.8 484.13 1032.9C484.13 1032.9 481.938 1039.2 479.745 1039.6C479.745 1039.6 482.037 1039.6 484.528 1036.2C481.838 1041 476.656 1048.6 471.575 1049.1C471.575 1049.1 477.952 1050.5 483.133 1044.8C480.542 1048.1 475.66 1053.5 470.877 1054.4C470.877 1054.4 475.959 1054.2 480.144 1052.9C476.955 1054.5 472.671 1056.5 470.279 1056.9C471.774 1056.7 481.539 1055.2 484.429 1052.2C484.429 1052.2 478.35 1060.8 461.909 1063.7C461.909 1063.7 471.475 1064.3 478.051 1062.6C472.77 1065.5 464.899 1069.5 460.514 1070.3C460.514 1070.3 467.888 1070.8 472.471 1067C472.471 1067 467.788 1073.7 462.308 1074C462.308 1074 468.187 1075.7 473.069 1072.4C471.176 1074 468.286 1076 466.194 1076.1C466.194 1076.1 471.076 1078 475.66 1071.8C475.66 1071.8 466.094 1085.4 460.415 1084.9C460.415 1084.9 468.286 1085.7 474.365 1082.1C472.671 1083.9 470.877 1085.7 469.084 1087.1H497.183H498.678H526.777C525.083 1085.7 523.19 1083.9 521.496 1082.1C527.474 1085.8 535.346 1084.9 535.346 1084.9Z" fill="url(#paint7_linear)"/>
<path d="M533.354 1070.7C528.969 1073.4 520.301 1078.4 515.617 1078.3C515.617 1078.3 517.012 1078.5 519.105 1078.7H594.435C596.528 1078.5 597.923 1078.3 597.923 1078.3C593.239 1078.4 584.57 1073.4 580.186 1070.7C586.364 1072.9 598.62 1071.1 598.62 1071.1C595.531 1070.4 592.044 1068.7 588.656 1066.5C590.051 1066.4 591.047 1066.1 591.047 1066.1C589.154 1065.9 586.763 1064.9 584.869 1063.9C582.677 1062.3 580.485 1060.6 578.592 1059C581.681 1060 585.567 1059.5 585.567 1059.5C583.574 1059.1 582.079 1058.3 581.083 1057.3C584.57 1057.2 587.36 1055.8 587.36 1055.8C582.378 1053.6 579.389 1050 579.389 1050C583.076 1053.1 592.94 1049.4 592.94 1049.4C583.574 1048.6 573.709 1039.7 569.823 1035.9C573.41 1038.6 577.595 1037.2 577.595 1037.2C571.218 1037.6 567.731 1028.6 567.731 1028.6C573.211 1036.7 588.158 1032.6 588.158 1032.6C576.001 1033.1 567.233 1014.9 567.233 1014.9C573.211 1022 583.773 1018 583.773 1018C573.61 1017.8 571.218 1009.1 571.218 1009.1C574.606 1010.7 575.802 1009.6 575.802 1009.6C571.916 1009.7 569.026 1005.3 569.026 1005.3C575.104 1010.5 582.976 1005.7 582.976 1005.7C576.898 1007 569.724 994.9 569.724 994.9C572.613 997.1 577.994 994.9 577.994 994.9C575.503 995.5 570.82 992.9 567.631 990.9C574.108 993.9 582.976 991.8 582.976 991.8C572.414 990.4 566.535 982.6 566.535 982.6C570.321 984.2 572.912 983.3 572.912 983.3C565.24 983.2 562.45 976.4 562.45 976.4C563.446 977.8 568.727 978 568.727 978C567.133 978 564.144 975.4 564.144 975.4C568.229 977.3 575.005 975.7 575.005 975.7C561.553 975.7 559.161 963 561.055 965.1C562.948 967.3 565.638 965.6 565.638 965.6C560.656 963.4 558.364 956.7 557.268 951.2V943.6C557.268 943.6 557.268 945.6 556.87 948.5C556.471 945.6 556.471 943.6 556.471 943.6V951.2C555.375 956.7 553.183 963.4 548.101 965.6C548.101 965.6 550.891 967.2 552.685 965.1C554.578 962.9 552.186 975.7 538.735 975.7C538.735 975.7 545.51 977.3 549.596 975.4C549.596 975.4 546.606 978 545.012 978C545.012 978 550.194 977.9 551.29 976.4C551.29 976.4 548.599 983.1 540.827 983.3C540.827 983.3 543.418 984.1 547.204 982.6C547.204 982.6 541.325 990.3 530.763 991.8C530.763 991.8 539.631 994 546.108 990.9C542.92 992.9 538.236 995.5 535.745 994.9C535.745 994.9 541.126 997.1 544.016 994.9C544.016 994.9 536.941 1007.1 530.763 1005.7C530.763 1005.7 538.535 1010.5 544.713 1005.3C544.713 1005.3 541.823 1009.8 537.937 1009.6C537.937 1009.6 539.133 1010.7 542.521 1009.1C542.521 1009.1 540.13 1017.8 529.966 1018C529.966 1018 540.528 1022 546.507 1014.9C546.507 1014.9 537.638 1033.1 525.582 1032.6C525.582 1032.6 540.528 1036.7 546.009 1028.6C546.009 1028.6 542.521 1037.5 536.144 1037.2C536.144 1037.2 540.329 1038.6 543.916 1035.9C540.03 1039.7 530.165 1048.6 520.799 1049.4C520.799 1049.4 530.663 1053.1 534.35 1050C534.35 1050 531.361 1053.5 526.379 1055.8C526.379 1055.8 529.169 1057.2 532.656 1057.3C531.66 1058.2 530.165 1059.1 528.172 1059.5C528.172 1059.5 531.959 1060 535.147 1059C533.254 1060.6 531.162 1062.3 528.87 1063.9C526.977 1064.8 524.585 1065.8 522.692 1066.1C522.692 1066.1 523.589 1066.5 525.083 1066.5C521.696 1068.7 518.208 1070.4 515.119 1071.1C514.92 1071.2 527.276 1072.9 533.354 1070.7ZM575.802 1076.1C575.702 1076 575.702 1075.9 575.702 1075.9C575.702 1075.9 575.702 1076 575.802 1076.1ZM537.838 1075.9C537.838 1075.9 537.838 1076 537.738 1076.1C537.738 1076 537.838 1075.9 537.838 1075.9Z" fill="url(#paint8_linear)"/>
<path d="M768.811 954.2C765.024 956.5 757.551 960.8 753.466 960.7C753.466 960.7 754.661 960.9 756.455 961.1H821.422C823.216 960.9 824.412 960.7 824.412 960.7C820.326 960.8 812.853 956.5 809.067 954.2C814.348 956.1 825.01 954.6 825.01 954.6C822.319 954 819.33 952.5 816.44 950.6C817.636 950.6 818.433 950.2 818.433 950.2C816.839 950 814.746 949.2 813.152 948.3C811.259 946.9 809.366 945.4 807.771 944.1C810.462 945 813.75 944.6 813.75 944.6C812.056 944.3 810.761 943.5 809.864 942.7C812.853 942.6 815.245 941.4 815.245 941.4C810.96 939.5 808.369 936.4 808.369 936.4C811.558 939.1 820.027 935.9 820.027 935.9C811.956 935.2 803.387 927.5 800.099 924.2C803.188 926.6 806.775 925.4 806.775 925.4C801.294 925.7 798.205 918 798.205 918C802.889 925 815.842 921.4 815.842 921.4C805.38 921.8 797.707 906.1 797.707 906.1C802.889 912.2 811.956 908.8 811.956 908.8C803.188 908.6 801.195 901.1 801.195 901.1C804.084 902.5 805.081 901.5 805.081 901.5C801.693 901.6 799.202 897.8 799.202 897.8C804.483 902.3 811.259 898.1 811.259 898.1C805.978 899.2 799.8 888.7 799.8 888.7C802.291 890.6 806.974 888.7 806.974 888.7C804.882 889.2 800.796 887 798.006 885.3C803.586 887.9 811.259 886 811.259 886C802.191 884.8 797.109 878.1 797.109 878.1C800.398 879.5 802.59 878.7 802.59 878.7C795.914 878.6 793.622 872.8 793.622 872.8C794.519 874 799.003 874.2 799.003 874.2C797.608 874.2 795.117 871.9 795.117 871.9C798.704 873.5 804.483 872.1 804.483 872.1C792.825 872.1 790.832 861.1 792.426 863C794.02 864.9 796.412 863.5 796.412 863.5C792.127 861.6 790.134 855.8 789.238 851.1V844.6C789.238 844.6 789.238 846.4 788.839 848.8C788.54 846.3 788.44 844.6 788.44 844.6V851.1C787.544 855.8 785.551 861.7 781.266 863.5C781.266 863.5 783.658 864.9 785.252 863C786.846 861.1 784.853 872.1 773.195 872.1C773.195 872.1 778.974 873.5 782.561 871.9C782.561 871.9 779.971 874.2 778.675 874.2C778.675 874.2 783.159 874.1 784.056 872.8C784.056 872.8 781.665 878.6 775.088 878.7C775.088 878.7 777.38 879.4 780.569 878.1C780.569 878.1 775.487 884.8 766.419 886C766.419 886 773.992 887.9 779.672 885.3C776.981 887 772.896 889.3 770.704 888.7C770.704 888.7 775.387 890.6 777.878 888.7C777.878 888.7 771.7 899.2 766.419 898.1C766.419 898.1 773.195 902.3 778.476 897.8C778.476 897.8 775.985 901.6 772.597 901.5C772.597 901.5 773.594 902.4 776.483 901.1C776.483 901.1 774.49 908.6 765.722 908.8C765.722 908.8 774.789 912.2 779.971 906.1C779.971 906.1 772.298 921.8 761.836 921.4C761.836 921.4 774.789 924.9 779.473 918C779.473 918 776.483 925.7 770.903 925.4C770.903 925.4 774.59 926.6 777.579 924.2C774.191 927.5 765.722 935.1 757.651 935.9C757.651 935.9 766.22 939.1 769.309 936.4C769.309 936.4 766.718 939.5 762.434 941.4C762.434 941.4 764.825 942.6 767.814 942.7C766.917 943.5 765.722 944.3 763.928 944.6C763.928 944.6 767.216 945 769.907 944.1C768.313 945.5 766.419 946.9 764.526 948.3C762.932 949.1 760.839 950 759.245 950.2C759.245 950.2 760.042 950.5 761.238 950.6C758.249 952.5 755.259 954 752.668 954.6C752.868 954.6 763.43 956.2 768.811 954.2ZM805.38 958.8C805.28 958.7 805.28 958.6 805.28 958.6C805.28 958.7 805.28 958.8 805.38 958.8ZM772.697 958.7C772.697 958.7 772.697 958.8 772.597 958.9C772.597 958.8 772.597 958.7 772.697 958.7Z" fill="url(#paint9_linear)"/>
<path d="M396.395 1111.6C391.505 1114.6 381.825 1120.2 376.535 1120.1C376.535 1120.1 378.132 1120.3 380.428 1120.6H464.756C467.151 1120.4 468.648 1120.1 468.648 1120.1C463.359 1120.2 453.679 1114.7 448.789 1111.6C455.675 1114.1 469.447 1112.1 469.447 1112.1C465.954 1111.3 462.062 1109.4 458.269 1106.9C459.866 1106.8 460.864 1106.4 460.864 1106.4C458.768 1106.1 456.074 1105 453.978 1104C451.483 1102.2 449.088 1100.3 446.992 1098.5C450.485 1099.6 454.777 1099.1 454.777 1099.1C452.581 1098.7 450.884 1097.7 449.787 1096.7C453.679 1096.6 456.773 1095 456.773 1095C451.284 1092.5 447.891 1088.5 447.891 1088.5C451.982 1092 463.06 1087.8 463.06 1087.8C452.581 1086.9 441.504 1077 437.212 1072.7C441.204 1075.8 445.895 1074.2 445.895 1074.2C438.709 1074.6 434.817 1064.6 434.817 1064.6C440.905 1073.6 457.671 1069 457.671 1069C444.098 1069.5 434.218 1049.2 434.218 1049.2C440.905 1057.1 452.781 1052.7 452.781 1052.7C441.404 1052.4 438.809 1042.7 438.809 1042.7C442.601 1044.5 443.899 1043.2 443.899 1043.2C439.508 1043.3 436.314 1038.4 436.314 1038.4C443.2 1044.2 451.882 1038.8 451.882 1038.8C444.996 1040.3 437.013 1026.7 437.013 1026.7C440.306 1029.1 446.294 1026.7 446.294 1026.7C443.499 1027.4 438.21 1024.5 434.717 1022.2C442.002 1025.6 451.882 1023.2 451.882 1023.2C440.106 1021.6 433.52 1013 433.52 1013C437.711 1014.8 440.705 1013.8 440.705 1013.8C432.123 1013.7 429.029 1006.1 429.029 1006.1C430.226 1007.7 436.015 1007.9 436.015 1007.9C434.218 1007.9 430.925 1004.9 430.925 1004.9C435.516 1007 443.1 1005.2 443.1 1005.2C428.031 1005.2 425.336 991 427.432 993.4C429.528 995.8 432.622 994 432.622 994C427.033 991.6 424.438 984 423.34 977.9V969.4C423.34 969.4 423.241 971.7 422.841 974.9C422.442 971.7 422.342 969.4 422.342 969.4V977.9C421.145 984 418.65 991.6 413.061 994C413.061 994 416.155 995.8 418.251 993.4C420.346 991 417.652 1005.2 402.583 1005.2C402.583 1005.2 410.167 1007 414.758 1004.9C414.758 1004.9 411.365 1007.9 409.668 1007.9C409.668 1007.9 415.456 1007.8 416.654 1006.1C416.654 1006.1 413.56 1013.6 404.978 1013.8C404.978 1013.8 407.872 1014.7 412.163 1013C412.163 1013 405.576 1021.6 393.8 1023.2C393.8 1023.2 403.68 1025.6 410.966 1022.2C407.373 1024.4 402.084 1027.3 399.389 1026.7C399.389 1026.7 405.377 1029.1 408.67 1026.7C408.67 1026.7 400.686 1040.3 393.8 1038.8C393.8 1038.8 402.583 1044.2 409.369 1038.4C409.369 1038.4 406.175 1043.4 401.784 1043.2C401.784 1043.2 403.082 1044.4 406.874 1042.7C406.874 1042.7 404.279 1052.4 392.902 1052.7C392.902 1052.7 404.678 1057.1 411.465 1049.2C411.465 1049.2 401.585 1069.5 388.012 1069C388.012 1069 404.778 1073.6 410.866 1064.6C410.866 1064.6 406.974 1074.6 399.788 1074.2C399.788 1074.2 404.479 1075.8 408.471 1072.7C404.179 1077 393.102 1086.9 382.623 1087.8C382.623 1087.8 393.701 1092 397.792 1088.5C397.792 1088.5 394.399 1092.5 388.91 1095C388.91 1095 392.004 1096.5 395.896 1096.7C394.798 1097.7 393.102 1098.7 390.906 1099.1C390.906 1099.1 395.198 1099.6 398.69 1098.5C396.595 1100.3 394.2 1102.2 391.705 1104C389.609 1105.1 386.914 1106.1 384.819 1106.4C384.819 1106.4 385.817 1106.8 387.413 1106.9C383.621 1109.3 379.729 1111.3 376.236 1112.1C375.837 1112.1 389.509 1114.1 396.395 1111.6ZM443.899 1117.6C443.799 1117.4 443.699 1117.4 443.699 1117.4C443.799 1117.4 443.799 1117.5 443.899 1117.6ZM401.485 1117.3C401.485 1117.3 401.485 1117.4 401.385 1117.5C401.385 1117.5 401.385 1117.4 401.485 1117.3Z" fill="url(#paint10_linear)"/>
<path d="M290.909 1082.3C279.932 1083.2 261.669 1057.2 261.669 1057.2C270.551 1069.1 279.932 1065.5 279.932 1065.5C275.84 1065.4 270.351 1061.5 266.659 1058.5C275.94 1064.8 287.317 1061.5 287.317 1061.5C276.938 1061 267.856 1048.1 267.856 1048.1C276.638 1055.3 290.809 1054.4 290.809 1054.4C282.327 1052.9 267.158 1045.1 257.078 1039.6C269.553 1042.9 288.015 1041.7 288.015 1041.7C256.379 1036.1 244.803 1019.6 244.803 1019.6C250.392 1025.4 269.153 1028.3 272.048 1028.7C267.557 1028 259.174 1024.1 253.086 1021C260.97 1023.6 270.85 1023.9 270.85 1023.9C261.669 1022.1 252.288 1011.9 247.298 1005.5C257.178 1016.4 269.453 1013.7 269.453 1013.7C259.573 1012.6 249.793 998.1 244.504 988.9C249.194 995.5 253.685 995.4 253.685 995.4C249.593 994.6 245.302 982.5 245.302 982.5C254.383 997.6 267.856 996.5 267.856 996.5C256.479 995.6 245.502 978.8 245.502 978.8C252.587 988.6 264.962 984.2 264.962 984.2C250.99 983.3 242.308 961.3 242.308 961.3C246.599 966.9 255.681 967 258.375 966.9C254.483 967 250.491 965 247.697 963C254.184 966.1 263.066 964.4 263.066 964.4C255.88 964.1 244.903 946.5 244.903 946.5C251.39 951.9 259.373 948.4 259.373 948.4C251.29 948.3 244.104 937.2 244.104 937.2C249.493 944.4 259.373 942.2 259.373 942.2C248.495 942.4 238.416 925 238.416 925C242.607 932.1 248.895 929.2 248.895 929.2C241.51 929.1 238.017 921 238.017 921C243.506 928.2 254.184 924.2 254.184 924.2C237.418 920.8 233.626 908.3 233.626 908.3C239.314 916.4 248.994 913 248.994 913C239.015 914.3 233.626 906.2 233.626 906.2C240.312 915.4 254.583 910.1 254.583 910.1C241.011 910.9 233.027 896.3 233.027 896.3C235.522 899.7 240.112 898.3 240.112 898.3C236.32 899 230.233 890 230.233 890C235.721 896.8 246.001 892 246.001 892C236.819 895.1 219.055 867.9 219.055 867.9C219.055 867.9 201.291 895.1 192.11 892C192.11 892 202.289 896.7 207.878 890C207.878 890 201.79 899 197.998 898.3C197.998 898.3 202.589 899.6 205.084 896.3C205.084 896.3 197.1 910.9 183.527 910.1C183.527 910.1 197.798 915.4 204.485 906.2C204.485 906.2 199.196 914.3 189.116 913C189.116 913 198.697 916.4 204.485 908.3C204.485 908.3 200.693 920.8 183.927 924.2C183.927 924.2 194.505 928.2 200.094 921C200.094 921 196.601 929.1 189.216 929.2C189.216 929.2 195.503 932.1 199.695 925C199.695 925 189.615 942.4 178.737 942.2C178.737 942.2 188.517 944.4 194.006 937.2C194.006 937.2 186.821 948.3 178.737 948.4C178.737 948.4 186.821 951.9 193.208 946.5C193.208 946.5 182.23 964.1 175.045 964.4C175.045 964.4 183.927 966.1 190.413 963C187.519 965 183.627 967 179.735 966.9C182.43 967 191.511 966.9 195.802 961.3C195.802 961.3 187.02 983.3 173.148 984.2C173.148 984.2 185.523 988.7 192.609 978.8C192.609 978.8 181.531 995.5 170.254 996.5C170.254 996.5 183.727 997.6 192.809 982.5C192.809 982.5 188.517 994.6 184.426 995.4C184.426 995.4 188.916 995.5 193.607 988.9C188.417 998 178.538 1012.6 168.658 1013.7C168.658 1013.7 180.933 1016.4 190.813 1005.5C185.823 1011.8 176.442 1022.1 167.26 1023.9C167.26 1023.9 177.041 1023.6 185.024 1021C178.937 1024.1 170.554 1028 166.063 1028.7C168.957 1028.3 187.619 1025.4 193.308 1019.6C193.308 1019.6 181.731 1036.1 150.095 1041.7C150.095 1041.7 168.558 1042.9 181.032 1039.6C170.953 1045.1 155.784 1052.9 147.301 1054.4C147.301 1054.4 161.572 1055.3 170.254 1048.1C170.254 1048.1 161.173 1061 150.794 1061.5C150.794 1061.5 162.171 1064.8 171.452 1058.5C167.759 1061.5 162.271 1065.4 158.179 1065.5C158.179 1065.5 167.56 1069.1 176.442 1057.2C176.442 1057.2 158.179 1083.3 147.201 1082.3C147.201 1082.3 162.37 1083.9 174.047 1076.9C170.853 1080.3 167.26 1083.8 163.967 1086.5H217.957H220.852H274.842C271.549 1083.8 267.956 1080.3 264.762 1076.9C275.74 1083.9 290.909 1082.3 290.909 1082.3Z" fill="url(#paint11_linear)"/>
<path d="M356.077 1126.2C349.391 1130.4 336.117 1138 328.832 1137.8C328.832 1137.8 330.928 1138.1 334.221 1138.4H449.787C452.98 1138.1 455.176 1137.8 455.176 1137.8C447.89 1137.9 434.617 1130.3 427.931 1126.2C437.312 1129.6 456.273 1126.9 456.273 1126.9C451.583 1125.8 446.194 1123.2 440.905 1119.8C443.1 1119.7 444.497 1119.2 444.497 1119.2C441.603 1118.8 438.011 1117.3 435.116 1115.9C431.723 1113.4 428.43 1110.8 425.536 1108.4C430.326 1110 436.214 1109.2 436.214 1109.2C433.12 1108.7 430.925 1107.3 429.328 1105.9C434.617 1105.7 438.909 1103.6 438.909 1103.6C431.324 1100.2 426.733 1094.7 426.733 1094.7C432.322 1099.5 447.491 1093.8 447.491 1093.8C433.12 1092.5 417.951 1078.9 411.963 1073.1C417.352 1077.3 423.839 1075.1 423.839 1075.1C414.059 1075.7 408.67 1062 408.67 1062C417.053 1074.4 440.106 1068.1 440.106 1068.1C421.544 1068.8 407.872 1040.9 407.872 1040.9C417.053 1051.8 433.32 1045.7 433.32 1045.7C417.752 1045.3 414.159 1032 414.159 1032C419.348 1034.4 421.145 1032.7 421.145 1032.7C415.157 1032.9 410.766 1026.1 410.766 1026.1C420.147 1034 432.122 1026.7 432.122 1026.7C422.742 1028.7 411.764 1010.1 411.764 1010.1C416.255 1013.4 424.538 1010.1 424.538 1010.1C420.746 1011 413.46 1007.1 408.67 1004C418.65 1008.6 432.222 1005.3 432.222 1005.3C416.055 1003.1 406.974 991.3 406.974 991.3C412.762 993.7 416.754 992.4 416.754 992.4C404.978 992.2 400.786 981.9 400.786 981.9C402.383 984.1 410.367 984.3 410.367 984.3C407.972 984.3 403.381 980.2 403.381 980.2C409.668 983.1 420.047 980.6 420.047 980.6C399.389 980.6 395.796 961.1 398.591 964.4C401.385 967.7 405.676 965.2 405.676 965.2C397.992 961.9 394.499 951.5 392.902 943.1V931.5C392.902 931.5 392.802 934.6 392.204 939C391.605 934.6 391.505 931.5 391.505 931.5V943.1C389.908 951.5 386.415 961.9 378.731 965.2C378.731 965.2 382.922 967.7 385.817 964.4C388.611 961.1 385.018 980.6 364.36 980.6C364.36 980.6 374.739 983.1 381.026 980.2C381.026 980.2 376.436 984.3 374.04 984.3C374.04 984.3 382.024 984.1 383.621 981.9C383.621 981.9 379.429 992.2 367.653 992.4C367.653 992.4 371.645 993.7 377.434 991.3C377.434 991.3 368.452 1003.1 352.185 1005.3C352.185 1005.3 365.757 1008.6 375.737 1004C370.847 1007.1 363.562 1011 359.869 1010.1C359.869 1010.1 368.152 1013.4 372.643 1010.1C372.643 1010.1 361.666 1028.8 352.285 1026.7C352.285 1026.7 364.26 1034.1 373.641 1026.1C373.641 1026.1 369.25 1032.9 363.262 1032.7C363.262 1032.7 365.059 1034.4 370.248 1032C370.248 1032 366.655 1045.3 351.087 1045.7C351.087 1045.7 367.254 1051.8 376.535 1040.9C376.535 1040.9 362.963 1068.8 344.301 1068.1C344.301 1068.1 367.254 1074.4 375.737 1062C375.737 1062 370.348 1075.7 360.568 1075.1C360.568 1075.1 367.055 1077.3 372.444 1073.1C366.556 1078.9 351.287 1092.5 336.916 1093.8C336.916 1093.8 352.085 1099.5 357.674 1094.7C357.674 1094.7 353.083 1100.1 345.498 1103.6C345.498 1103.6 349.69 1105.7 355.079 1105.9C353.482 1107.3 351.287 1108.7 348.193 1109.2C348.193 1109.2 354.081 1109.9 358.871 1108.4C355.977 1110.8 352.684 1113.4 349.291 1115.9C346.397 1117.3 342.804 1118.8 339.91 1119.2C339.91 1119.2 341.307 1119.8 343.502 1119.8C338.213 1123.1 332.924 1125.8 328.134 1126.9C327.734 1126.9 346.596 1129.6 356.077 1126.2ZM421.145 1134.4C420.945 1134.2 420.945 1134.1 420.945 1134.1C420.945 1134.2 421.045 1134.3 421.145 1134.4ZM362.963 1134.1C362.963 1134.1 362.863 1134.2 362.763 1134.4C362.763 1134.3 362.863 1134.2 362.963 1134.1Z" fill="url(#paint12_linear)"/>
<path d="M837 1003.9C829.216 1003.2 821.531 1003 813.847 1003.4C813.348 1003.3 812.949 1003.1 812.45 1003C808.159 1001.9 803.368 1002.6 799.476 1004.6C763.649 1009.1 728.919 1023.6 696.984 1040.1C676.027 1050.9 655.568 1062.8 634.611 1073.6C612.955 1084.8 594.193 1093.4 570.741 1099.9C559.164 1103.1 547.388 1105.6 535.512 1107.3C527.03 1108.5 512.359 1109.6 501.481 1109.9C489.406 1110.2 477.43 1109.9 465.355 1109.1C459.666 1108.7 453.978 1108.2 448.289 1107.6C441.803 1106.9 436.813 1106.3 431.823 1105.6C382.623 1098.5 334.82 1085 287.017 1071.8C237.118 1058 186.821 1044.9 135.225 1039.1C110.076 1036.3 84.7279 1035.4 59.579 1037.5C39.7193 1039.1 18.5623 1041.5 0 1049.5V1459.4C0 1478 15.0694 1493 33.5319 1493H803.468C822.03 1493 837 1477.9 837 1459.4V1003.9V1003.9Z" fill="url(#paint13_linear)"/>
<path d="M685.109 1132C674.131 1132.9 655.868 1106.9 655.868 1106.9C664.75 1118.8 674.131 1115.2 674.131 1115.2C670.039 1115.1 664.55 1111.2 660.858 1108.2C670.139 1114.5 681.516 1111.2 681.516 1111.2C671.137 1110.7 662.055 1097.8 662.055 1097.8C670.837 1105 685.009 1104.1 685.009 1104.1C676.526 1102.6 661.357 1094.8 651.277 1089.3C663.752 1092.6 682.214 1091.4 682.214 1091.4C650.579 1085.8 639.002 1069.3 639.002 1069.3C644.591 1075.1 663.353 1078 666.247 1078.4C661.756 1077.7 653.373 1073.8 647.285 1070.7C655.169 1073.3 665.049 1073.6 665.049 1073.6C655.868 1071.8 646.487 1061.6 641.497 1055.2C651.377 1066.1 663.652 1063.4 663.652 1063.4C653.772 1062.3 643.992 1047.8 638.703 1038.6C643.393 1045.2 647.884 1045.1 647.884 1045.1C643.792 1044.3 639.501 1032.2 639.501 1032.2C648.583 1047.3 662.055 1046.2 662.055 1046.2C650.678 1045.3 639.701 1028.5 639.701 1028.5C646.786 1038.3 659.161 1033.9 659.161 1033.9C645.19 1033 636.507 1011 636.507 1011C640.798 1016.6 649.88 1016.7 652.575 1016.6C648.682 1016.7 644.691 1014.7 641.896 1012.7C648.383 1015.8 657.265 1014.1 657.265 1014.1C650.08 1013.8 639.102 996.2 639.102 996.2C645.589 1001.6 653.573 998.1 653.573 998.1C645.489 998 638.304 986.9 638.304 986.9C643.693 994.1 653.573 991.9 653.573 991.9C642.695 992.1 632.615 974.7 632.615 974.7C636.807 981.8 643.094 978.9 643.094 978.9C635.709 978.8 632.216 970.7 632.216 970.7C637.705 977.9 648.383 973.9 648.383 973.9C631.617 970.5 627.825 958 627.825 958C633.513 966.1 643.194 962.7 643.194 962.7C633.214 964 627.825 955.9 627.825 955.9C634.511 965.1 648.782 959.8 648.782 959.8C635.21 960.6 627.226 946 627.226 946C629.721 949.4 634.312 948 634.312 948C630.519 948.7 624.432 939.7 624.432 939.7C629.921 946.5 640.2 941.7 640.2 941.7C631.018 944.8 613.254 917.6 613.254 917.6C613.254 917.6 595.491 944.8 586.309 941.7C586.309 941.7 596.488 946.4 602.077 939.7C602.077 939.7 595.989 948.7 592.197 948C592.197 948 596.788 949.3 599.283 946C599.283 946 591.299 960.6 577.727 959.8C577.727 959.8 591.998 965.1 598.684 955.9C598.684 955.9 593.395 964 583.315 962.7C583.315 962.7 592.896 966.1 598.684 958C598.684 958 594.892 970.5 578.126 973.9C578.126 973.9 588.704 977.9 594.293 970.7C594.293 970.7 590.8 978.8 583.415 978.9C583.415 978.9 589.702 981.8 593.894 974.7C593.894 974.7 583.814 992.1 572.936 991.9C572.936 991.9 582.716 994.1 588.205 986.9C588.205 986.9 581.02 998 572.936 998.1C572.936 998.1 581.02 1001.6 587.407 996.2C587.407 996.2 576.429 1013.8 569.244 1014.1C569.244 1014.1 578.126 1015.8 584.613 1012.7C581.718 1014.7 577.826 1016.7 573.934 1016.6C576.629 1016.7 585.71 1016.6 590.002 1011C590.002 1011 581.22 1033 567.348 1033.9C567.348 1033.9 579.723 1038.4 586.808 1028.5C586.808 1028.5 575.731 1045.2 564.454 1046.2C564.454 1046.2 577.926 1047.3 587.008 1032.2C587.008 1032.2 582.716 1044.3 578.625 1045.1C578.625 1045.1 583.116 1045.2 587.806 1038.6C582.617 1047.7 572.737 1062.3 562.857 1063.4C562.857 1063.4 575.132 1066.1 585.012 1055.2C580.022 1061.5 570.641 1071.8 561.46 1073.6C561.46 1073.6 571.24 1073.3 579.224 1070.7C573.136 1073.8 564.753 1077.7 560.262 1078.4C563.156 1078 581.818 1075.1 587.507 1069.3C587.507 1069.3 575.93 1085.8 544.294 1091.4C544.294 1091.4 562.757 1092.6 575.232 1089.3C565.152 1094.8 549.983 1102.6 541.5 1104.1C541.5 1104.1 555.771 1105 564.454 1097.8C564.454 1097.8 555.372 1110.7 544.993 1111.2C544.993 1111.2 556.37 1114.5 565.651 1108.2C561.959 1111.2 556.47 1115.1 552.378 1115.2C552.378 1115.2 561.759 1118.8 570.641 1106.9C570.641 1106.9 552.378 1133 541.4 1132C541.4 1132 556.57 1133.6 568.246 1126.6C565.052 1130 561.46 1133.5 558.166 1136.2H612.157H615.051H669.041C665.748 1133.5 662.155 1130 658.962 1126.6C669.939 1133.6 685.109 1132 685.109 1132Z" fill="url(#paint14_linear)"/>
<path d="M656.367 1132.6C647.585 1138.1 630.12 1148 620.54 1147.9C620.54 1147.9 623.334 1148.3 627.625 1148.7H779.417C783.608 1148.3 786.502 1147.9 786.502 1147.9C776.922 1148.1 759.557 1138.1 750.675 1132.6C763.05 1137.1 787.8 1133.5 787.8 1133.5C781.612 1132.1 774.627 1128.6 767.641 1124.2C770.535 1124.1 772.331 1123.4 772.331 1123.4C768.539 1122.9 763.749 1121 759.956 1119.1C755.466 1115.9 751.174 1112.5 747.382 1109.3C753.669 1111.3 761.354 1110.4 761.354 1110.4C757.362 1109.7 754.368 1107.9 752.372 1106C759.358 1105.8 764.946 1103 764.946 1103C754.967 1098.5 748.979 1091.4 748.979 1091.4C756.364 1097.7 776.323 1090.2 776.323 1090.2C757.461 1088.5 737.502 1070.7 729.718 1063C736.903 1068.5 745.386 1065.7 745.386 1065.7C732.512 1066.4 725.427 1048.5 725.427 1048.5C736.504 1064.7 766.643 1056.5 766.643 1056.5C742.193 1057.5 724.329 1020.9 724.329 1020.9C736.404 1035.2 757.661 1027.2 757.661 1027.2C737.203 1026.7 732.412 1009.3 732.412 1009.3C739.199 1012.5 741.594 1010.3 741.594 1010.3C733.71 1010.5 727.921 1001.6 727.921 1001.6C740.296 1012 756.064 1002.3 756.064 1002.3C743.689 1005 729.418 980.5 729.418 980.5C735.306 984.9 746.085 980.5 746.085 980.5C741.095 981.7 731.614 976.5 725.227 972.5C738.3 978.6 756.064 974.2 756.064 974.2C734.807 971.3 722.932 955.8 722.932 955.8C730.516 959 735.805 957.3 735.805 957.3C720.337 957.1 714.848 943.5 714.848 943.5C716.944 946.4 727.422 946.7 727.422 946.7C724.229 946.7 718.241 941.4 718.241 941.4C726.524 945.2 740.097 941.9 740.097 941.9C712.952 941.9 708.162 916.3 711.954 920.6C715.646 925 721.235 921.7 721.235 921.7C711.156 917.4 706.565 903.7 704.469 892.7V877.5C704.469 877.5 704.369 881.6 703.571 887.3C702.773 881.6 702.673 877.5 702.673 877.5V892.7C700.577 903.7 695.986 917.3 685.907 921.7C685.907 921.7 691.495 925 695.188 920.6C698.88 916.2 694.19 941.9 667.045 941.9C667.045 941.9 680.618 945.2 688.901 941.4C688.901 941.4 682.913 946.7 679.719 946.7C679.719 946.7 690.198 946.5 692.294 943.5C692.294 943.5 686.805 957.1 671.336 957.3C671.336 957.3 676.626 959 684.21 955.8C684.21 955.8 672.434 971.3 651.078 974.2C651.078 974.2 668.841 978.6 681.915 972.5C675.528 976.5 665.947 981.8 661.057 980.5C661.057 980.5 671.935 984.9 677.723 980.5C677.723 980.5 663.353 1005 651.078 1002.3C651.078 1002.3 666.846 1012 679.22 1001.6C679.22 1001.6 673.432 1010.6 665.548 1010.3C665.548 1010.3 667.943 1012.5 674.73 1009.3C674.73 1009.3 670.039 1026.8 649.481 1027.2C649.481 1027.2 670.738 1035.2 682.813 1020.9C682.813 1020.9 664.949 1057.5 640.499 1056.5C640.499 1056.5 670.738 1064.7 681.715 1048.5C681.715 1048.5 674.63 1066.4 661.756 1065.7C661.756 1065.7 670.239 1068.5 677.424 1063C669.64 1070.7 649.68 1088.5 630.819 1090.2C630.819 1090.2 650.778 1097.7 658.163 1091.4C658.163 1091.4 652.076 1098.5 642.196 1103C642.196 1103 647.784 1105.8 654.77 1106C652.774 1107.8 649.78 1109.6 645.788 1110.4C645.788 1110.4 653.473 1111.4 659.76 1109.3C655.968 1112.5 651.676 1115.9 647.185 1119.1C643.393 1121 638.603 1123 634.811 1123.4C634.811 1123.4 636.707 1124.1 639.501 1124.2C632.615 1128.6 625.629 1132.1 619.342 1133.5C619.142 1133.5 643.992 1137.1 656.367 1132.6ZM741.793 1143.4C741.594 1143.1 741.494 1143 741.494 1143C741.594 1143.1 741.694 1143.2 741.793 1143.4ZM665.349 1142.9C665.349 1142.9 665.249 1143.1 665.049 1143.3C665.149 1143.2 665.249 1143.1 665.349 1142.9Z" fill="url(#paint15_linear)"/>
<path d="M836.002 1066.1C806.761 1056.8 795.584 1040.9 795.584 1040.9C803.069 1048.6 827.819 1052.4 831.611 1053C825.623 1052.1 814.546 1046.9 806.462 1042.8C816.941 1046.2 829.914 1046.6 829.914 1046.6C817.739 1044.2 805.364 1030.6 798.678 1022.2C811.751 1036.7 828.018 1033.1 828.018 1033.1C814.945 1031.7 801.971 1012.4 794.985 1000.3C801.173 1009.1 807.161 1009 807.161 1009C801.672 1008 795.983 991.9 795.983 991.9C807.959 1011.8 825.823 1010.4 825.823 1010.4C810.753 1009.2 796.183 987 796.183 987C805.564 1000 822.03 994.1 822.03 994.1C803.568 992.9 791.991 963.8 791.991 963.8C797.68 971.2 809.655 971.3 813.248 971.2C808.059 971.3 802.869 968.6 799.077 966C807.66 970.1 819.436 967.9 819.436 967.9C809.855 967.5 795.285 944.2 795.285 944.2C803.767 951.4 814.546 946.8 814.546 946.8C803.867 946.7 794.387 932 794.387 932C801.572 941.5 814.546 938.6 814.546 938.6C800.175 938.9 786.802 915.8 786.802 915.8C792.391 925.2 800.774 921.4 800.774 921.4C790.993 921.3 786.403 910.5 786.403 910.5C793.688 920 807.759 914.7 807.759 914.7C785.505 910.2 780.515 893.7 780.515 893.7C788.099 904.4 800.873 899.9 800.873 899.9C787.6 901.7 780.515 890.9 780.515 890.9C789.297 903.1 808.258 896.1 808.258 896.1C790.295 897.2 779.716 877.8 779.716 877.8C783.01 882.3 789.097 880.5 789.097 880.5C784.107 881.4 775.924 869.5 775.924 869.5C783.209 878.5 796.782 872.2 796.782 872.2C784.606 876.3 761.054 840.3 761.054 840.3C761.054 840.3 737.502 876.3 725.327 872.2C725.327 872.2 738.899 878.4 746.184 869.5C746.184 869.5 738.101 881.4 733.011 880.5C733.011 880.5 739.099 882.3 742.392 877.8C742.392 877.8 731.814 897.2 713.85 896.1C713.85 896.1 732.812 903.2 741.594 890.9C741.594 890.9 734.508 901.6 721.235 899.9C721.235 899.9 734.009 904.4 741.594 893.7C741.594 893.7 736.604 910.3 714.349 914.7C714.349 914.7 728.421 920 735.706 910.5C735.706 910.5 731.115 921.2 721.335 921.4C721.335 921.4 729.718 925.2 735.307 915.8C735.307 915.8 721.934 938.9 707.563 938.6C707.563 938.6 720.537 941.4 727.722 932C727.722 932 718.241 946.7 707.563 946.8C707.563 946.8 718.241 951.4 726.824 944.2C726.824 944.2 712.253 967.5 702.673 967.9C702.673 967.9 714.449 970.2 723.031 966C719.239 968.6 714.05 971.3 708.86 971.2C712.453 971.3 724.528 971.2 730.117 963.8C730.117 963.8 718.541 992.9 700.078 994.1C700.078 994.1 716.545 1000 725.926 987C725.926 987 711.255 1009.2 696.286 1010.4C696.286 1010.4 714.149 1011.8 726.125 991.9C726.125 991.9 720.437 1008 714.948 1009C714.948 1009 720.936 1009.1 727.123 1000.3C720.237 1012.4 707.164 1031.7 694.09 1033.1C694.09 1033.1 710.357 1036.6 723.431 1022.2C716.744 1030.6 704.369 1044.2 692.194 1046.6C692.194 1046.6 705.168 1046.2 715.646 1042.8C707.563 1046.9 696.485 1052.1 690.498 1053C694.29 1052.5 719.04 1048.6 726.524 1040.9C726.524 1040.9 711.156 1062.8 669.241 1070.2C669.241 1070.2 693.691 1071.8 710.257 1067.4C696.885 1074.7 676.825 1085 665.548 1087.1C665.548 1087.1 684.41 1088.3 695.986 1078.8C695.986 1078.8 684.011 1095.9 670.139 1096.5C670.139 1096.5 685.208 1100.8 697.483 1092.5C692.593 1096.5 685.308 1101.7 679.919 1101.8C679.919 1101.8 692.394 1106.5 704.07 1090.8C704.07 1090.8 679.819 1125.3 665.349 1124.1C665.349 1124.1 685.408 1126.2 700.876 1116.9C696.585 1121.4 691.895 1126 687.504 1129.6H759.058H762.95H834.505C830.114 1126 825.423 1121.4 821.132 1116.9C825.922 1119.7 831.112 1121.5 836.002 1122.6V1112.1C826.222 1102.5 817.939 1090.8 817.939 1090.8C824.525 1099.6 831.212 1102 836.002 1102.4V1100.1C831.91 1098.2 827.719 1095.1 824.525 1092.5C828.218 1095 832.21 1096.4 836.002 1097.1V1089.4C830.014 1084.5 826.122 1078.9 826.122 1078.9C829.116 1081.4 832.509 1083.1 836.002 1084.3V1079.8C827.619 1076 818.837 1071.4 811.851 1067.5C819.236 1069.5 828.318 1070.2 836.002 1070.5V1066.1V1066.1Z" fill="url(#paint16_linear)"/>
<path d="M287.217 1174.3C268.954 1175.8 238.416 1132.4 238.416 1132.4C253.186 1152.2 268.854 1146.2 268.854 1146.2C262.068 1146 252.786 1139.5 246.699 1134.5C262.167 1145.1 281.129 1139.6 281.129 1139.6C263.764 1138.8 248.695 1117.3 248.695 1117.3C263.265 1129.3 287.017 1127.8 287.017 1127.8C272.846 1125.2 247.597 1112.3 230.731 1103.1C251.589 1108.6 282.426 1106.6 282.426 1106.6C229.634 1097.2 210.273 1069.7 210.273 1069.7C219.654 1079.4 250.89 1084.2 255.681 1084.9C248.096 1083.7 234.224 1077.2 224.045 1072C237.218 1076.3 253.585 1076.8 253.585 1076.8C238.216 1073.8 222.648 1056.7 214.265 1046.1C230.631 1064.3 251.19 1059.9 251.19 1059.9C234.723 1058.1 218.356 1033.8 209.674 1018.6C217.458 1029.7 224.943 1029.5 224.943 1029.5C218.057 1028.2 210.872 1008 210.872 1008C225.941 1033.1 248.495 1031.3 248.495 1031.3C229.534 1029.8 211.171 1001.8 211.171 1001.8C222.947 1018.2 243.605 1010.8 243.605 1010.8C220.352 1009.3 205.782 972.6 205.782 972.6C212.868 981.9 228.037 982.1 232.627 981.9C226.041 982 219.554 978.7 214.764 975.4C225.542 980.6 240.312 977.8 240.312 977.8C228.336 977.3 209.973 947.9 209.973 947.9C220.752 957 234.224 951.1 234.224 951.1C220.752 950.9 208.776 932.5 208.776 932.5C217.857 944.5 234.224 940.9 234.224 940.9C216.161 941.2 199.295 912.2 199.295 912.2C206.281 924 216.859 919.2 216.859 919.2C204.584 919 198.796 905.5 198.796 905.5C207.977 917.5 225.741 910.8 225.741 910.8C197.798 905.2 191.511 884.3 191.511 884.3C201.091 897.8 217.059 892.2 217.059 892.2C200.393 894.4 191.511 880.9 191.511 880.9C202.588 896.3 226.44 887.4 226.44 887.4C203.786 888.8 190.513 864.3 190.513 864.3C194.605 869.9 202.289 867.7 202.289 867.7C196.002 868.9 185.723 853.9 185.723 853.9C194.904 865.2 211.969 857.3 211.969 857.3C196.601 862.4 166.961 817.1 166.961 817.1C166.961 817.1 137.321 862.4 121.952 857.3C121.952 857.3 139.018 865.2 148.199 853.9C148.199 853.9 137.92 868.9 131.633 867.7C131.633 867.7 139.317 869.9 143.409 864.3C143.409 864.3 130.136 888.7 107.482 887.4C107.482 887.4 131.333 896.3 142.411 880.9C142.411 880.9 133.529 894.4 116.863 892.2C116.863 892.2 132.93 897.8 142.411 884.3C142.411 884.3 136.123 905.1 108.18 910.8C108.18 910.8 125.944 917.5 135.125 905.5C135.125 905.5 129.337 919 117.062 919.2C117.062 919.2 127.641 924 134.626 912.2C134.626 912.2 117.761 941.2 99.6974 940.9C99.6974 940.9 116.064 944.5 125.146 932.5C125.146 932.5 113.17 951 99.6974 951.1C99.6974 951.1 113.17 956.9 123.948 947.9C123.948 947.9 105.585 977.3 93.6098 977.8C93.6098 977.8 108.38 980.6 119.158 975.4C114.368 978.7 107.881 982.1 101.294 981.9C105.885 982.1 120.954 981.9 128.14 972.6C128.14 972.6 113.569 1009.2 90.3165 1010.8C90.3165 1010.8 111.074 1018.2 122.751 1001.8C122.751 1001.8 104.288 1029.7 85.4264 1031.3C85.4264 1031.3 107.981 1033.1 123.05 1008C123.05 1008 115.865 1028.2 108.979 1029.5C108.979 1029.5 116.463 1029.7 124.248 1018.6C115.565 1033.8 99.0987 1058.2 82.7319 1059.9C82.7319 1059.9 103.19 1064.4 119.657 1046.1C111.274 1056.7 95.7055 1073.8 80.3368 1076.8C80.3368 1076.8 96.7035 1076.3 109.877 1072C99.6974 1077.2 85.7258 1083.7 78.241 1084.9C83.0313 1084.2 114.268 1079.4 123.649 1069.7C123.649 1069.7 104.288 1097.2 51.4954 1106.6C51.4954 1106.6 82.3327 1108.7 103.19 1103.1C86.4244 1112.3 61.0759 1125.3 46.9047 1127.8C46.9047 1127.8 70.6564 1129.3 85.2268 1117.3C85.2268 1117.3 70.1574 1138.8 52.7927 1139.6C52.7927 1139.6 71.7542 1145.1 87.2228 1134.5C81.1351 1139.5 71.854 1146 65.0678 1146.2C65.0678 1146.2 80.7359 1152.2 95.5059 1132.4C95.5059 1132.4 64.968 1175.9 46.7051 1174.3C46.7051 1174.3 71.9538 1176.9 91.4143 1165.3C86.0252 1171 80.1372 1176.8 74.5485 1181.3H164.665H169.556H259.273C253.685 1176.8 247.797 1170.9 242.408 1165.3C261.968 1176.9 287.217 1174.3 287.217 1174.3Z" fill="url(#paint17_linear)"/>
<path d="M295.999 1170.7C286.019 1176.9 266.26 1188.2 255.382 1188C255.382 1188 258.575 1188.5 263.365 1188.9H435.416C440.206 1188.4 443.4 1188 443.4 1188C432.622 1188.2 412.762 1176.9 402.782 1170.7C416.854 1175.8 444.897 1171.7 444.897 1171.7C437.811 1170.1 429.927 1166.1 422.043 1161.2C425.237 1161.1 427.432 1160.2 427.432 1160.2C423.141 1159.7 417.752 1157.4 413.361 1155.3C408.271 1151.6 403.381 1147.8 399.09 1144.2C406.175 1146.5 414.957 1145.4 414.957 1145.4C410.367 1144.6 407.073 1142.6 404.778 1140.5C412.762 1140.2 419.049 1137.1 419.049 1137.1C407.772 1132 400.886 1123.9 400.886 1123.9C409.269 1131 431.823 1122.5 431.823 1122.5C410.367 1120.6 387.813 1100.4 378.931 1091.7C387.014 1098 396.695 1094.7 396.695 1094.7C382.124 1095.5 374.041 1075.2 374.041 1075.2C386.515 1093.6 420.746 1084.3 420.746 1084.3C393.102 1085.4 372.843 1043.9 372.843 1043.9C386.515 1060.1 410.666 1051 410.666 1051C387.413 1050.5 382.124 1030.7 382.124 1030.7C389.908 1034.3 392.503 1031.8 392.503 1031.8C383.621 1032.1 377.035 1021.9 377.035 1021.9C391.006 1033.7 408.87 1022.7 408.87 1022.7C394.898 1025.7 378.631 998 378.631 998C385.318 1002.9 397.593 998 397.593 998C392.004 999.4 381.126 993.5 373.941 988.9C388.811 995.8 408.97 990.9 408.97 990.9C384.819 987.6 371.446 970 371.446 970C380.128 973.6 386.016 971.6 386.016 971.6C368.452 971.3 362.165 955.9 362.165 955.9C364.56 959.2 376.436 959.5 376.436 959.5C372.843 959.5 366.057 953.5 366.057 953.5C375.438 957.8 390.807 954.1 390.807 954.1C359.969 954.1 354.68 925 358.871 930C363.063 934.9 369.35 931.2 369.35 931.2C357.973 926.3 352.684 910.8 350.289 898.3V881.1C350.289 881.1 350.189 885.7 349.291 892.3C348.393 885.8 348.293 881.1 348.293 881.1V898.3C345.898 910.8 340.708 926.2 329.232 931.2C329.232 931.2 335.519 934.9 339.71 930C343.902 925.1 338.613 954.1 307.775 954.1C307.775 954.1 323.144 957.8 332.525 953.5C332.525 953.5 325.739 959.5 322.146 959.5C322.146 959.5 334.022 959.2 336.417 955.9C336.417 955.9 330.13 971.3 312.565 971.6C312.565 971.6 318.553 973.5 327.136 970C327.136 970 313.763 987.6 289.612 990.9C289.612 990.9 309.771 995.8 324.641 988.9C317.356 993.5 306.578 999.4 300.989 998C300.989 998 313.264 1002.9 319.95 998C319.95 998 303.684 1025.8 289.712 1022.7C289.712 1022.7 307.576 1033.7 321.547 1021.9C321.547 1021.9 314.961 1032.1 306.079 1031.8C306.079 1031.8 308.773 1034.3 316.458 1030.7C316.458 1030.7 311.069 1050.5 287.916 1051C287.916 1051 312.066 1060.1 325.739 1043.9C325.739 1043.9 305.48 1085.4 277.836 1084.3C277.836 1084.3 312.066 1093.6 324.541 1075.2C324.541 1075.2 316.458 1095.5 301.887 1094.7C301.887 1094.7 311.468 1097.9 319.651 1091.7C310.769 1100.4 288.215 1120.6 266.759 1122.5C266.759 1122.5 289.412 1131 297.696 1123.9C297.696 1123.9 290.81 1132 279.533 1137.1C279.533 1137.1 285.82 1140.2 293.804 1140.5C291.508 1142.6 288.115 1144.6 283.624 1145.4C283.624 1145.4 292.406 1146.5 299.492 1144.2C295.201 1147.8 290.311 1151.7 285.221 1155.3C280.83 1157.4 275.541 1159.7 271.15 1160.2C271.15 1160.2 273.245 1161 276.539 1161.2C268.754 1166.1 260.771 1170.1 253.685 1171.7C253.885 1171.7 282.027 1175.8 295.999 1170.7ZM392.902 1183C392.703 1182.7 392.603 1182.5 392.603 1182.5C392.703 1182.6 392.803 1182.8 392.902 1183ZM306.278 1182.5C306.278 1182.5 306.178 1182.7 305.979 1183C306.079 1182.8 306.178 1182.6 306.278 1182.5Z" fill="url(#paint18_linear)"/>
<path d="M837 1459.4V1256.7C818.537 1256.5 799.975 1255.5 781.612 1253.9C770.236 1252.9 758.958 1251.6 747.582 1250.1C747.482 1250.1 747.382 1250.1 747.382 1250.1C747.282 1250.1 747.182 1250.1 747.083 1250.1C745.985 1249.9 744.787 1249.8 743.69 1249.6C740.696 1249.2 737.702 1248.7 734.608 1248.3C728.919 1247.4 723.331 1246.5 717.642 1245.6C672.334 1237.9 627.625 1227.4 583.116 1215.9C495.394 1193.2 408.271 1167 318.653 1152.9C236.22 1139.9 152.59 1137.1 70.6565 1155.5C46.7051 1160.9 22.9534 1168.2 2.41613e-09 1177.4V1459.6C-1.71391e-06 1475.76 -8.0898e-05 1484.15 3.72899 1488.5C7.75438 1493.2 16.1251 1493.2 33.5319 1493.2H803.468C822.03 1493 837 1478 837 1459.4Z" fill="url(#paint19_linear)"/>
<defs>
<linearGradient id="paint0_linear" x1="418.523" y1="884.755" x2="418.523" y2="44.9349" gradientUnits="userSpaceOnUse">
<stop stop-color="#FFFCEB"/>
<stop offset="0.3098" stop-color="#F7DC85"/>
<stop offset="0.6561" stop-color="#EF7886"/>
<stop offset="1" stop-color="#E567AC"/>
</linearGradient>
<linearGradient id="paint1_linear" x1="418.522" y1="1550.96" x2="418.522" y2="1321.02" gradientUnits="userSpaceOnUse">
<stop stop-color="#64467C"/>
<stop offset="1" stop-color="#593B6D"/>
</linearGradient>
<linearGradient id="paint2_linear" x1="597.646" y1="885.533" x2="597.646" y2="46.7474" gradientUnits="userSpaceOnUse">
<stop stop-color="#FFFCEB"/>
<stop offset="0.3098" stop-color="#F9E49D"/>
<stop offset="0.6561" stop-color="#F3989E"/>
<stop offset="1" stop-color="#EB8BBB"/>
</linearGradient>
<linearGradient id="paint3_linear" x1="597.646" y1="885.533" x2="597.646" y2="46.7474" gradientUnits="userSpaceOnUse">
<stop stop-color="#FFFCEB"/>
<stop offset="0.3098" stop-color="#FAEAB0"/>
<stop offset="0.6561" stop-color="#F6B0B0"/>
<stop offset="1" stop-color="#F0A6C6"/>
</linearGradient>
<linearGradient id="paint4_linear" x1="400.515" y1="1151.87" x2="400.515" y2="927.168" gradientUnits="userSpaceOnUse">
<stop stop-color="#C1809A"/>
<stop offset="1" stop-color="#B2709E"/>
</linearGradient>
<linearGradient id="paint5_linear" x1="368.626" y1="1069.98" x2="368.626" y2="786.841" gradientUnits="userSpaceOnUse">
<stop stop-color="#AD6CA1"/>
<stop offset="1" stop-color="#9B5D95"/>
</linearGradient>
<linearGradient id="paint6_linear" x1="496.74" y1="1155.55" x2="496.74" y2="1077.17" gradientUnits="userSpaceOnUse">
<stop stop-color="#AD6CA1"/>
<stop offset="1" stop-color="#9B5D95"/>
</linearGradient>
<linearGradient id="paint7_linear" x1="485.279" y1="986.05" x2="489.006" y2="1013.28" gradientUnits="userSpaceOnUse">
<stop stop-color="#AD6CA1"/>
<stop offset="1" stop-color="#9B5D95"/>
</linearGradient>
<linearGradient id="paint8_linear" x1="556.743" y1="976.179" x2="556.743" y2="1008.25" gradientUnits="userSpaceOnUse">
<stop stop-color="#AD6CA1"/>
<stop offset="1" stop-color="#9B5D95"/>
</linearGradient>
<linearGradient id="paint9_linear" x1="788.952" y1="874.947" x2="788.952" y2="901.345" gradientUnits="userSpaceOnUse">
<stop stop-color="#AD6CA1"/>
<stop offset="1" stop-color="#9B5D95"/>
</linearGradient>
<linearGradient id="paint10_linear" x1="418.904" y1="1002.71" x2="420.367" y2="1045.81" gradientUnits="userSpaceOnUse">
<stop stop-color="#895396"/>
<stop offset="1" stop-color="#784784"/>
</linearGradient>
<linearGradient id="paint11_linear" x1="218.678" y1="899.884" x2="218.678" y2="959.046" gradientUnits="userSpaceOnUse">
<stop stop-color="#895396"/>
<stop offset="1" stop-color="#784784"/>
</linearGradient>
<linearGradient id="paint12_linear" x1="391.936" y1="987.064" x2="391.936" y2="1016.28" gradientUnits="userSpaceOnUse">
<stop stop-color="#895396"/>
<stop offset="1" stop-color="#784784"/>
</linearGradient>
<linearGradient id="paint13_linear" x1="418.523" y1="1284.87" x2="418.523" y2="1152.82" gradientUnits="userSpaceOnUse">
<stop stop-color="#895396"/>
<stop offset="1" stop-color="#784784"/>
</linearGradient>
<linearGradient id="paint14_linear" x1="625.748" y1="951.289" x2="622.088" y2="998.766" gradientUnits="userSpaceOnUse">
<stop stop-color="#895396"/>
<stop offset="1" stop-color="#784784"/>
</linearGradient>
<linearGradient id="paint15_linear" x1="703.441" y1="905.505" x2="703.441" y2="986.365" gradientUnits="userSpaceOnUse">
<stop stop-color="#895396"/>
<stop offset="1" stop-color="#784784"/>
</linearGradient>
<linearGradient id="paint16_linear" x1="755.583" y1="883.243" x2="753.977" y2="957.119" gradientUnits="userSpaceOnUse">
<stop stop-color="#895396"/>
<stop offset="1" stop-color="#784784"/>
</linearGradient>
<linearGradient id="paint17_linear" x1="158.293" y1="924.912" x2="161.586" y2="1013.66" gradientUnits="userSpaceOnUse">
<stop stop-color="#64467C"/>
<stop offset="1" stop-color="#593B6D"/>
</linearGradient>
<linearGradient id="paint18_linear" x1="349.461" y1="962.717" x2="349.461" y2="1060.94" gradientUnits="userSpaceOnUse">
<stop stop-color="#64467C"/>
<stop offset="1" stop-color="#593B6D"/>
</linearGradient>
<linearGradient id="paint19_linear" x1="418.522" y1="1558.77" x2="418.522" y2="1284.43" gradientUnits="userSpaceOnUse">
<stop stop-color="#64467C"/>
<stop offset="1" stop-color="#593B6D"/>
</linearGradient>
</defs>
</svg>
