<svg width="838" height="1496" viewBox="0 0 838 1496" fill="none" xmlns="http://www.w3.org/2000/svg">
<rect width="837" height="1493" fill="url(#paint0_linear)"/>
<rect y="1202" width="837" height="294" fill="url(#paint1_linear)"/>
<path d="M230 816.9C230 816.9 233.3 778.3 264.5 761.8C295.7 745.3 298.9 730.3 307.2 735.4C315.5 740.4 353.3 751.9 358.2 761.8C363.1 771.7 377.9 818.6 387.8 838.7C397.7 858.8 430.4 903.1 446.1 901.5C461.8 899.9 479.9 904.8 484.8 916.3C489.7 927.8 516 973.3 522.6 983.4C529.2 993.5 558.4 1046.1 556.9 1051C555.4 1055.9 583.8 1125 583.8 1125L483.2 1169.3L268.1 1122.4C268.1 1122.4 226.6 1027.2 219.2 1017.5C211.7 1007.8 230 816.9 230 816.9Z" fill="url(#paint2_linear)"/>
<path d="M0.299995 709.2C0.299995 709.2 57.6 656.6 69.2 659.9C80.8 663.2 119.6 645.1 145 641.8C170.4 638.5 193.7 638.5 223.9 668.1C254.1 697.7 223.8 699.3 241.1 755.2C258.4 811.1 328 916.2 340.3 971.5C352.6 1026.9 388.4 1139.6 402.9 1147.1C417.3 1154.5 737.4 1179.7 737.4 1179.7L424.5 1317.6L0 1210.4L0.299995 709.2Z" fill="url(#paint3_linear)"/>
<path d="M99.4 684.7C107.4 701.5 122 714.6 123.5 720.5C125 726.3 131.5 692.7 131.5 692.7C131.5 692.7 161.1 691.2 167.5 692.7C173.9 694.2 181.2 670.1 190.7 669.3C200.2 668.5 214.8 694.1 211.2 710.2C207.5 726.3 227.9 768.6 217.4 772.3C206.8 776 162.3 786.2 171.8 789.8C181.3 793.5 212.7 779.6 225.1 784C237.5 788.4 282.6 844.5 282.7 844.6C265.1 811 248.5 778.7 241.2 755.2C223.9 699.3 254.2 697.7 224 668.1C193.8 638.5 170.4 638.5 145.1 641.8C119.8 645.1 80.9001 663.2 69.3001 659.9C64.5001 658.5 52 666.7 38.9 676.7C38.8 676.8 91.3 667.9 99.4 684.7Z" fill="#43658E"/>
<path d="M292.9 765C297.7 757.9 305.9 744.7 310.9 750.8C315.8 756.8 335 750.2 333.4 768C331.8 785.8 327.9 795.1 339.4 782C350.9 768.9 358 787.5 363 801.7C368 815.9 383.3 859.2 359.7 865.8C336.1 872.4 349.9 870 378.1 875.6C406.3 881.1 418.9 903.8 425 899.2C431.1 894.6 441.3 912.9 439.2 918.9C438.2 921.8 445 911.7 453.7 901.2C451.2 901.1 448.7 901.2 446.2 901.5C430.5 903.1 397.8 858.8 387.9 838.7C378 818.6 363.2 771.7 358.3 761.8C353.4 751.9 315.6 740.4 307.3 735.4C299 730.4 295.9 745.4 264.6 761.8C264 762.1 263.3 762.5 262.7 762.9C262.9 766.2 264.5 768.5 269.2 767.2C281.2 763.9 288.1 772.1 292.9 765Z" fill="#53819B"/>
<path d="M837.1 938.2C832.3 937.9 827.5 937.8 822.7 937.7C806.8 937.6 790.9 937.7 775 938.9C742.1 941.5 710.4 949.5 683.1 968.6C671.1 977 659.9 986.6 649 996.4C643.8 1001 638.7 1005.7 633.5 1010.2C630.9 1012.5 628.3 1014.7 625.6 1016.9C624.3 1018 623 1019.1 621.6 1020.2C620.8 1020.8 620 1021.5 619.2 1022.1C619 1022.3 618.7 1022.5 618.4 1022.7C613.4 1026.4 608.2 1030 602.8 1033.2C599.8 1035 596.8 1036.6 593.6 1038.2C589 1040.5 588.8 1040.6 584 1042.4C569.3 1047.9 553.9 1051.2 538.6 1054.3C523.7 1057.3 508.8 1059.9 494.2 1064C477.8 1068.5 462.4 1075.4 446.9 1082C436.4 1086.5 419 1092.9 407.1 1094.7C389.8 1097.3 371.8 1095.6 354.5 1094.1C319.6 1091.1 284.9 1089.8 250 1092.4C234.1 1093.6 218.2 1095.5 202.5 1097.9C196.5 1095.8 189.9 1095.2 183.2 1096.2C165.8 1099 155.1 1114.5 153.8 1131.3C151.2 1166.1 186 1184.8 208.1 1205C232.3 1227 255 1250.2 282 1269.1C307.5 1286.9 335.3 1300.8 364.2 1312C424.4 1335.3 489.5 1344.3 553.9 1345.1C589 1345.5 624.1 1343.5 659 1340.1C694.1 1336.8 729.4 1333 764.1 1326.9C789.2 1322.5 814.6 1315.4 837.1 1302.9V938.2V938.2ZM191.2 1130.3H191.1C191.3 1130.3 191.4 1130.3 191.4 1130.3C191.4 1130.3 191.3 1130.3 191.2 1130.3Z" fill="url(#paint4_linear)"/>
<path d="M534.2 1084.9C528.5 1085.4 518.9 1071.8 518.9 1071.8C523.5 1078 528.4 1076.1 528.4 1076.1C526.3 1076 523.4 1074 521.5 1072.4C526.3 1075.7 532.3 1074 532.3 1074C526.9 1073.8 522.1 1067 522.1 1067C526.7 1070.8 534.1 1070.3 534.1 1070.3C529.7 1069.5 521.7 1065.5 516.5 1062.6C523 1064.3 532.7 1063.7 532.7 1063.7C516.2 1060.8 510.1 1052.2 510.1 1052.2C513 1055.2 522.8 1056.7 524.3 1056.9C521.9 1056.5 517.6 1054.5 514.4 1052.9C518.5 1054.2 523.7 1054.4 523.7 1054.4C518.9 1053.5 514 1048.1 511.4 1044.8C516.5 1050.5 523 1049.1 523 1049.1C517.9 1048.6 512.7 1040.9 510 1036.2C512.4 1039.7 514.8 1039.6 514.8 1039.6C512.6 1039.2 510.4 1032.9 510.4 1032.9C515.1 1040.7 522.2 1040.2 522.2 1040.2C516.3 1039.7 510.5 1031 510.5 1031C514.2 1036.1 520.7 1033.8 520.7 1033.8C513.4 1033.3 508.9 1021.9 508.9 1021.9C511.1 1024.8 515.9 1024.9 517.3 1024.8C515.2 1024.8 513.2 1023.8 511.7 1022.8C515.1 1024.4 519.7 1023.5 519.7 1023.5C515.9 1023.3 510.2 1014.2 510.2 1014.2C513.6 1017 517.8 1015.2 517.8 1015.2C513.6 1015.1 509.8 1009.4 509.8 1009.4C512.6 1013.1 517.8 1012 517.8 1012C512.1 1012.1 506.9 1003 506.9 1003C509.1 1006.7 512.4 1005.2 512.4 1005.2C508.6 1005.1 506.7 1000.9 506.7 1000.9C509.6 1004.6 515.1 1002.6 515.1 1002.6C506.3 1000.8 504.4 994.3 504.4 994.3C507.4 998.5 512.4 996.8 512.4 996.8C507.2 997.5 504.4 993.3 504.4 993.3C507.9 998.1 515.3 995.3 515.3 995.3C508.2 995.7 504 988.1 504 988.1C505.3 989.9 507.7 989.2 507.7 989.2C505.7 989.6 502.5 984.9 502.5 984.9C505.4 988.4 510.7 986 510.7 986C505.9 987.6 496.6 973.4 496.6 973.4C496.6 973.4 487.3 987.6 482.5 986C482.5 986 487.8 988.5 490.7 984.9C490.7 984.9 487.5 989.6 485.5 989.2C485.5 989.2 487.9 989.9 489.2 988.1C489.2 988.1 485 995.7 477.9 995.3C477.9 995.3 485.4 998.1 488.8 993.3C488.8 993.3 486 997.5 480.8 996.8C480.8 996.8 485.8 998.6 488.8 994.3C488.8 994.3 486.8 1000.8 478.1 1002.6C478.1 1002.6 483.6 1004.7 486.5 1000.9C486.5 1000.9 484.7 1005.1 480.8 1005.2C480.8 1005.2 484.1 1006.7 486.3 1003C486.3 1003 481 1012.1 475.4 1012C475.4 1012 480.5 1013.1 483.4 1009.4C483.4 1009.4 479.7 1015.2 475.4 1015.2C475.4 1015.2 479.6 1017 483 1014.2C483 1014.2 477.3 1023.4 473.5 1023.5C473.5 1023.5 478.1 1024.4 481.5 1022.8C480 1023.8 478 1024.9 475.9 1024.8C477.3 1024.9 482.1 1024.8 484.3 1021.9C484.3 1021.9 479.7 1033.3 472.5 1033.8C472.5 1033.8 479 1036.1 482.7 1031C482.7 1031 476.9 1039.7 471 1040.2C471 1040.2 478 1040.8 482.8 1032.9C482.8 1032.9 480.6 1039.2 478.4 1039.6C478.4 1039.6 480.7 1039.6 483.2 1036.2C480.5 1041 475.3 1048.6 470.2 1049.1C470.2 1049.1 476.6 1050.5 481.8 1044.8C479.2 1048.1 474.3 1053.5 469.5 1054.4C469.5 1054.4 474.6 1054.2 478.8 1052.9C475.6 1054.5 471.3 1056.5 468.9 1056.9C470.4 1056.7 480.2 1055.2 483.1 1052.2C483.1 1052.2 477 1060.8 460.5 1063.7C460.5 1063.7 470.1 1064.3 476.7 1062.6C471.4 1065.5 463.5 1069.5 459.1 1070.3C459.1 1070.3 466.5 1070.8 471.1 1067C471.1 1067 466.4 1073.7 460.9 1074C460.9 1074 466.8 1075.7 471.7 1072.4C469.8 1074 466.9 1076 464.8 1076.1C464.8 1076.1 469.7 1078 474.3 1071.8C474.3 1071.8 464.7 1085.4 459 1084.9C459 1084.9 466.9 1085.7 473 1082.1C471.3 1083.9 469.5 1085.7 467.7 1087.1H495.9H497.4H525.6C523.9 1085.7 522 1083.9 520.3 1082.1C526.3 1085.8 534.2 1084.9 534.2 1084.9Z" fill="url(#paint5_linear)"/>
<path d="M532.2 1070.7C527.8 1073.4 519.1 1078.4 514.4 1078.3C514.4 1078.3 515.8 1078.5 517.9 1078.7H593.5C595.6 1078.5 597 1078.3 597 1078.3C592.3 1078.4 583.6 1073.4 579.2 1070.7C585.4 1072.9 597.7 1071.1 597.7 1071.1C594.6 1070.4 591.1 1068.7 587.7 1066.5C589.1 1066.4 590.1 1066.1 590.1 1066.1C588.2 1065.9 585.8 1064.9 583.9 1063.9C581.7 1062.3 579.5 1060.6 577.6 1059C580.7 1060 584.6 1059.5 584.6 1059.5C582.6 1059.1 581.1 1058.3 580.1 1057.3C583.6 1057.2 586.4 1055.8 586.4 1055.8C581.4 1053.6 578.4 1050 578.4 1050C582.1 1053.1 592 1049.4 592 1049.4C582.6 1048.6 572.7 1039.7 568.8 1035.9C572.4 1038.6 576.6 1037.2 576.6 1037.2C570.2 1037.6 566.7 1028.6 566.7 1028.6C572.2 1036.7 587.2 1032.6 587.2 1032.6C575 1033.1 566.2 1014.9 566.2 1014.9C572.2 1022 582.8 1018 582.8 1018C572.6 1017.8 570.2 1009.1 570.2 1009.1C573.6 1010.7 574.8 1009.6 574.8 1009.6C570.9 1009.7 568 1005.3 568 1005.3C574.1 1010.5 582 1005.7 582 1005.7C575.9 1007 568.7 994.9 568.7 994.9C571.6 997.1 577 994.9 577 994.9C574.5 995.5 569.8 992.9 566.6 990.9C573.1 993.9 582 991.8 582 991.8C571.4 990.4 565.5 982.6 565.5 982.6C569.3 984.2 571.9 983.3 571.9 983.3C564.2 983.2 561.4 976.4 561.4 976.4C562.4 977.8 567.7 978 567.7 978C566.1 978 563.1 975.4 563.1 975.4C567.2 977.3 574 975.7 574 975.7C560.5 975.7 558.1 963 560 965.1C561.9 967.3 564.6 965.6 564.6 965.6C559.6 963.4 557.3 956.7 556.2 951.2V943.6C556.2 943.6 556.2 945.6 555.8 948.5C555.4 945.6 555.4 943.6 555.4 943.6V951.2C554.3 956.7 552.1 963.4 547 965.6C547 965.6 549.8 967.2 551.6 965.1C553.5 962.9 551.1 975.7 537.6 975.7C537.6 975.7 544.4 977.3 548.5 975.4C548.5 975.4 545.5 978 543.9 978C543.9 978 549.1 977.9 550.2 976.4C550.2 976.4 547.5 983.1 539.7 983.3C539.7 983.3 542.3 984.1 546.1 982.6C546.1 982.6 540.2 990.3 529.6 991.8C529.6 991.8 538.5 994 545 990.9C541.8 992.9 537.1 995.5 534.6 994.9C534.6 994.9 540 997.1 542.9 994.9C542.9 994.9 535.8 1007.1 529.6 1005.7C529.6 1005.7 537.4 1010.5 543.6 1005.3C543.6 1005.3 540.7 1009.8 536.8 1009.6C536.8 1009.6 538 1010.7 541.4 1009.1C541.4 1009.1 539 1017.8 528.8 1018C528.8 1018 539.4 1022 545.4 1014.9C545.4 1014.9 536.5 1033.1 524.4 1032.6C524.4 1032.6 539.4 1036.7 544.9 1028.6C544.9 1028.6 541.4 1037.5 535 1037.2C535 1037.2 539.2 1038.6 542.8 1035.9C538.9 1039.7 529 1048.6 519.6 1049.4C519.6 1049.4 529.5 1053.1 533.2 1050C533.2 1050 530.2 1053.5 525.2 1055.8C525.2 1055.8 528 1057.2 531.5 1057.3C530.5 1058.2 529 1059.1 527 1059.5C527 1059.5 530.8 1060 534 1059C532.1 1060.6 530 1062.3 527.7 1063.9C525.8 1064.8 523.4 1065.8 521.5 1066.1C521.5 1066.1 522.4 1066.5 523.9 1066.5C520.5 1068.7 517 1070.4 513.9 1071.1C513.7 1071.2 526.1 1072.9 532.2 1070.7ZM574.8 1076.1C574.7 1076 574.7 1075.9 574.7 1075.9C574.7 1075.9 574.7 1076 574.8 1076.1ZM536.7 1075.9C536.7 1075.9 536.7 1076 536.6 1076.1C536.6 1076 536.7 1075.9 536.7 1075.9Z" fill="url(#paint6_linear)"/>
<path d="M768.5 954.2C764.7 956.5 757.2 960.8 753.1 960.7C753.1 960.7 754.3 960.9 756.1 961.1H821.3C823.1 960.9 824.3 960.7 824.3 960.7C820.2 960.8 812.7 956.5 808.9 954.2C814.2 956.1 824.9 954.6 824.9 954.6C822.2 954 819.2 952.5 816.3 950.6C817.5 950.6 818.3 950.2 818.3 950.2C816.7 950 814.6 949.2 813 948.3C811.1 946.9 809.2 945.4 807.6 944.1C810.3 945 813.6 944.6 813.6 944.6C811.9 944.3 810.6 943.5 809.7 942.7C812.7 942.6 815.1 941.4 815.1 941.4C810.8 939.5 808.2 936.4 808.2 936.4C811.4 939.1 819.9 935.9 819.9 935.9C811.8 935.2 803.2 927.5 799.9 924.2C803 926.6 806.6 925.4 806.6 925.4C801.1 925.7 798 918 798 918C802.7 925 815.7 921.4 815.7 921.4C805.2 921.8 797.5 906.1 797.5 906.1C802.7 912.2 811.8 908.8 811.8 908.8C803 908.6 801 901.1 801 901.1C803.9 902.5 804.9 901.5 804.9 901.5C801.5 901.6 799 897.8 799 897.8C804.3 902.3 811.1 898.1 811.1 898.1C805.8 899.2 799.6 888.7 799.6 888.7C802.1 890.6 806.8 888.7 806.8 888.7C804.7 889.2 800.6 887 797.8 885.3C803.4 887.9 811.1 886 811.1 886C802 884.8 796.9 878.1 796.9 878.1C800.2 879.5 802.4 878.7 802.4 878.7C795.7 878.6 793.4 872.8 793.4 872.8C794.3 874 798.8 874.2 798.8 874.2C797.4 874.2 794.9 871.9 794.9 871.9C798.5 873.5 804.3 872.1 804.3 872.1C792.6 872.1 790.6 861.1 792.2 863C793.8 864.9 796.2 863.5 796.2 863.5C791.9 861.6 789.9 855.8 789 851.1V844.6C789 844.6 789 846.4 788.6 848.8C788.3 846.3 788.2 844.6 788.2 844.6V851.1C787.3 855.8 785.3 861.7 781 863.5C781 863.5 783.4 864.9 785 863C786.6 861.1 784.6 872.1 772.9 872.1C772.9 872.1 778.7 873.5 782.3 871.9C782.3 871.9 779.7 874.2 778.4 874.2C778.4 874.2 782.9 874.1 783.8 872.8C783.8 872.8 781.4 878.6 774.8 878.7C774.8 878.7 777.1 879.4 780.3 878.1C780.3 878.1 775.2 884.8 766.1 886C766.1 886 773.7 887.9 779.4 885.3C776.7 887 772.6 889.3 770.4 888.7C770.4 888.7 775.1 890.6 777.6 888.7C777.6 888.7 771.4 899.2 766.1 898.1C766.1 898.1 772.9 902.3 778.2 897.8C778.2 897.8 775.7 901.6 772.3 901.5C772.3 901.5 773.3 902.4 776.2 901.1C776.2 901.1 774.2 908.6 765.4 908.8C765.4 908.8 774.5 912.2 779.7 906.1C779.7 906.1 772 921.8 761.5 921.4C761.5 921.4 774.5 924.9 779.2 918C779.2 918 776.2 925.7 770.6 925.4C770.6 925.4 774.3 926.6 777.3 924.2C773.9 927.5 765.4 935.1 757.3 935.9C757.3 935.9 765.9 939.1 769 936.4C769 936.4 766.4 939.5 762.1 941.4C762.1 941.4 764.5 942.6 767.5 942.7C766.6 943.5 765.4 944.3 763.6 944.6C763.6 944.6 766.9 945 769.6 944.1C768 945.5 766.1 946.9 764.2 948.3C762.6 949.1 760.5 950 758.9 950.2C758.9 950.2 759.7 950.5 760.9 950.6C757.9 952.5 754.9 954 752.3 954.6C752.5 954.6 763.1 956.2 768.5 954.2ZM805.2 958.8C805.1 958.7 805.1 958.6 805.1 958.6C805.1 958.7 805.1 958.8 805.2 958.8ZM772.4 958.7C772.4 958.7 772.4 958.8 772.3 958.9C772.3 958.8 772.3 958.7 772.4 958.7Z" fill="url(#paint7_linear)"/>
<path d="M397.393 1111.6C392.503 1114.6 382.822 1120.2 377.533 1120.1C377.533 1120.1 379.13 1120.3 381.425 1120.6H465.754C468.149 1120.4 469.646 1120.1 469.646 1120.1C464.357 1120.2 454.676 1114.7 449.786 1111.6C456.672 1114.1 470.444 1112.1 470.444 1112.1C466.951 1111.3 463.059 1109.4 459.267 1106.9C460.864 1106.8 461.862 1106.4 461.862 1106.4C459.766 1106.1 457.071 1105 454.976 1104C452.481 1102.2 450.086 1100.3 447.99 1098.5C451.483 1099.6 455.774 1099.1 455.774 1099.1C453.579 1098.7 451.882 1097.7 450.784 1096.7C454.676 1096.6 457.77 1095 457.77 1095C452.281 1092.5 448.888 1088.5 448.888 1088.5C452.98 1092 464.057 1087.8 464.057 1087.8C453.579 1086.9 442.501 1077 438.21 1072.7C442.202 1075.8 446.892 1074.2 446.892 1074.2C439.707 1074.6 435.815 1064.6 435.815 1064.6C441.902 1073.6 458.668 1069 458.668 1069C445.096 1069.5 435.216 1049.2 435.216 1049.2C441.902 1057.1 453.778 1052.7 453.778 1052.7C442.401 1052.4 439.807 1042.7 439.807 1042.7C443.599 1044.5 444.896 1043.2 444.896 1043.2C440.505 1043.3 437.312 1038.4 437.312 1038.4C444.198 1044.2 452.88 1038.8 452.88 1038.8C445.994 1040.3 438.01 1026.7 438.01 1026.7C441.303 1029.1 447.291 1026.7 447.291 1026.7C444.497 1027.4 439.208 1024.5 435.715 1022.2C443 1025.6 452.88 1023.2 452.88 1023.2C441.104 1021.6 434.517 1013 434.517 1013C438.709 1014.8 441.703 1013.8 441.703 1013.8C433.12 1013.7 430.026 1006.1 430.026 1006.1C431.224 1007.7 437.012 1007.9 437.012 1007.9C435.216 1007.9 431.923 1004.9 431.923 1004.9C436.513 1007 444.098 1005.2 444.098 1005.2C429.028 1005.2 426.334 991 428.43 993.4C430.525 995.8 433.619 994 433.619 994C428.03 991.6 425.436 984 424.338 977.9V969.4C424.338 969.4 424.238 971.7 423.839 974.9C423.44 971.7 423.34 969.4 423.34 969.4V977.9C422.142 984 419.647 991.6 414.059 994C414.059 994 417.153 995.8 419.248 993.4C421.344 991 418.649 1005.2 403.58 1005.2C403.58 1005.2 411.165 1007 415.755 1004.9C415.755 1004.9 412.362 1007.9 410.666 1007.9C410.666 1007.9 416.454 1007.8 417.652 1006.1C417.652 1006.1 414.558 1013.6 405.975 1013.8C405.975 1013.8 408.869 1014.7 413.161 1013C413.161 1013 406.574 1021.6 394.798 1023.2C394.798 1023.2 404.678 1025.6 411.963 1022.2C408.37 1024.4 403.081 1027.3 400.387 1026.7C400.387 1026.7 406.374 1029.1 409.668 1026.7C409.668 1026.7 401.684 1040.3 394.798 1038.8C394.798 1038.8 403.58 1044.2 410.366 1038.4C410.366 1038.4 407.173 1043.4 402.782 1043.2C402.782 1043.2 404.079 1044.4 407.871 1042.7C407.871 1042.7 405.277 1052.4 393.9 1052.7C393.9 1052.7 405.676 1057.1 412.462 1049.2C412.462 1049.2 402.582 1069.5 389.01 1069C389.01 1069 405.776 1073.6 411.863 1064.6C411.863 1064.6 407.971 1074.6 400.786 1074.2C400.786 1074.2 405.476 1075.8 409.468 1072.7C405.177 1077 394.099 1086.9 383.621 1087.8C383.621 1087.8 394.698 1092 398.79 1088.5C398.79 1088.5 395.397 1092.5 389.908 1095C389.908 1095 393.002 1096.5 396.894 1096.7C395.796 1097.7 394.099 1098.7 391.904 1099.1C391.904 1099.1 396.195 1099.6 399.688 1098.5C397.592 1100.3 395.197 1102.2 392.702 1104C390.606 1105.1 387.912 1106.1 385.816 1106.4C385.816 1106.4 386.814 1106.8 388.411 1106.9C384.619 1109.3 380.727 1111.3 377.234 1112.1C376.834 1112.1 390.507 1114.1 397.393 1111.6ZM444.896 1117.6C444.796 1117.4 444.697 1117.4 444.697 1117.4C444.796 1117.4 444.796 1117.5 444.896 1117.6ZM402.482 1117.3C402.482 1117.3 402.482 1117.4 402.383 1117.5C402.383 1117.5 402.383 1117.4 402.482 1117.3Z" fill="url(#paint8_linear)"/>
<path d="M291.907 1082.3C280.93 1083.2 262.667 1057.2 262.667 1057.2C271.549 1069.1 280.93 1065.5 280.93 1065.5C276.838 1065.4 271.349 1061.5 267.657 1058.5C276.938 1064.8 288.315 1061.5 288.315 1061.5C277.936 1061 268.854 1048.1 268.854 1048.1C277.636 1055.3 291.808 1054.4 291.808 1054.4C283.325 1052.9 268.156 1045.1 258.076 1039.6C270.551 1042.9 289.013 1041.7 289.013 1041.7C257.377 1036.1 245.801 1019.6 245.801 1019.6C251.39 1025.4 270.151 1028.3 273.046 1028.7C268.555 1028 260.172 1024.1 254.084 1021C261.968 1023.6 271.848 1023.9 271.848 1023.9C262.667 1022.1 253.286 1011.9 248.296 1005.5C258.176 1016.4 270.451 1013.7 270.451 1013.7C260.571 1012.6 250.791 998.1 245.502 988.9C250.192 995.5 254.683 995.4 254.683 995.4C250.591 994.6 246.3 982.5 246.3 982.5C255.382 997.6 268.854 996.5 268.854 996.5C257.477 995.6 246.5 978.8 246.5 978.8C253.585 988.6 265.96 984.2 265.96 984.2C251.988 983.3 243.306 961.3 243.306 961.3C247.597 966.9 256.679 967 259.373 966.9C255.481 967 251.489 965 248.695 963C255.182 966.1 264.064 964.4 264.064 964.4C256.878 964.1 245.901 946.5 245.901 946.5C252.388 951.9 260.371 948.4 260.371 948.4C252.288 948.3 245.102 937.2 245.102 937.2C250.491 944.4 260.371 942.2 260.371 942.2C249.493 942.4 239.414 925 239.414 925C243.605 932.1 249.893 929.2 249.893 929.2C242.508 929.1 239.015 921 239.015 921C244.504 928.2 255.182 924.2 255.182 924.2C238.416 920.8 234.624 908.3 234.624 908.3C240.312 916.4 249.992 913 249.992 913C240.013 914.3 234.624 906.2 234.624 906.2C241.31 915.4 255.581 910.1 255.581 910.1C242.009 910.9 234.025 896.3 234.025 896.3C236.52 899.7 241.11 898.3 241.11 898.3C237.318 899 231.231 890 231.231 890C236.719 896.8 246.999 892 246.999 892C237.817 895.1 220.053 867.9 220.053 867.9C220.053 867.9 202.289 895.1 193.108 892C193.108 892 203.287 896.7 208.876 890C208.876 890 202.788 899 198.996 898.3C198.996 898.3 203.587 899.6 206.082 896.3C206.082 896.3 198.098 910.9 184.525 910.1C184.525 910.1 198.796 915.4 205.483 906.2C205.483 906.2 200.194 914.3 190.114 913C190.114 913 199.695 916.4 205.483 908.3C205.483 908.3 201.691 920.8 184.925 924.2C184.925 924.2 195.503 928.2 201.092 921C201.092 921 197.599 929.1 190.214 929.2C190.214 929.2 196.501 932.1 200.693 925C200.693 925 190.613 942.4 179.735 942.2C179.735 942.2 189.515 944.4 195.004 937.2C195.004 937.2 187.819 948.3 179.735 948.4C179.735 948.4 187.819 951.9 194.206 946.5C194.206 946.5 183.228 964.1 176.043 964.4C176.043 964.4 184.925 966.1 191.411 963C188.517 965 184.625 967 180.733 966.9C183.428 967 192.509 966.9 196.8 961.3C196.8 961.3 188.018 983.3 174.147 984.2C174.147 984.2 186.521 988.7 193.607 978.8C193.607 978.8 182.529 995.5 171.252 996.5C171.252 996.5 184.725 997.6 193.807 982.5C193.807 982.5 189.515 994.6 185.424 995.4C185.424 995.4 189.914 995.5 194.605 988.9C189.416 998 179.536 1012.6 169.656 1013.7C169.656 1013.7 181.931 1016.4 191.811 1005.5C186.821 1011.8 177.44 1022.1 168.258 1023.9C168.258 1023.9 178.039 1023.6 186.022 1021C179.935 1024.1 171.552 1028 167.061 1028.7C169.955 1028.3 188.617 1025.4 194.306 1019.6C194.306 1019.6 182.729 1036.1 151.093 1041.7C151.093 1041.7 169.556 1042.9 182.03 1039.6C171.951 1045.1 156.782 1052.9 148.299 1054.4C148.299 1054.4 162.57 1055.3 171.252 1048.1C171.252 1048.1 162.171 1061 151.792 1061.5C151.792 1061.5 163.169 1064.8 172.45 1058.5C168.757 1061.5 163.269 1065.4 159.177 1065.5C159.177 1065.5 168.558 1069.1 177.44 1057.2C177.44 1057.2 159.177 1083.3 148.199 1082.3C148.199 1082.3 163.368 1083.9 175.045 1076.9C171.851 1080.3 168.258 1083.8 164.965 1086.5H218.956H221.85H275.84C272.547 1083.8 268.954 1080.3 265.76 1076.9C276.738 1083.9 291.907 1082.3 291.907 1082.3Z" fill="url(#paint9_linear)"/>
<path d="M357.075 1126.2C350.389 1130.4 337.116 1138 329.83 1137.8C329.83 1137.8 331.926 1138.1 335.219 1138.4H450.785C453.978 1138.1 456.174 1137.8 456.174 1137.8C448.888 1137.9 435.615 1130.3 428.929 1126.2C438.31 1129.6 457.272 1126.9 457.272 1126.9C452.581 1125.8 447.192 1123.2 441.903 1119.8C444.098 1119.7 445.495 1119.2 445.495 1119.2C442.601 1118.8 439.009 1117.3 436.114 1115.9C432.721 1113.4 429.428 1110.8 426.534 1108.4C431.324 1110 437.212 1109.2 437.212 1109.2C434.118 1108.7 431.923 1107.3 430.326 1105.9C435.615 1105.7 439.907 1103.6 439.907 1103.6C432.322 1100.2 427.731 1094.7 427.731 1094.7C433.32 1099.5 448.489 1093.8 448.489 1093.8C434.118 1092.5 418.949 1078.9 412.961 1073.1C418.351 1077.3 424.837 1075.1 424.837 1075.1C415.057 1075.7 409.668 1062 409.668 1062C418.051 1074.4 441.104 1068.1 441.104 1068.1C422.542 1068.8 408.87 1040.9 408.87 1040.9C418.051 1051.8 434.318 1045.7 434.318 1045.7C418.75 1045.3 415.157 1032 415.157 1032C420.346 1034.4 422.143 1032.7 422.143 1032.7C416.155 1032.9 411.764 1026.1 411.764 1026.1C421.145 1034 433.121 1026.7 433.121 1026.7C423.74 1028.7 412.762 1010.1 412.762 1010.1C417.253 1013.4 425.536 1010.1 425.536 1010.1C421.744 1011 414.458 1007.1 409.668 1004C419.648 1008.6 433.22 1005.3 433.22 1005.3C417.053 1003.1 407.972 991.3 407.972 991.3C413.76 993.7 417.752 992.4 417.752 992.4C405.976 992.2 401.784 981.9 401.784 981.9C403.381 984.1 411.365 984.3 411.365 984.3C408.97 984.3 404.379 980.2 404.379 980.2C410.666 983.1 421.045 980.6 421.045 980.6C400.387 980.6 396.794 961.1 399.589 964.4C402.383 967.7 406.674 965.2 406.674 965.2C398.99 961.9 395.497 951.5 393.9 943.1V931.5C393.9 931.5 393.8 934.6 393.202 939C392.603 934.6 392.503 931.5 392.503 931.5V943.1C390.906 951.5 387.413 961.9 379.729 965.2C379.729 965.2 383.92 967.7 386.815 964.4C389.609 961.1 386.016 980.6 365.358 980.6C365.358 980.6 375.737 983.1 382.024 980.2C382.024 980.2 377.434 984.3 375.038 984.3C375.038 984.3 383.022 984.1 384.619 981.9C384.619 981.9 380.428 992.2 368.651 992.4C368.651 992.4 372.643 993.7 378.432 991.3C378.432 991.3 369.45 1003.1 353.183 1005.3C353.183 1005.3 366.755 1008.6 376.735 1004C371.845 1007.1 364.56 1011 360.867 1010.1C360.867 1010.1 369.15 1013.4 373.641 1010.1C373.641 1010.1 362.664 1028.8 353.283 1026.7C353.283 1026.7 365.258 1034.1 374.639 1026.1C374.639 1026.1 370.248 1032.9 364.26 1032.7C364.26 1032.7 366.057 1034.4 371.246 1032C371.246 1032 367.653 1045.3 352.085 1045.7C352.085 1045.7 368.252 1051.8 377.533 1040.9C377.533 1040.9 363.961 1068.8 345.299 1068.1C345.299 1068.1 368.252 1074.4 376.735 1062C376.735 1062 371.346 1075.7 361.566 1075.1C361.566 1075.1 368.053 1077.3 373.442 1073.1C367.554 1078.9 352.285 1092.5 337.914 1093.8C337.914 1093.8 353.083 1099.5 358.672 1094.7C358.672 1094.7 354.081 1100.1 346.496 1103.6C346.496 1103.6 350.688 1105.7 356.077 1105.9C354.48 1107.3 352.285 1108.7 349.191 1109.2C349.191 1109.2 355.079 1109.9 359.869 1108.4C356.975 1110.8 353.682 1113.4 350.289 1115.9C347.395 1117.3 343.802 1118.8 340.908 1119.2C340.908 1119.2 342.305 1119.8 344.501 1119.8C339.211 1123.1 333.922 1125.8 329.132 1126.9C328.733 1126.9 347.594 1129.6 357.075 1126.2ZM422.143 1134.4C421.943 1134.2 421.943 1134.1 421.943 1134.1C421.943 1134.2 422.043 1134.3 422.143 1134.4ZM363.961 1134.1C363.961 1134.1 363.861 1134.2 363.761 1134.4C363.761 1134.3 363.861 1134.2 363.961 1134.1Z" fill="url(#paint10_linear)"/>
<path d="M837 1003.9C829.216 1003.2 821.531 1003 813.847 1003.4C813.348 1003.3 812.949 1003.1 812.45 1003C808.159 1001.9 803.368 1002.6 799.476 1004.6C763.649 1009.1 728.919 1023.6 696.984 1040.1C676.027 1050.9 655.568 1062.8 634.611 1073.6C612.955 1084.8 594.193 1093.4 570.741 1099.9C559.164 1103.1 547.388 1105.6 535.512 1107.3C527.03 1108.5 512.359 1109.6 501.481 1109.9C489.406 1110.2 477.43 1109.9 465.355 1109.1C459.666 1108.7 453.978 1108.2 448.289 1107.6C441.803 1106.9 436.813 1106.3 431.823 1105.6C382.623 1098.5 334.82 1085 287.017 1071.8C237.118 1058 186.821 1044.9 135.225 1039.1C110.076 1036.3 84.7279 1035.4 59.579 1037.5C39.7193 1039.1 18.5623 1041.5 0 1049.5V1459.4C0 1478 15.0694 1493 33.5319 1493H803.468C822.03 1493 837 1477.9 837 1459.4V1003.9V1003.9Z" fill="url(#paint11_linear)"/>
<path d="M686.107 1132C675.129 1132.9 656.866 1106.9 656.866 1106.9C665.748 1118.8 675.129 1115.2 675.129 1115.2C671.037 1115.1 665.548 1111.2 661.856 1108.2C671.137 1114.5 682.514 1111.2 682.514 1111.2C672.135 1110.7 663.053 1097.8 663.053 1097.8C671.836 1105 686.007 1104.1 686.007 1104.1C677.524 1102.6 662.355 1094.8 652.275 1089.3C664.75 1092.6 683.212 1091.4 683.212 1091.4C651.577 1085.8 640 1069.3 640 1069.3C645.589 1075.1 664.351 1078 667.245 1078.4C662.754 1077.7 654.371 1073.8 648.283 1070.7C656.167 1073.3 666.047 1073.6 666.047 1073.6C656.866 1071.8 647.485 1061.6 642.495 1055.2C652.375 1066.1 664.65 1063.4 664.65 1063.4C654.77 1062.3 644.99 1047.8 639.701 1038.6C644.391 1045.2 648.882 1045.1 648.882 1045.1C644.79 1044.3 640.499 1032.2 640.499 1032.2C649.581 1047.3 663.053 1046.2 663.053 1046.2C651.676 1045.3 640.699 1028.5 640.699 1028.5C647.784 1038.3 660.159 1033.9 660.159 1033.9C646.188 1033 637.505 1011 637.505 1011C641.797 1016.6 650.878 1016.7 653.573 1016.6C649.681 1016.7 645.689 1014.7 642.894 1012.7C649.381 1015.8 658.263 1014.1 658.263 1014.1C651.078 1013.8 640.1 996.2 640.1 996.2C646.587 1001.6 654.571 998.1 654.571 998.1C646.487 998 639.302 986.9 639.302 986.9C644.691 994.1 654.571 991.9 654.571 991.9C643.693 992.1 633.613 974.7 633.613 974.7C637.805 981.8 644.092 978.9 644.092 978.9C636.707 978.8 633.214 970.7 633.214 970.7C638.703 977.9 649.381 973.9 649.381 973.9C632.615 970.5 628.823 958 628.823 958C634.511 966.1 644.192 962.7 644.192 962.7C634.212 964 628.823 955.9 628.823 955.9C635.509 965.1 649.78 959.8 649.78 959.8C636.208 960.6 628.224 946 628.224 946C630.719 949.4 635.31 948 635.31 948C631.517 948.7 625.43 939.7 625.43 939.7C630.919 946.5 641.198 941.7 641.198 941.7C632.016 944.8 614.252 917.6 614.252 917.6C614.252 917.6 596.489 944.8 587.307 941.7C587.307 941.7 597.487 946.4 603.075 939.7C603.075 939.7 596.988 948.7 593.195 948C593.195 948 597.786 949.3 600.281 946C600.281 946 592.297 960.6 578.725 959.8C578.725 959.8 592.996 965.1 599.682 955.9C599.682 955.9 594.393 964 584.313 962.7C584.313 962.7 593.894 966.1 599.682 958C599.682 958 595.89 970.5 579.124 973.9C579.124 973.9 589.702 977.9 595.291 970.7C595.291 970.7 591.798 978.8 584.413 978.9C584.413 978.9 590.7 981.8 594.892 974.7C594.892 974.7 584.812 992.1 573.934 991.9C573.934 991.9 583.714 994.1 589.203 986.9C589.203 986.9 582.018 998 573.934 998.1C573.934 998.1 582.018 1001.6 588.405 996.2C588.405 996.2 577.427 1013.8 570.242 1014.1C570.242 1014.1 579.124 1015.8 585.611 1012.7C582.717 1014.7 578.824 1016.7 574.932 1016.6C577.627 1016.7 586.708 1016.6 591 1011C591 1011 582.218 1033 568.346 1033.9C568.346 1033.9 580.721 1038.4 587.806 1028.5C587.806 1028.5 576.729 1045.2 565.452 1046.2C565.452 1046.2 578.924 1047.3 588.006 1032.2C588.006 1032.2 583.715 1044.3 579.623 1045.1C579.623 1045.1 584.114 1045.2 588.804 1038.6C583.615 1047.7 573.735 1062.3 563.855 1063.4C563.855 1063.4 576.13 1066.1 586.01 1055.2C581.02 1061.5 571.639 1071.8 562.458 1073.6C562.458 1073.6 572.238 1073.3 580.222 1070.7C574.134 1073.8 565.751 1077.7 561.26 1078.4C564.154 1078 582.816 1075.1 588.505 1069.3C588.505 1069.3 576.928 1085.8 545.293 1091.4C545.293 1091.4 563.755 1092.6 576.23 1089.3C566.15 1094.8 550.981 1102.6 542.498 1104.1C542.498 1104.1 556.769 1105 565.452 1097.8C565.452 1097.8 556.37 1110.7 545.991 1111.2C545.991 1111.2 557.368 1114.5 566.649 1108.2C562.957 1111.2 557.468 1115.1 553.376 1115.2C553.376 1115.2 562.757 1118.8 571.639 1106.9C571.639 1106.9 553.376 1133 542.398 1132C542.398 1132 557.568 1133.6 569.244 1126.6C566.05 1130 562.458 1133.5 559.164 1136.2H613.155H616.049H670.039C666.746 1133.5 663.153 1130 659.96 1126.6C670.937 1133.6 686.107 1132 686.107 1132Z" fill="url(#paint12_linear)"/>
<path d="M657.365 1132.6C648.582 1138.1 631.118 1148 621.537 1147.9C621.537 1147.9 624.332 1148.3 628.623 1148.7H780.415C784.606 1148.3 787.5 1147.9 787.5 1147.9C777.92 1148.1 760.555 1138.1 751.673 1132.6C764.048 1137.1 788.798 1133.5 788.798 1133.5C782.61 1132.1 775.624 1128.6 768.639 1124.2C771.533 1124.1 773.329 1123.4 773.329 1123.4C769.537 1122.9 764.747 1121 760.954 1119.1C756.463 1115.9 752.172 1112.5 748.38 1109.3C754.667 1111.3 762.351 1110.4 762.351 1110.4C758.359 1109.7 755.366 1107.9 753.37 1106C760.355 1105.8 765.944 1103 765.944 1103C755.964 1098.5 749.977 1091.4 749.977 1091.4C757.362 1097.7 777.321 1090.2 777.321 1090.2C758.459 1088.5 738.5 1070.7 730.716 1063C737.901 1068.5 746.384 1065.7 746.384 1065.7C733.51 1066.4 726.424 1048.5 726.424 1048.5C737.502 1064.7 767.641 1056.5 767.641 1056.5C743.19 1057.5 725.327 1020.9 725.327 1020.9C737.402 1035.2 758.659 1027.2 758.659 1027.2C738.2 1026.7 733.41 1009.3 733.41 1009.3C740.196 1012.5 742.592 1010.3 742.592 1010.3C734.708 1010.5 728.919 1001.6 728.919 1001.6C741.294 1012 757.062 1002.3 757.062 1002.3C744.687 1005 730.416 980.5 730.416 980.5C736.304 984.9 747.082 980.5 747.082 980.5C742.093 981.7 732.612 976.5 726.225 972.5C739.298 978.6 757.062 974.2 757.062 974.2C735.805 971.3 723.929 955.8 723.929 955.8C731.514 959 736.803 957.3 736.803 957.3C721.335 957.1 715.846 943.5 715.846 943.5C717.942 946.4 728.42 946.7 728.42 946.7C725.227 946.7 719.239 941.4 719.239 941.4C727.522 945.2 741.095 941.9 741.095 941.9C713.95 941.9 709.159 916.3 712.952 920.6C716.644 925 722.233 921.7 722.233 921.7C712.153 917.4 707.563 903.7 705.467 892.7V877.5C705.467 877.5 705.367 881.6 704.569 887.3C703.77 881.6 703.671 877.5 703.671 877.5V892.7C701.575 903.7 696.984 917.3 686.905 921.7C686.905 921.7 692.493 925 696.186 920.6C699.878 916.2 695.188 941.9 668.043 941.9C668.043 941.9 681.615 945.2 689.899 941.4C689.899 941.4 683.911 946.7 680.717 946.7C680.717 946.7 691.196 946.5 693.292 943.5C693.292 943.5 687.803 957.1 672.334 957.3C672.334 957.3 677.623 959 685.208 955.8C685.208 955.8 673.432 971.3 652.075 974.2C652.075 974.2 669.839 978.6 682.913 972.5C676.526 976.5 666.945 981.8 662.055 980.5C662.055 980.5 672.933 984.9 678.721 980.5C678.721 980.5 664.35 1005 652.075 1002.3C652.075 1002.3 667.843 1012 680.218 1001.6C680.218 1001.6 674.43 1010.6 666.546 1010.3C666.546 1010.3 668.941 1012.5 675.727 1009.3C675.727 1009.3 671.037 1026.8 650.479 1027.2C650.479 1027.2 671.735 1035.2 683.811 1020.9C683.811 1020.9 665.947 1057.5 641.497 1056.5C641.497 1056.5 671.735 1064.7 682.713 1048.5C682.713 1048.5 675.628 1066.4 662.754 1065.7C662.754 1065.7 671.236 1068.5 678.422 1063C670.638 1070.7 650.678 1088.5 631.817 1090.2C631.817 1090.2 651.776 1097.7 659.161 1091.4C659.161 1091.4 653.073 1098.5 643.193 1103C643.193 1103 648.782 1105.8 655.768 1106C653.772 1107.8 650.778 1109.6 646.786 1110.4C646.786 1110.4 654.47 1111.4 660.758 1109.3C656.965 1112.5 652.674 1115.9 648.183 1119.1C644.391 1121 639.601 1123 635.808 1123.4C635.808 1123.4 637.705 1124.1 640.499 1124.2C633.613 1128.6 626.627 1132.1 620.34 1133.5C620.14 1133.5 644.99 1137.1 657.365 1132.6ZM742.791 1143.4C742.592 1143.1 742.492 1143 742.492 1143C742.592 1143.1 742.691 1143.2 742.791 1143.4ZM666.346 1142.9C666.346 1142.9 666.247 1143.1 666.047 1143.3C666.147 1143.2 666.247 1143.1 666.346 1142.9Z" fill="url(#paint13_linear)"/>
<path d="M837 1066.1C807.759 1056.8 796.582 1040.9 796.582 1040.9C804.067 1048.6 828.817 1052.4 832.609 1053C826.621 1052.1 815.544 1046.9 807.46 1042.8C817.939 1046.2 830.912 1046.6 830.912 1046.6C818.737 1044.2 806.362 1030.6 799.676 1022.2C812.749 1036.7 829.016 1033.1 829.016 1033.1C815.943 1031.7 802.969 1012.4 795.983 1000.3C802.171 1009.1 808.159 1009 808.159 1009C802.67 1008 796.981 991.9 796.981 991.9C808.957 1011.8 826.821 1010.4 826.821 1010.4C811.751 1009.2 797.181 987 797.181 987C806.562 1000 823.028 994.1 823.028 994.1C804.566 992.9 792.989 963.8 792.989 963.8C798.678 971.2 810.654 971.3 814.246 971.2C809.057 971.3 803.867 968.6 800.075 966C808.658 970.1 820.434 967.9 820.434 967.9C810.853 967.5 796.283 944.2 796.283 944.2C804.766 951.4 815.544 946.8 815.544 946.8C804.865 946.7 795.385 932 795.385 932C802.57 941.5 815.544 938.6 815.544 938.6C801.173 938.9 787.8 915.8 787.8 915.8C793.389 925.2 801.772 921.4 801.772 921.4C791.991 921.3 787.401 910.5 787.401 910.5C794.686 920 808.757 914.7 808.757 914.7C786.503 910.2 781.513 893.7 781.513 893.7C789.097 904.4 801.871 899.9 801.871 899.9C788.598 901.7 781.513 890.9 781.513 890.9C790.295 903.1 809.256 896.1 809.256 896.1C791.293 897.2 780.714 877.8 780.714 877.8C784.008 882.3 790.095 880.5 790.095 880.5C785.105 881.4 776.922 869.5 776.922 869.5C784.207 878.5 797.78 872.2 797.78 872.2C785.604 876.3 762.052 840.3 762.052 840.3C762.052 840.3 738.5 876.3 726.325 872.2C726.325 872.2 739.897 878.4 747.183 869.5C747.183 869.5 739.099 881.4 734.009 880.5C734.009 880.5 740.097 882.3 743.39 877.8C743.39 877.8 732.812 897.2 714.848 896.1C714.848 896.1 733.81 903.2 742.592 890.9C742.592 890.9 735.506 901.6 722.233 899.9C722.233 899.9 735.007 904.4 742.592 893.7C742.592 893.7 737.602 910.3 715.347 914.7C715.347 914.7 729.419 920 736.704 910.5C736.704 910.5 732.113 921.2 722.333 921.4C722.333 921.4 730.716 925.2 736.305 915.8C736.305 915.8 722.932 938.9 708.561 938.6C708.561 938.6 721.535 941.4 728.72 932C728.72 932 719.239 946.7 708.561 946.8C708.561 946.8 719.239 951.4 727.822 944.2C727.822 944.2 713.251 967.5 703.671 967.9C703.671 967.9 715.447 970.2 724.03 966C720.237 968.6 715.048 971.3 709.858 971.2C713.451 971.3 725.526 971.2 731.115 963.8C731.115 963.8 719.539 992.9 701.076 994.1C701.076 994.1 717.543 1000 726.924 987C726.924 987 712.253 1009.2 697.284 1010.4C697.284 1010.4 715.148 1011.8 727.123 991.9C727.123 991.9 721.435 1008 715.946 1009C715.946 1009 721.934 1009.1 728.121 1000.3C721.235 1012.4 708.162 1031.7 695.088 1033.1C695.088 1033.1 711.355 1036.6 724.429 1022.2C717.742 1030.6 705.367 1044.2 693.192 1046.6C693.192 1046.6 706.166 1046.2 716.644 1042.8C708.561 1046.9 697.483 1052.1 691.496 1053C695.288 1052.5 720.038 1048.6 727.522 1040.9C727.522 1040.9 712.154 1062.8 670.239 1070.2C670.239 1070.2 694.689 1071.8 711.255 1067.4C697.883 1074.7 677.823 1085 666.546 1087.1C666.546 1087.1 685.408 1088.3 696.984 1078.8C696.984 1078.8 685.009 1095.9 671.137 1096.5C671.137 1096.5 686.206 1100.8 698.481 1092.5C693.591 1096.5 686.306 1101.7 680.917 1101.8C680.917 1101.8 693.392 1106.5 705.068 1090.8C705.068 1090.8 680.817 1125.3 666.347 1124.1C666.347 1124.1 686.406 1126.2 701.874 1116.9C697.583 1121.4 692.893 1126 688.502 1129.6H760.056H763.948H835.503C831.112 1126 826.422 1121.4 822.13 1116.9C826.921 1119.7 832.11 1121.5 837 1122.6V1112.1C827.22 1102.5 818.937 1090.8 818.937 1090.8C825.523 1099.6 832.21 1102 837 1102.4V1100.1C832.908 1098.2 828.717 1095.1 825.523 1092.5C829.216 1095 833.208 1096.4 837 1097.1V1089.4C831.012 1084.5 827.12 1078.9 827.12 1078.9C830.114 1081.4 833.507 1083.1 837 1084.3V1079.8C828.617 1076 819.835 1071.4 812.849 1067.5C820.234 1069.5 829.316 1070.2 837 1070.5V1066.1V1066.1Z" fill="url(#paint14_linear)"/>
<path d="M287.217 1174.3C268.954 1175.8 238.416 1132.4 238.416 1132.4C253.186 1152.2 268.854 1146.2 268.854 1146.2C262.068 1146 252.786 1139.5 246.699 1134.5C262.167 1145.1 281.129 1139.6 281.129 1139.6C263.764 1138.8 248.695 1117.3 248.695 1117.3C263.265 1129.3 287.017 1127.8 287.017 1127.8C272.846 1125.2 247.597 1112.3 230.731 1103.1C251.589 1108.6 282.426 1106.6 282.426 1106.6C229.634 1097.2 210.273 1069.7 210.273 1069.7C219.654 1079.4 250.89 1084.2 255.681 1084.9C248.096 1083.7 234.224 1077.2 224.045 1072C237.218 1076.3 253.585 1076.8 253.585 1076.8C238.216 1073.8 222.648 1056.7 214.265 1046.1C230.631 1064.3 251.19 1059.9 251.19 1059.9C234.723 1058.1 218.356 1033.8 209.674 1018.6C217.458 1029.7 224.943 1029.5 224.943 1029.5C218.057 1028.2 210.872 1008 210.872 1008C225.941 1033.1 248.495 1031.3 248.495 1031.3C229.534 1029.8 211.171 1001.8 211.171 1001.8C222.947 1018.2 243.605 1010.8 243.605 1010.8C220.352 1009.3 205.782 972.6 205.782 972.6C212.868 981.9 228.037 982.1 232.627 981.9C226.041 982 219.554 978.7 214.764 975.4C225.542 980.6 240.312 977.8 240.312 977.8C228.336 977.3 209.973 947.9 209.973 947.9C220.752 957 234.224 951.1 234.224 951.1C220.752 950.9 208.776 932.5 208.776 932.5C217.857 944.5 234.224 940.9 234.224 940.9C216.161 941.2 199.295 912.2 199.295 912.2C206.281 924 216.859 919.2 216.859 919.2C204.584 919 198.796 905.5 198.796 905.5C207.978 917.5 225.741 910.8 225.741 910.8C197.798 905.2 191.511 884.3 191.511 884.3C201.092 897.8 217.059 892.2 217.059 892.2C200.393 894.4 191.511 880.9 191.511 880.9C202.588 896.3 226.44 887.4 226.44 887.4C203.786 888.8 190.513 864.3 190.513 864.3C194.605 869.9 202.289 867.7 202.289 867.7C196.002 868.9 185.723 853.9 185.723 853.9C194.904 865.2 211.969 857.3 211.969 857.3C196.601 862.4 166.961 817.1 166.961 817.1C166.961 817.1 137.321 862.4 121.952 857.3C121.952 857.3 139.018 865.2 148.199 853.9C148.199 853.9 137.92 868.9 131.633 867.7C131.633 867.7 139.317 869.9 143.409 864.3C143.409 864.3 130.136 888.7 107.482 887.4C107.482 887.4 131.333 896.3 142.411 880.9C142.411 880.9 133.529 894.4 116.863 892.2C116.863 892.2 132.93 897.8 142.411 884.3C142.411 884.3 136.123 905.1 108.18 910.8C108.18 910.8 125.944 917.5 135.125 905.5C135.125 905.5 129.337 919 117.062 919.2C117.062 919.2 127.641 924 134.627 912.2C134.627 912.2 117.761 941.2 99.6974 940.9C99.6974 940.9 116.064 944.5 125.146 932.5C125.146 932.5 113.17 951 99.6974 951.1C99.6974 951.1 113.17 956.9 123.948 947.9C123.948 947.9 105.585 977.3 93.6098 977.8C93.6098 977.8 108.38 980.6 119.158 975.4C114.368 978.7 107.881 982.1 101.294 981.9C105.885 982.1 120.954 981.9 128.14 972.6C128.14 972.6 113.569 1009.2 90.3165 1010.8C90.3165 1010.8 111.074 1018.2 122.751 1001.8C122.751 1001.8 104.288 1029.7 85.4264 1031.3C85.4264 1031.3 107.981 1033.1 123.05 1008C123.05 1008 115.865 1028.2 108.979 1029.5C108.979 1029.5 116.463 1029.7 124.248 1018.6C115.565 1033.8 99.0987 1058.2 82.7319 1059.9C82.7319 1059.9 103.19 1064.4 119.657 1046.1C111.274 1056.7 95.7055 1073.8 80.3368 1076.8C80.3368 1076.8 96.7035 1076.3 109.877 1072C99.6974 1077.2 85.7258 1083.7 78.241 1084.9C83.0313 1084.2 114.268 1079.4 123.649 1069.7C123.649 1069.7 104.288 1097.2 51.4954 1106.6C51.4954 1106.6 82.3327 1108.7 103.19 1103.1C86.4244 1112.3 61.0759 1125.3 46.9047 1127.8C46.9047 1127.8 70.6564 1129.3 85.2268 1117.3C85.2268 1117.3 70.1574 1138.8 52.7927 1139.6C52.7927 1139.6 71.7542 1145.1 87.2228 1134.5C81.1352 1139.5 71.854 1146 65.0678 1146.2C65.0678 1146.2 80.7359 1152.2 95.506 1132.4C95.506 1132.4 64.968 1175.9 46.7051 1174.3C46.7051 1174.3 71.9538 1176.9 91.4143 1165.3C86.0252 1171 80.1372 1176.8 74.5485 1181.3H164.665H169.556H259.273C253.685 1176.8 247.797 1170.9 242.408 1165.3C261.968 1176.9 287.217 1174.3 287.217 1174.3Z" fill="url(#paint15_linear)"/>
<path d="M295.999 1170.7C286.019 1176.9 266.26 1188.2 255.382 1188C255.382 1188 258.575 1188.5 263.365 1188.9H435.416C440.206 1188.4 443.4 1188 443.4 1188C432.622 1188.2 412.762 1176.9 402.782 1170.7C416.854 1175.8 444.897 1171.7 444.897 1171.7C437.811 1170.1 429.927 1166.1 422.043 1161.2C425.237 1161.1 427.432 1160.2 427.432 1160.2C423.141 1159.7 417.752 1157.4 413.361 1155.3C408.271 1151.6 403.381 1147.8 399.09 1144.2C406.175 1146.5 414.957 1145.4 414.957 1145.4C410.367 1144.6 407.073 1142.6 404.778 1140.5C412.762 1140.2 419.049 1137.1 419.049 1137.1C407.772 1132 400.886 1123.9 400.886 1123.9C409.269 1131 431.823 1122.5 431.823 1122.5C410.367 1120.6 387.813 1100.4 378.931 1091.7C387.014 1098 396.695 1094.7 396.695 1094.7C382.124 1095.5 374.041 1075.2 374.041 1075.2C386.515 1093.6 420.746 1084.3 420.746 1084.3C393.102 1085.4 372.843 1043.9 372.843 1043.9C386.515 1060.1 410.666 1051 410.666 1051C387.413 1050.5 382.124 1030.7 382.124 1030.7C389.908 1034.3 392.503 1031.8 392.503 1031.8C383.621 1032.1 377.035 1021.9 377.035 1021.9C391.006 1033.7 408.87 1022.7 408.87 1022.7C394.898 1025.7 378.631 998 378.631 998C385.318 1002.9 397.593 998 397.593 998C392.004 999.4 381.126 993.5 373.941 988.9C388.811 995.8 408.97 990.9 408.97 990.9C384.819 987.6 371.446 970 371.446 970C380.128 973.6 386.016 971.6 386.016 971.6C368.452 971.3 362.165 955.9 362.165 955.9C364.56 959.2 376.436 959.5 376.436 959.5C372.843 959.5 366.057 953.5 366.057 953.5C375.438 957.8 390.807 954.1 390.807 954.1C359.969 954.1 354.68 925 358.871 930C363.063 934.9 369.35 931.2 369.35 931.2C357.973 926.3 352.684 910.8 350.289 898.3V881.1C350.289 881.1 350.189 885.7 349.291 892.3C348.393 885.8 348.293 881.1 348.293 881.1V898.3C345.898 910.8 340.708 926.2 329.232 931.2C329.232 931.2 335.519 934.9 339.71 930C343.902 925.1 338.613 954.1 307.775 954.1C307.775 954.1 323.144 957.8 332.525 953.5C332.525 953.5 325.739 959.5 322.146 959.5C322.146 959.5 334.022 959.2 336.417 955.9C336.417 955.9 330.13 971.3 312.565 971.6C312.565 971.6 318.553 973.5 327.136 970C327.136 970 313.763 987.6 289.612 990.9C289.612 990.9 309.771 995.8 324.641 988.9C317.356 993.5 306.578 999.4 300.989 998C300.989 998 313.264 1002.9 319.95 998C319.95 998 303.684 1025.8 289.712 1022.7C289.712 1022.7 307.576 1033.7 321.547 1021.9C321.547 1021.9 314.961 1032.1 306.079 1031.8C306.079 1031.8 308.773 1034.3 316.458 1030.7C316.458 1030.7 311.069 1050.5 287.916 1051C287.916 1051 312.066 1060.1 325.739 1043.9C325.739 1043.9 305.48 1085.4 277.836 1084.3C277.836 1084.3 312.066 1093.6 324.541 1075.2C324.541 1075.2 316.458 1095.5 301.887 1094.7C301.887 1094.7 311.468 1097.9 319.651 1091.7C310.769 1100.4 288.215 1120.6 266.759 1122.5C266.759 1122.5 289.412 1131 297.696 1123.9C297.696 1123.9 290.81 1132 279.533 1137.1C279.533 1137.1 285.82 1140.2 293.804 1140.5C291.508 1142.6 288.115 1144.6 283.624 1145.4C283.624 1145.4 292.406 1146.5 299.492 1144.2C295.201 1147.8 290.311 1151.7 285.221 1155.3C280.83 1157.4 275.541 1159.7 271.15 1160.2C271.15 1160.2 273.245 1161 276.539 1161.2C268.754 1166.1 260.771 1170.1 253.685 1171.7C253.885 1171.7 282.027 1175.8 295.999 1170.7ZM392.902 1183C392.703 1182.7 392.603 1182.5 392.603 1182.5C392.703 1182.6 392.803 1182.8 392.902 1183ZM306.278 1182.5C306.278 1182.5 306.178 1182.7 305.979 1183C306.079 1182.8 306.178 1182.6 306.278 1182.5Z" fill="url(#paint16_linear)"/>
<path d="M837 1459.4V1256.7C818.537 1256.5 799.975 1255.5 781.612 1253.9C770.236 1252.9 758.958 1251.6 747.582 1250.1C747.482 1250.1 747.382 1250.1 747.382 1250.1C747.282 1250.1 747.182 1250.1 747.083 1250.1C745.985 1249.9 744.787 1249.8 743.69 1249.6C740.696 1249.2 737.702 1248.7 734.608 1248.3C728.919 1247.4 723.331 1246.5 717.642 1245.6C672.334 1237.9 627.625 1227.4 583.116 1215.9C495.394 1193.2 408.271 1167 318.653 1152.9C236.22 1139.9 152.59 1137.1 70.6565 1155.5C46.7051 1160.9 22.9534 1168.2 2.41613e-09 1177.4V1459.6C-1.71391e-06 1475.76 -8.0898e-05 1484.15 3.72899 1488.5C7.75438 1493.2 16.1251 1493.2 33.5319 1493.2H803.468C822.03 1493 837 1478 837 1459.4Z" fill="url(#paint17_linear)"/>
<path d="M598.4 788.3C519.5 788.3 455.5 724.3 455.5 645.4C455.5 566.5 519.5 502.5 598.4 502.5C677.3 502.5 741.3 566.5 741.3 645.4C741.3 724.3 677.3 788.3 598.4 788.3ZM598.4 482C508.2 482 435 555.1 435 645.4C435 735.7 508.1 808.8 598.4 808.8C688.6 808.8 761.8 735.7 761.8 645.4C761.8 555.1 688.6 482 598.4 482Z" fill="url(#paint18_linear)"/>
<path d="M598.4 502.5C519.5 502.5 455.5 566.5 455.5 645.4C455.5 724.3 519.5 788.3 598.4 788.3C677.3 788.3 741.3 724.3 741.3 645.4C741.3 566.5 677.3 502.5 598.4 502.5Z" fill="url(#paint19_linear)"/>
<path d="M598.4 766.8C665.447 766.8 719.8 712.447 719.8 645.4C719.8 578.353 665.447 524 598.4 524C531.353 524 477 578.353 477 645.4C477 712.447 531.353 766.8 598.4 766.8Z" fill="#FFFCEB"/>
<defs>
<linearGradient id="paint0_linear" x1="418.504" y1="884.755" x2="418.504" y2="44.9349" gradientUnits="userSpaceOnUse">
<stop offset="0.00731707" stop-color="#E0FCF7"/>
<stop offset="0.2732" stop-color="#71E2CD"/>
<stop offset="0.6902" stop-color="#238FB8"/>
<stop offset="1" stop-color="#31437C"/>
</linearGradient>
<linearGradient id="paint1_linear" x1="418.504" y1="1550.96" x2="418.504" y2="1321.02" gradientUnits="userSpaceOnUse">
<stop stop-color="#253C6B"/>
<stop offset="1" stop-color="#172A56"/>
</linearGradient>
<linearGradient id="paint2_linear" x1="400.514" y1="1151.87" x2="400.514" y2="927.168" gradientUnits="userSpaceOnUse">
<stop stop-color="#53819B"/>
<stop offset="1" stop-color="#406B89"/>
</linearGradient>
<linearGradient id="paint3_linear" x1="368.658" y1="1069.92" x2="368.658" y2="786.819" gradientUnits="userSpaceOnUse">
<stop stop-color="#43658E"/>
<stop offset="1" stop-color="#38557F"/>
</linearGradient>
<linearGradient id="paint4_linear" x1="495.436" y1="1155.55" x2="495.436" y2="1077.17" gradientUnits="userSpaceOnUse">
<stop stop-color="#415993"/>
<stop offset="1" stop-color="#31437C"/>
</linearGradient>
<linearGradient id="paint5_linear" x1="483.935" y1="986.05" x2="487.649" y2="1013.28" gradientUnits="userSpaceOnUse">
<stop stop-color="#415993"/>
<stop offset="1" stop-color="#31437C"/>
</linearGradient>
<linearGradient id="paint6_linear" x1="541.685" y1="958.631" x2="546.378" y2="990.909" gradientUnits="userSpaceOnUse">
<stop stop-color="#415993"/>
<stop offset="1" stop-color="#31437C"/>
</linearGradient>
<linearGradient id="paint7_linear" x1="776.373" y1="857.562" x2="780.402" y2="885.401" gradientUnits="userSpaceOnUse">
<stop stop-color="#415993"/>
<stop offset="1" stop-color="#31437C"/>
</linearGradient>
<linearGradient id="paint8_linear" x1="426.506" y1="991.844" x2="425.702" y2="1030.46" gradientUnits="userSpaceOnUse">
<stop stop-color="#2F4B7C"/>
<stop offset="1" stop-color="#223A6B"/>
</linearGradient>
<linearGradient id="paint9_linear" x1="224.171" y1="900.349" x2="223.081" y2="956.176" gradientUnits="userSpaceOnUse">
<stop stop-color="#2F4B7C"/>
<stop offset="1" stop-color="#223A6B"/>
</linearGradient>
<linearGradient id="paint10_linear" x1="396.87" y1="962.212" x2="395.776" y2="1015.05" gradientUnits="userSpaceOnUse">
<stop stop-color="#2F4B7C"/>
<stop offset="1" stop-color="#223A6B"/>
</linearGradient>
<linearGradient id="paint11_linear" x1="418.504" y1="1284.87" x2="418.504" y2="1152.82" gradientUnits="userSpaceOnUse">
<stop stop-color="#2F4B7C"/>
<stop offset="1" stop-color="#223A6B"/>
</linearGradient>
<linearGradient id="paint12_linear" x1="618.37" y1="950.048" x2="617.281" y2="1005.88" gradientUnits="userSpaceOnUse">
<stop stop-color="#2F4B7C"/>
<stop offset="1" stop-color="#223A6B"/>
</linearGradient>
<linearGradient id="paint13_linear" x1="709.395" y1="917.756" x2="707.965" y2="987.013" gradientUnits="userSpaceOnUse">
<stop stop-color="#2F4B7C"/>
<stop offset="1" stop-color="#223A6B"/>
</linearGradient>
<linearGradient id="paint14_linear" x1="756.563" y1="883.243" x2="754.956" y2="957.119" gradientUnits="userSpaceOnUse">
<stop stop-color="#2F4B7C"/>
<stop offset="1" stop-color="#223A6B"/>
</linearGradient>
<linearGradient id="paint15_linear" x1="158.274" y1="924.912" x2="161.568" y2="1013.66" gradientUnits="userSpaceOnUse">
<stop stop-color="#253C6B"/>
<stop offset="1" stop-color="#172A56"/>
</linearGradient>
<linearGradient id="paint16_linear" x1="342.385" y1="972.216" x2="345.343" y2="1047.2" gradientUnits="userSpaceOnUse">
<stop stop-color="#253C6B"/>
<stop offset="1" stop-color="#172A56"/>
</linearGradient>
<linearGradient id="paint17_linear" x1="418.504" y1="1558.77" x2="418.504" y2="1284.43" gradientUnits="userSpaceOnUse">
<stop stop-color="#253C6B"/>
<stop offset="1" stop-color="#172A56"/>
</linearGradient>
<linearGradient id="paint18_linear" x1="598.386" y1="885.554" x2="598.386" y2="46.7686" gradientUnits="userSpaceOnUse">
<stop stop-color="#E7FCF4"/>
<stop offset="0.00731707" stop-color="#E7FCF4"/>
<stop offset="0.2732" stop-color="#93E8D4"/>
<stop offset="0.6902" stop-color="#58A9C4"/>
<stop offset="1" stop-color="#626F97"/>
</linearGradient>
<linearGradient id="paint19_linear" x1="598.386" y1="885.554" x2="598.386" y2="46.7686" gradientUnits="userSpaceOnUse">
<stop stop-color="#EDFCF2"/>
<stop offset="0.00731707" stop-color="#EDFCF2"/>
<stop offset="0.2732" stop-color="#ADEDDA"/>
<stop offset="0.6902" stop-color="#80BDCD"/>
<stop offset="1" stop-color="#8891AB"/>
</linearGradient>
</defs>
</svg>
